<svg xmlns="http://www.w3.org/2000/svg" xmlns:xlink="http://www.w3.org/1999/xlink" viewBox="0 0 400 500"><defs><linearGradient id="linear-gradient" x1="-58.62" y1="396.55" x2="458.62" y2="103.45" gradientUnits="userSpaceOnUse"><stop offset="0.1" stop-color="#ff9558"/><stop offset="0.51" stop-color="#ffa06a"/><stop offset="1" stop-color="#ffc67b"/></linearGradient></defs><title>banAsset 15</title><g id="Layer_2" data-name="Layer 2"><g id="Layer_1-2" data-name="Layer 1"><rect width="400" height="500" fill="url(#linear-gradient)"/><path d="M95.16,453.05c-2-1.07-3.55-2.73-3.55-3.71s1.59-1.46,3.55-1.56a3.45,3.45,0,0,1,3.55,3.72C98.71,453.67,97.12,454.14,95.16,453.05Z" fill="#fff"/><path d="M95.16,464.33a8.05,8.05,0,0,1-3.55-6c0-2.07,1.59-2.79,3.55-1.5a9.1,9.1,0,0,1,3.55,6.52C98.71,465.36,97.12,465.55,95.16,464.33Z" fill="#fff"/><path d="M95.16,478.12c-2,.11-3.55-2.73-3.55-5.89s1.59-4.81,3.55-3.74a7.85,7.85,0,0,1,3.55,5.91A3.86,3.86,0,0,1,95.16,478.12Z" fill="#fff"/><path d="M85.36,450.16c-2-.18-3.55-1-3.55-1.67s1.59-.7,3.55-.71,3.54.23,3.54,1.1S87.31,450.36,85.36,450.16Z" fill="#fff"/><path d="M85.36,460.71a4.39,4.39,0,0,1-3.55-4.36,3.1,3.1,0,0,1,3.55-3.25,4.17,4.17,0,0,1,3.54,4.16A3.28,3.28,0,0,1,85.36,460.71Z" fill="#fff"/><path d="M85.36,478.12c-2,0-3.55-3.26-3.55-6.73s1.59-6,3.55-5.79,3.54,2.91,3.54,6.18S87.31,478.08,85.36,478.12Z" fill="#fff"/><path d="M75.55,450.78c-2,.42-3.55-.29-3.55-1.39s1.59-1.66,3.55-1.61,3.55.16,3.55.82S77.51,450.38,75.55,450.78Z" fill="#fff"/><path d="M75.55,461.49A2.88,2.88,0,0,1,72,458.44a4.83,4.83,0,0,1,3.55-4.54,2.65,2.65,0,0,1,3.55,2.7A5.25,5.25,0,0,1,75.55,461.49Z" fill="#fff"/><path d="M75.55,478.12c-2-.05-3.55-2.84-3.55-5.83s1.59-5.65,3.55-6.07S79.1,468,79.1,471.5,77.51,478.16,75.55,478.12Z" fill="#fff"/><path d="M65.74,453.51c-1.95.71-3.54-.31-3.54-2.29a3.38,3.38,0,0,1,3.54-3.44c2,.08,3.55.86,3.55,2.06S67.7,452.81,65.74,453.51Z" fill="#fff"/><path d="M65.74,464.91c-1.95.81-3.54-.18-3.54-2.23a6.28,6.28,0,0,1,3.54-5.28c2-.83,3.55,0,3.55,2.08A6.43,6.43,0,0,1,65.74,464.91Z" fill="#fff"/><path d="M65.74,478.12a3.91,3.91,0,0,1-3.54-4A5.84,5.84,0,0,1,65.74,469c2-.7,3.55.88,3.55,3.78S67.7,478.2,65.74,478.12Z" fill="#fff"/><path d="M55.94,457c-2,.7-3.55-.89-3.55-3.78s1.59-5.47,3.55-5.39a3.92,3.92,0,0,1,3.55,4A5.86,5.86,0,0,1,55.94,457Z" fill="#fff"/><path d="M55.94,469.21c-2,.8-3.55,0-3.55-2a6.44,6.44,0,0,1,3.55-5.37c2-.84,3.55.12,3.55,2.17A6.15,6.15,0,0,1,55.94,469.21Z" fill="#fff"/><path d="M55.94,478.12c-2-.08-3.55-.86-3.55-2.06s1.59-3,3.55-3.67,3.55.31,3.55,2.29A3.38,3.38,0,0,1,55.94,478.12Z" fill="#fff"/><path d="M46.13,459.68c-2,.39-3.54-1.82-3.54-5.27s1.59-6.67,3.54-6.63,3.55,2.84,3.55,5.83S48.09,459.26,46.13,459.68Z" fill="#fff"/><path d="M46.13,472.62c-2,.47-3.54-.54-3.54-2.55a5.2,5.2,0,0,1,3.54-4.75,2.81,2.81,0,0,1,3.55,2.91A4.69,4.69,0,0,1,46.13,472.62Z" fill="#fff"/><path d="M46.13,478.12c-2,0-3.54-.16-3.54-.82s1.59-1.78,3.54-2.18,3.55.3,3.55,1.39S48.09,478.18,46.13,478.12Z" fill="#fff"/><path d="M36.33,460.3c-2-.2-3.55-2.91-3.55-6.18s1.59-6.3,3.55-6.34,3.55,3.26,3.55,6.73S38.29,460.48,36.33,460.3Z" fill="#fff"/><path d="M36.33,473.4a4.06,4.06,0,0,1-3.55-4,3.2,3.2,0,0,1,3.55-3.29,4.31,4.31,0,0,1,3.55,4.2A3,3,0,0,1,36.33,473.4Z" fill="#fff"/><path d="M36.33,478.12c-2,0-3.55-.23-3.55-1.1s1.59-1.47,3.55-1.27,3.55,1,3.55,1.66S38.29,478.11,36.33,478.12Z" fill="#fff"/><path d="M26.52,457.41A7.84,7.84,0,0,1,23,451.5a3.85,3.85,0,0,1,3.54-3.72c2-.11,3.55,2.73,3.55,5.89S28.48,458.48,26.52,457.41Z" fill="#fff"/><path d="M26.52,469.79A8.86,8.86,0,0,1,23,463.33c0-2,1.58-2.18,3.54-.92a8.12,8.12,0,0,1,3.55,5.95C30.07,470.36,28.48,471,26.52,469.79Z" fill="#fff"/><path d="M26.52,478.12A3.44,3.44,0,0,1,23,474.4c0-2.17,1.58-2.63,3.54-1.54s3.55,2.72,3.55,3.7S28.48,478,26.52,478.12Z" fill="#fff"/><rect x="14.44" y="17.07" width="372.96" height="468" fill="none" stroke="#fff" stroke-miterlimit="10" stroke-width="2.58"/><path d="M171.85,218.67a9,9,0,0,1,10.41,0,5,5,0,0,1,2.07,4.07,5.51,5.51,0,0,1-1.86,4.16,6.37,6.37,0,0,1,2.61,5.29,5.91,5.91,0,0,1-2.22,4.66,9.84,9.84,0,0,1-11.6,0,5.91,5.91,0,0,1-2.22-4.66,6.37,6.37,0,0,1,2.61-5.29,5.54,5.54,0,0,1-1.89-4.18A5,5,0,0,1,171.85,218.67Zm2.93,15.46a4,4,0,0,0,2.28.7,4.06,4.06,0,0,0,2.29-.7,2.33,2.33,0,0,0,1.05-2.06,2.41,2.41,0,0,0-1-2.08,4,4,0,0,0-2.32-.72,3.91,3.91,0,0,0-2.31.72,2.41,2.41,0,0,0-1,2.08A2.33,2.33,0,0,0,174.78,234.13Zm.28-9.18a3.14,3.14,0,0,0,4,0,2.3,2.3,0,0,0,0-3.58,3.17,3.17,0,0,0-4,0,2.32,2.32,0,0,0,0,3.58Z" fill="#fff"/><path d="M194.22,225.58v7.24a2.09,2.09,0,0,0,.48,1.46,1.49,1.49,0,0,0,1.14.52,2.6,2.6,0,0,0,2.13-1.14l1.69,3.16a6.53,6.53,0,0,1-4.44,1.92,5.38,5.38,0,0,1-5.54-5.71v-7.45h-1.89v-3.25h1.89V217.5h4.54v4.83h3.9v3.25Z" fill="#fff"/><path d="M206.57,229.78v8.72h-4.51V216.2h4.51v7.94a6.27,6.27,0,0,1,4.58-2.08,5.72,5.72,0,0,1,4.28,1.8,6.65,6.65,0,0,1,1.74,4.81v9.83h-4.5v-8.84c0-2.48-.92-3.72-2.74-3.72a3.28,3.28,0,0,0-2.36,1A3.84,3.84,0,0,0,206.57,229.78Z" fill="#fff"/><path d="M111.8,257.74a1.8,1.8,0,0,0-.67,1.47,1.66,1.66,0,0,0,.82,1.46,15.15,15.15,0,0,0,3.82,1.28,10.75,10.75,0,0,1,4.64,2.21,5.45,5.45,0,0,1,1.65,4.29,5.63,5.63,0,0,1-2.12,4.58,8.39,8.39,0,0,1-5.57,1.76,12.9,12.9,0,0,1-9-3.69l2.79-3.43q3.41,3,6.28,3a3.31,3.31,0,0,0,2-.56,1.79,1.79,0,0,0,.74-1.5,1.73,1.73,0,0,0-.79-1.5,10.15,10.15,0,0,0-3.09-1.13,13.46,13.46,0,0,1-5.36-2.27,5.33,5.33,0,0,1-1.7-4.39,5.42,5.42,0,0,1,2.15-4.61,8.65,8.65,0,0,1,5.36-1.62,13,13,0,0,1,4.21.72,11.25,11.25,0,0,1,3.66,2l-2.37,3.43a9.26,9.26,0,0,0-5.65-2.07A2.83,2.83,0,0,0,111.8,257.74Z" fill="#fff"/><path d="M135.82,267.1v-8.71h4.54v16.16h-4.54v-2.13a5.1,5.1,0,0,1-4.34,2.37,6.32,6.32,0,0,1-4.46-1.66,6.43,6.43,0,0,1-1.8-4.95v-9.79h4.53v8.8c0,2.49.92,3.73,2.74,3.73a3.23,3.23,0,0,0,2.34-1A3.82,3.82,0,0,0,135.82,267.1Z" fill="#fff"/><path d="M156.8,269.52a4.71,4.71,0,0,1-1.76,3.83,6.81,6.81,0,0,1-4.46,1.44,11.93,11.93,0,0,1-3.76-.64,11.08,11.08,0,0,1-3.51-1.91l2-2.83a8.58,8.58,0,0,0,5.38,2,2.43,2.43,0,0,0,1.38-.35,1,1,0,0,0,.51-.91,1.34,1.34,0,0,0-.71-1.06,8,8,0,0,0-2-.9q-1.34-.42-2-.72a11.5,11.5,0,0,1-1.61-.87,3.73,3.73,0,0,1-1.83-3.38,4.43,4.43,0,0,1,1.8-3.65,7.33,7.33,0,0,1,4.66-1.41A10.2,10.2,0,0,1,156.5,260l-1.69,3a7.38,7.38,0,0,0-4.19-1.44c-1.39,0-2.09.38-2.09,1.14a1.11,1.11,0,0,0,.66,1,13.94,13.94,0,0,0,2.2.84c1,.32,1.75.56,2.18.73a11,11,0,0,1,1.54.8A3.66,3.66,0,0,1,156.8,269.52Z" fill="#fff"/><path d="M165.51,261.63v7.24a2.09,2.09,0,0,0,.48,1.46,1.5,1.5,0,0,0,1.14.53,2.63,2.63,0,0,0,2.14-1.14l1.68,3.15a6.51,6.51,0,0,1-4.43,1.92,5.38,5.38,0,0,1-5.55-5.71v-7.45h-1.89v-3.24H161v-4.84h4.54v4.84h3.91v3.24Z" fill="#fff"/><path d="M187.08,274.55h-4.23V272.6a5.33,5.33,0,0,1-4.32,2.19,6.41,6.41,0,0,1-4.31-1.48,5,5,0,0,1-1.74-4,4.2,4.2,0,0,1,1.8-3.71,8.65,8.65,0,0,1,4.93-1.23h3.37v-.09c0-1.73-.92-2.59-2.74-2.59a7.42,7.42,0,0,0-2.48.47,7.8,7.8,0,0,0-2.21,1.16l-2-2.92a12.07,12.07,0,0,1,7.27-2.31,7.54,7.54,0,0,1,4.81,1.47,5.57,5.57,0,0,1,1.86,4.66Zm-4.54-6.16v-.78h-2.82q-2.7,0-2.7,1.68a1.54,1.54,0,0,0,.64,1.34,3.14,3.14,0,0,0,1.85.47,3.3,3.3,0,0,0,2.12-.74A2.4,2.4,0,0,0,182.54,268.39Z" fill="#fff"/><path d="M191.57,256.33a2.68,2.68,0,1,1,1.88.77A2.56,2.56,0,0,1,191.57,256.33Zm4.14,18.22H191.2V258.39h4.51Z" fill="#fff"/><path d="M204.48,265.54v9H200V258.39h4.51v1.8a6.3,6.3,0,0,1,4.6-2.07,5.71,5.71,0,0,1,4.28,1.8,6.65,6.65,0,0,1,1.72,4.81v9.82h-4.5v-9.13c0-2.48-.91-3.73-2.74-3.73a3.31,3.31,0,0,0-2.36,1A3.82,3.82,0,0,0,204.48,265.54Z" fill="#fff"/><path d="M232.9,274.55h-4.23V272.6a5.33,5.33,0,0,1-4.32,2.19,6.41,6.41,0,0,1-4.31-1.48,5,5,0,0,1-1.74-4,4.2,4.2,0,0,1,1.8-3.71A8.65,8.65,0,0,1,225,264.4h3.36v-.09c0-1.73-.91-2.59-2.73-2.59a7.42,7.42,0,0,0-2.48.47,7.8,7.8,0,0,0-2.21,1.16l-2-2.92a12.07,12.07,0,0,1,7.27-2.31,7.54,7.54,0,0,1,4.81,1.47,5.57,5.57,0,0,1,1.86,4.66Zm-4.54-6.16v-.78h-2.82q-2.7,0-2.7,1.68a1.54,1.54,0,0,0,.64,1.34,3.14,3.14,0,0,0,1.85.47,3.3,3.3,0,0,0,2.12-.74A2.4,2.4,0,0,0,228.36,268.39Z" fill="#fff"/><path d="M246.33,258.12a6.86,6.86,0,0,1,5.14,2.3,8.2,8.2,0,0,1,2.19,5.9,8.56,8.56,0,0,1-2.25,6,6.83,6.83,0,0,1-5.12,2.43,5.87,5.87,0,0,1-4.77-2.37v2.13H237V252.26h4.5v7.93A6.19,6.19,0,0,1,246.33,258.12Zm-4.87,8.37a4.68,4.68,0,0,0,1.1,3.21,3.43,3.43,0,0,0,2.66,1.25A3.64,3.64,0,0,0,248,269.7a4.45,4.45,0,0,0,1.18-3.2,4.78,4.78,0,0,0-1.15-3.27,3.47,3.47,0,0,0-2.73-1.33,3.39,3.39,0,0,0-2.69,1.31A4.93,4.93,0,0,0,241.46,266.49Z" fill="#fff"/><path d="M261.53,274.55H257V252.26h4.5Z" fill="#fff"/><path d="M279.8,272.21a9,9,0,0,1-6.41,2.58,8.5,8.5,0,0,1-6.09-2.27,8,8,0,0,1-2.4-6.08,7.86,7.86,0,0,1,2.45-6.07,8.26,8.26,0,0,1,5.78-2.25,8.39,8.39,0,0,1,5.67,2,6.93,6.93,0,0,1,2.32,5.53v2.4H269.35a3.23,3.23,0,0,0,1.38,2.17,4.42,4.42,0,0,0,2.64.84,5.17,5.17,0,0,0,3.91-1.6Zm-4.32-9.59a3.44,3.44,0,0,0-2.27-.78,4.07,4.07,0,0,0-2.45.81,3.14,3.14,0,0,0-1.29,2.2h7.09A3.24,3.24,0,0,0,275.48,262.62Z" fill="#fff"/><path d="M127.92,306.46a6.91,6.91,0,0,0,5.65-2.73l3,3.09a11.32,11.32,0,0,1-16.42,1,11.1,11.1,0,0,1,.06-15.53,10.77,10.77,0,0,1,7.82-3.12,11.12,11.12,0,0,1,8.66,3.93l-2.92,3.31a6.81,6.81,0,0,0-5.53-2.77,6.45,6.45,0,0,0-4.52,1.73,6,6,0,0,0-1.88,4.66,6.33,6.33,0,0,0,1.78,4.7A5.84,5.84,0,0,0,127.92,306.46Z" fill="#fff"/><path d="M155.35,302.53a8,8,0,0,1-2.43,5.92,9,9,0,0,1-12.23,0,8.45,8.45,0,0,1,0-11.86,8.94,8.94,0,0,1,12.23,0A8,8,0,0,1,155.35,302.53Zm-12.55,0a4.65,4.65,0,0,0,1.12,3.23,4,4,0,0,0,5.77,0,5.21,5.21,0,0,0,0-6.48,3.93,3.93,0,0,0-5.77,0A4.69,4.69,0,0,0,142.8,302.53Z" fill="#fff"/><path d="M163.2,310.61h-4.51v-22.3h4.51Z" fill="#fff"/><path d="M172,310.61h-4.51v-22.3H172Z" fill="#fff"/><path d="M190.24,308.26a9,9,0,0,1-6.42,2.59,8.51,8.51,0,0,1-6.08-2.27,7.94,7.94,0,0,1-2.41-6.08,7.84,7.84,0,0,1,2.45-6.07,8.73,8.73,0,0,1,11.45-.24,6.92,6.92,0,0,1,2.33,5.52v2.41H179.78a3.21,3.21,0,0,0,1.38,2.16,4.45,4.45,0,0,0,2.65.84,5.18,5.18,0,0,0,3.9-1.59Zm-4.33-9.58a3.42,3.42,0,0,0-2.27-.78,4.07,4.07,0,0,0-2.45.81,3.1,3.1,0,0,0-1.29,2.19H187A3.19,3.19,0,0,0,185.91,298.68Z" fill="#fff"/><path d="M202.56,306.85a5.16,5.16,0,0,0,4.05-2.25l2.68,3a9.3,9.3,0,0,1-6.76,3.25,8.77,8.77,0,0,1-6.15-2.3,8.45,8.45,0,0,1,0-12.05,8.62,8.62,0,0,1,6-2.33,9.44,9.44,0,0,1,3.53.72,9.05,9.05,0,0,1,3.14,2.14l-2.35,3.06a5.6,5.6,0,0,0-4.14-1.95,4.38,4.38,0,0,0-3.05,1.16,4.65,4.65,0,0,0,0,6.41A4.33,4.33,0,0,0,202.56,306.85Z" fill="#fff"/><path d="M217.67,297.69v7.24a2.09,2.09,0,0,0,.48,1.46,1.49,1.49,0,0,0,1.14.52,2.6,2.6,0,0,0,2.13-1.14l1.69,3.16a6.53,6.53,0,0,1-4.44,1.92,5.38,5.38,0,0,1-5.54-5.71v-7.45h-1.89v-3.25h1.89v-4.83h4.54v4.83h3.9v3.25Z" fill="#fff"/><path d="M225.89,292.39a2.66,2.66,0,1,1,4.52-1.88,2.61,2.61,0,0,1-2.65,2.64A2.53,2.53,0,0,1,225.89,292.39ZM230,310.61h-4.51V294.44H230Z" fill="#fff"/><path d="M250.45,302.53a8,8,0,0,1-2.44,5.92,9,9,0,0,1-12.22,0,8.43,8.43,0,0,1,0-11.86,8.92,8.92,0,0,1,12.22,0A8,8,0,0,1,250.45,302.53Zm-12.56,0a4.61,4.61,0,0,0,1.13,3.23,4,4,0,0,0,5.76,0,5.21,5.21,0,0,0,0-6.48,3.92,3.92,0,0,0-5.76,0A4.65,4.65,0,0,0,237.89,302.53Z" fill="#fff"/><path d="M258.29,301.59v9h-4.51V294.44h4.51v1.81a6.28,6.28,0,0,1,4.6-2.08,5.67,5.67,0,0,1,4.28,1.81,6.65,6.65,0,0,1,1.73,4.8v9.83h-4.51v-9.14q0-3.72-2.74-3.72a3.23,3.23,0,0,0-2.35,1A3.77,3.77,0,0,0,258.29,301.59Z" fill="#fff"/><path d="M152.17,346.72h-3.58l-.81,2.24h-1.16l3.26-8.54h1l3.27,8.54H153Zm-3.24-.92h2.9l-1.45-4Z" fill="#fff"/><path d="M160.48,345.86a3.81,3.81,0,0,1-.66,2.33,2.13,2.13,0,0,1-1.8.89,2.34,2.34,0,0,1-1.82-.74v3.06h-1.08v-8.79h1l0,.7a2.26,2.26,0,0,1,1.85-.82,2.17,2.17,0,0,1,1.81.87,3.85,3.85,0,0,1,.66,2.4Zm-1.08-.13a2.82,2.82,0,0,0-.46-1.69,1.48,1.48,0,0,0-1.26-.63,1.62,1.62,0,0,0-1.48.88v3a1.61,1.61,0,0,0,1.49.87,1.47,1.47,0,0,0,1.25-.62A3.1,3.1,0,0,0,159.4,345.73Z" fill="#fff"/><path d="M164.93,343.58a4.24,4.24,0,0,0-.53,0,1.43,1.43,0,0,0-1.45.91V349h-1.09v-6.35h1.06v.73a1.72,1.72,0,0,1,1.52-.85,1.19,1.19,0,0,1,.48.08Z" fill="#fff"/><path d="M165.93,340.93a.69.69,0,0,1,.16-.45.73.73,0,0,1,1,0,.64.64,0,0,1,.17.45.64.64,0,0,1-.17.44.76.76,0,0,1-1,0A.68.68,0,0,1,165.93,340.93Zm1.18,8H166v-6.35h1.09Z" fill="#fff"/><path d="M170,349h-1.08v-9H170Z" fill="#fff"/><path d="M180.22,349h-5.6v-.78l3-3.29a7,7,0,0,0,.91-1.21,2.08,2.08,0,0,0,.25-1,1.53,1.53,0,0,0-.41-1.1,1.4,1.4,0,0,0-1.08-.43,1.67,1.67,0,0,0-1.26.46,1.81,1.81,0,0,0-.44,1.28h-1.09a2.49,2.49,0,0,1,.76-1.9,2.79,2.79,0,0,1,2-.73,2.74,2.74,0,0,1,1.89.62,2.14,2.14,0,0,1,.69,1.67,4.89,4.89,0,0,1-1.61,3l-2.29,2.48h4.29Z" fill="#fff"/><path d="M186,346.09h1.18V347H186v2h-1.1v-2H181v-.64l3.83-5.92H186Zm-3.75,0h2.65V341.9l-.12.23Z" fill="#fff"/><path d="M193.47,345.77H190.6v-.88h2.87Z" fill="#fff"/><path d="M202.57,342.65a1.93,1.93,0,0,1-.34,1.13,2.16,2.16,0,0,1-.91.78,2.61,2.61,0,0,1,1.06.84,2.13,2.13,0,0,1,.39,1.25,2.24,2.24,0,0,1-.75,1.77,2.88,2.88,0,0,1-2,.66,2.84,2.84,0,0,1-2-.66,2.24,2.24,0,0,1-.75-1.77,2.22,2.22,0,0,1,.38-1.25,2.32,2.32,0,0,1,1-.84,2.28,2.28,0,0,1-.9-.78,2,2,0,0,1-.33-1.13,2.2,2.2,0,0,1,.7-1.72,2.94,2.94,0,0,1,3.64,0A2.2,2.2,0,0,1,202.57,342.65Zm-.89,4a1.58,1.58,0,0,0-.45-1.17A1.63,1.63,0,0,0,200,345a1.53,1.53,0,0,0-1.62,1.62,1.49,1.49,0,0,0,.43,1.14,1.92,1.92,0,0,0,2.4,0A1.51,1.51,0,0,0,201.68,346.63Zm-1.63-5.44a1.36,1.36,0,0,0-1,.4,1.42,1.42,0,0,0-.4,1.07,1.46,1.46,0,0,0,.39,1.06,1.42,1.42,0,0,0,1,.4,1.4,1.4,0,0,0,1-.4,1.46,1.46,0,0,0,.39-1.06,1.44,1.44,0,0,0-.4-1.06A1.39,1.39,0,0,0,200.05,341.19Z" fill="#fff"/><path d="M204.21,348.39a.7.7,0,0,1,.17-.47.65.65,0,0,1,.5-.19.62.62,0,0,1,.68.66.64.64,0,0,1-.17.45.69.69,0,0,1-.51.18.6.6,0,0,1-.67-.63Zm0-5.18a.67.67,0,0,1,.16-.47.64.64,0,0,1,.51-.19.62.62,0,0,1,.5.19.64.64,0,0,1,.18.47.61.61,0,0,1-.18.45.65.65,0,0,1-.5.18.67.67,0,0,1-.51-.18A.64.64,0,0,1,204.22,343.21Z" fill="#fff"/><path d="M212.4,345.32a4.91,4.91,0,0,1-.65,2.83,2.7,2.7,0,0,1-4.06,0,4.73,4.73,0,0,1-.68-2.71V344a4.9,4.9,0,0,1,.65-2.8,2.76,2.76,0,0,1,4.07,0,4.64,4.64,0,0,1,.67,2.73Zm-1.08-1.49a4,4,0,0,0-.39-2,1.34,1.34,0,0,0-1.23-.63,1.31,1.31,0,0,0-1.21.63,3.85,3.85,0,0,0-.39,1.93v1.74a4,4,0,0,0,.4,2,1.45,1.45,0,0,0,2.41,0,3.9,3.9,0,0,0,.41-2Z" fill="#fff"/><path d="M219.15,345.32a4.91,4.91,0,0,1-.65,2.83,2.7,2.7,0,0,1-4.06,0,4.65,4.65,0,0,1-.68-2.71V344a4.9,4.9,0,0,1,.65-2.8,2.76,2.76,0,0,1,4.07,0,4.64,4.64,0,0,1,.67,2.73Zm-1.08-1.49a4,4,0,0,0-.39-2,1.34,1.34,0,0,0-1.23-.63,1.31,1.31,0,0,0-1.21.63,3.74,3.74,0,0,0-.39,1.93v1.74a4,4,0,0,0,.4,2,1.45,1.45,0,0,0,2.41,0,3.9,3.9,0,0,0,.41-2Z" fill="#fff"/><path d="M229,345.86a3.81,3.81,0,0,1-.66,2.33,2.13,2.13,0,0,1-1.8.89,2.31,2.31,0,0,1-1.81-.74v3.06h-1.09v-8.79h1l0,.7a2.28,2.28,0,0,1,1.85-.82,2.17,2.17,0,0,1,1.81.87,3.85,3.85,0,0,1,.66,2.4Zm-1.08-.13a2.82,2.82,0,0,0-.46-1.69,1.47,1.47,0,0,0-1.26-.63,1.59,1.59,0,0,0-1.47.88v3a1.59,1.59,0,0,0,1.49.87,1.45,1.45,0,0,0,1.24-.62A3.1,3.1,0,0,0,227.91,345.73Z" fill="#fff"/><path d="M231.39,342.61l0,.7a2.39,2.39,0,0,1,1.89-.82,1.82,1.82,0,0,1,1.81,1,2.34,2.34,0,0,1,2-1c1.4,0,2.11.74,2.13,2.21V349h-1.09v-4.19a1.47,1.47,0,0,0-.31-1,1.38,1.38,0,0,0-1-.34,1.42,1.42,0,0,0-1,.37,1.46,1.46,0,0,0-.46,1V349h-1.09V344.8a1.22,1.22,0,0,0-1.36-1.39,1.46,1.46,0,0,0-1.46.91V349h-1.08v-6.35Z" fill="#fff"/><path d="M127.61,151.56a2.74,2.74,0,0,1-1.7-.86,16.75,16.75,0,0,1-2-2.29c-.72-.95-1.43-2-2.12-3.11s-1.34-2.23-1.93-3.33-1.08-2.09-1.48-3l-3.22,10.43a1.83,1.83,0,0,1-.73,1.08,2.46,2.46,0,0,1-1.08.38,11.24,11.24,0,0,1-1.14.07c.28-.62.58-1.33.88-2.13s.65-1.76,1.06-2.89.89-2.5,1.44-4.12,1.22-3.54,2-5.79,1.66-4.89,2.71-7.92l.26-.75a2.73,2.73,0,0,0,.17-.88,1,1,0,0,0-.17-.58.77.77,0,0,0-.63-.21,2.32,2.32,0,0,0-1.54.64A6.17,6.17,0,0,0,117,128a9.69,9.69,0,0,0-.92,2.06,6.48,6.48,0,0,0-.33,1.89,3.58,3.58,0,0,0,.17,1.13,1.9,1.9,0,0,1-1.55-.55,2.1,2.1,0,0,1-.44-1.34,4.42,4.42,0,0,1,.66-2.26,8.58,8.58,0,0,1,1.71-2.08,9.87,9.87,0,0,1,2.19-1.51,4.89,4.89,0,0,1,2.08-.56,1.31,1.31,0,0,1,1.21.5,2,2,0,0,1,.31,1.09,3,3,0,0,1-.08.73,7.15,7.15,0,0,1-.18.7l-2.79,9a5.61,5.61,0,0,1,1.21-1.23c.5-.37,1-.81,1.65-1.29,1-.8,2.06-1.73,3.2-2.79s2.23-2.18,3.27-3.36a27.07,27.07,0,0,0,2.59-3.38,1.35,1.35,0,0,1,.23.69,5.51,5.51,0,0,1,.07.77,4.06,4.06,0,0,1-.85,2.26A17.3,17.3,0,0,1,128.2,131c-.9.87-1.9,1.73-3,2.59s-2.16,1.65-3.21,2.4-2,1.41-2.84,2c.67,1.13,1.31,2.2,2,3.22s1.31,2,2,3a32.39,32.39,0,0,0,2.61,3,48.44,48.44,0,0,0,3.62,3.29,2.19,2.19,0,0,1-.73.76A1.89,1.89,0,0,1,127.61,151.56Z" fill="#fff"/><path d="M133.65,151.56a2.86,2.86,0,0,1-1.56-.46,1.38,1.38,0,0,1-.73-1.2,3,3,0,0,1,.16-.88c.11-.34.22-.66.3-.94q1.06-3.26,2-6.08c.61-1.88,1.24-3.71,1.86-5.48s1.27-3.54,2-5.31,1.48-3.62,2.34-5.55a10.18,10.18,0,0,0-2.24.68c-.65.3-1.18.57-1.58.8a2.27,2.27,0,0,1-.79.35.88.88,0,0,1-.39-.15,1.92,1.92,0,0,1-.44-.37.57.57,0,0,1-.2-.38c.57-.24,1.25-.51,2-.79a19.47,19.47,0,0,1,2.54-.73,12.82,12.82,0,0,1,2.76-.3,11.89,11.89,0,0,1,3,.39,9.58,9.58,0,0,1,2.77,1.22,6.6,6.6,0,0,1,2,2,5.11,5.11,0,0,1,.76,2.79,5.65,5.65,0,0,1-.76,3,6.85,6.85,0,0,1-2,2.09,12.14,12.14,0,0,1-2.72,1.36,21.41,21.41,0,0,1-2.91.8,20.43,20.43,0,0,1-2.57.36c-.75.06-1.31.09-1.66.09h-.33c-.67,2.28-1.31,4.52-1.91,6.74S134.16,149.79,133.65,151.56Zm3.72-13.25a17.91,17.91,0,0,0,3.7-.59,13.38,13.38,0,0,0,3.44-1.45,8,8,0,0,0,2.52-2.35,5.78,5.78,0,0,0,1-3.31,4.77,4.77,0,0,0-.84-2.92,5.15,5.15,0,0,0-2.23-1.68,8,8,0,0,0-2.94-.55,49,49,0,0,0-2.39,5.81Q138.44,134.66,137.37,138.31Z" fill="#fff"/><path d="M157.46,151.56a2,2,0,0,1-.93-.91,2.26,2.26,0,0,1-.2-.81,7.08,7.08,0,0,1,.68-2.53,36.37,36.37,0,0,1,1.83-3.63c.76-1.36,1.61-2.78,2.54-4.24-.82-.06-1.52-.11-2.09-.13l-1.5,0h-1.16a2.25,2.25,0,0,1,1.28-1.35,5.69,5.69,0,0,1,2.17-.38,9.14,9.14,0,0,1,1.16.07c.4,0,.81.1,1.23.16,1.13-1.7,2.29-3.36,3.47-5s2.29-3,3.32-4.28a30.44,30.44,0,0,1,2.58-2.84,2.64,2.64,0,0,1,1.59-.93,1.54,1.54,0,0,1,.81.28,5.64,5.64,0,0,1,.95.78,4.53,4.53,0,0,0-.85,1.41c-.34.76-.71,1.72-1.09,2.87s-.77,2.42-1.15,3.79-.72,2.77-1,4.2-.58,2.78-.77,4.07a23.32,23.32,0,0,0-.28,3.38,5.36,5.36,0,0,0,.28,2,1,1,0,0,0,1,.7,3,3,0,0,0,2-1.2,17,17,0,0,0,2.39-3.72l.33.34a13.25,13.25,0,0,1-2.54,4.35,4.39,4.39,0,0,1-3.2,1.69,2.06,2.06,0,0,1-2-1.21,7.22,7.22,0,0,1-.61-3.24,19.69,19.69,0,0,1,.15-2.32c.09-.84.23-1.72.41-2.63-1-.15-1.87-.28-2.67-.38l-2.24-.28c-1,1.93-2.06,3.91-3,5.94S158.3,149.59,157.46,151.56Zm10.92-12.45c.34-1.46.72-2.94,1.17-4.43s.91-2.92,1.41-4.27,1-2.53,1.41-3.55A10.67,10.67,0,0,0,170,129.1a41.68,41.68,0,0,0-2.84,3.92q-1.49,2.31-3.05,5.06c.75.16,1.5.33,2.24.52Z" fill="#fff"/><path d="M178.51,150.14a3.68,3.68,0,0,1-4-3.86,7.69,7.69,0,0,1,.75-3.15,13,13,0,0,1,2-3.12,11.3,11.3,0,0,1,2.74-2.38,5.63,5.63,0,0,1,2.95-.91,2.65,2.65,0,0,1,1.42.4,1.77,1.77,0,0,1,.64,1.63,4.22,4.22,0,0,1-.74,2.37,8,8,0,0,1-2,2,12.28,12.28,0,0,1-2.66,1.41,11.18,11.18,0,0,1-2.87.68,5.12,5.12,0,0,0-.1.63c0,.2,0,.39,0,.56a4.2,4.2,0,0,0,.11,1,2.52,2.52,0,0,0,.42.91,2,2,0,0,0,.81.65,3.19,3.19,0,0,0,1.28.23,5.56,5.56,0,0,0,2.82-.81,11,11,0,0,0,2.59-2.14,14.18,14.18,0,0,0,2-2.93l.39.3a12.28,12.28,0,0,1-2.27,3.46,10.77,10.77,0,0,1-3,2.27A7.2,7.2,0,0,1,178.51,150.14Zm-1.63-5.58a15.41,15.41,0,0,0,2-.88,14.69,14.69,0,0,0,2.17-1.38,8,8,0,0,0,1.73-1.76,3.42,3.42,0,0,0,.68-2,1,1,0,0,0-.13-.56.65.65,0,0,0-.56-.2,3,3,0,0,0-1.7.61,8.88,8.88,0,0,0-1.73,1.61,14.38,14.38,0,0,0-1.49,2.2A11.36,11.36,0,0,0,176.88,144.56Z" fill="#fff"/><path d="M189.47,150.37a4,4,0,0,1-2.47-.68,3.84,3.84,0,0,1-1.3-1.68,5.62,5.62,0,0,1-.38-2,3.6,3.6,0,0,1,.26-1.53,2.21,2.21,0,0,1,.65-.8,4.14,4.14,0,0,1,.73-.4,1.22,1.22,0,0,0,.48-.26,20.87,20.87,0,0,0,1.83-2.29,18.08,18.08,0,0,0,1.46-2.53v-.39a2.83,2.83,0,0,1,.42-1.75,1.15,1.15,0,0,1,.88-.51.51.51,0,0,1,.39.13.42.42,0,0,1,.14.3,2.1,2.1,0,0,1-.1.53,3.53,3.53,0,0,0-.1.93,7.36,7.36,0,0,0,.43,2.37c.29.86.57,1.75.86,2.69a10,10,0,0,1,.43,2.94,6,6,0,0,1-.05.85,5.72,5.72,0,0,1-.14.78,4.63,4.63,0,0,0,2.19-1.05,8.57,8.57,0,0,0,2-2.7l.3.33a5.63,5.63,0,0,1-1.89,2.77,6.1,6.1,0,0,1-2.76,1.18A3.86,3.86,0,0,1,192,149.7,5,5,0,0,1,189.47,150.37Zm.07-1.16a3.08,3.08,0,0,0,1.06-.27,2.06,2.06,0,0,0,1-1.36,5.75,5.75,0,0,1-2.48-1.1,6.73,6.73,0,0,1-1.61-1.66c-.48,0-.73.41-.73,1.16a3.72,3.72,0,0,0,.72,2.21A2.3,2.3,0,0,0,189.54,149.21Zm2.25-2.16a5.13,5.13,0,0,0,.1-.7,7.2,7.2,0,0,0,0-.86,12.68,12.68,0,0,0-.39-3.11c-.25-1-.47-2-.64-2.9-.51.84-1.05,1.64-1.61,2.4a18.16,18.16,0,0,1-1.61,1.91,6.15,6.15,0,0,0,1.54,2A5.6,5.6,0,0,0,191.79,147.05Z" fill="#fff"/><path d="M200.26,150.2a2.84,2.84,0,0,1-2.19-.83,3.49,3.49,0,0,1-.77-2.45,12.31,12.31,0,0,1,.29-2.4,29.57,29.57,0,0,1,.76-3c.32-1.05.67-2.07,1.05-3.07a2.74,2.74,0,0,1-.63-.21,3.42,3.42,0,0,0-.57-.25v-.6a3.23,3.23,0,0,1,.63.16,3,3,0,0,0,.83.17,45.69,45.69,0,0,1,2-4.42,21.22,21.22,0,0,1,2-3.25q1-1.23,1.62-1.23a.76.76,0,0,1,.49.18.69.69,0,0,1,.21.55,2.78,2.78,0,0,1-.26.95c-.18.41-.42.89-.73,1.44s-.66,1.16-1,1.83-.78,1.37-1.2,2.12-.82,1.54-1.19,2.36c.55.09,1.09.17,1.61.23a11.9,11.9,0,0,0,1.61.1,14.74,14.74,0,0,0,1.92-.13c.69-.09,1.47-.22,2.36-.4.58-1.57,1.22-3.13,1.94-4.68s1.45-3,2.19-4.23a19.68,19.68,0,0,1,2.13-3.06q1-1.14,1.74-1.14c.4,0,.68.23.85.71a4.38,4.38,0,0,1,.25,1.38,8.32,8.32,0,0,1-.58,2.74,20.52,20.52,0,0,1-1.58,3.25,18.52,18.52,0,0,1-2.31,3.12,12.4,12.4,0,0,1-2.77,2.34,19.81,19.81,0,0,0-.95,2.93,23.89,23.89,0,0,0-.58,3.27,12,12,0,0,0,0,2.67,34.56,34.56,0,0,1,1.79-4.25,11.79,11.79,0,0,1,2.24-3.16,3.88,3.88,0,0,1,2.71-1.19,2.1,2.1,0,0,1,1.94.95,3.8,3.8,0,0,1,.58,2,5.64,5.64,0,0,1-.35,2c-.23.64-.47,1.26-.71,1.86a4.63,4.63,0,0,0-.36,1.73,1.36,1.36,0,0,0,.28,1,.93.93,0,0,0,.71.3,3,3,0,0,0,1.71-.73,10.67,10.67,0,0,0,1.88-1.95,13.42,13.42,0,0,0,1.59-2.64l.43.4a13.59,13.59,0,0,1-1.69,2.94,8.55,8.55,0,0,1-2.19,2.08,4.56,4.56,0,0,1-2.49.76,2.27,2.27,0,0,1-1.71-.6,2,2,0,0,1-.58-1.49,5.24,5.24,0,0,1,.26-1.56c.18-.58.35-1.16.52-1.76a6.59,6.59,0,0,0,.25-1.69,1.7,1.7,0,0,0-.37-1.23,1.19,1.19,0,0,0-.9-.37,2,2,0,0,0-1.49.67,6.8,6.8,0,0,0-1.21,1.71c-.37.69-.71,1.43-1,2.2s-.63,1.51-.92,2.21a9.66,9.66,0,0,1-.86,1.71c-.29.45-.58.67-.89.67a.87.87,0,0,1-.67-.37,2.75,2.75,0,0,1-.48-1,7.4,7.4,0,0,1-.22-1.54,11.2,11.2,0,0,1,.1-1.88,11.93,11.93,0,0,1-3.1,3.65A6.19,6.19,0,0,1,200.26,150.2Zm1-1.23a5.05,5.05,0,0,0,3.39-1.52,13.51,13.51,0,0,0,2.92-4.16c.16-.72.32-1.42.48-2.09s.4-1.4.68-2.22a14.71,14.71,0,0,1-2.14.36,18.69,18.69,0,0,1-1.94.1,12.32,12.32,0,0,1-1.76-.11l-1.66-.25a28.29,28.29,0,0,0-1.29,3.62,12.92,12.92,0,0,0-.54,3.62,3.63,3.63,0,0,0,.44,2A1.6,1.6,0,0,0,201.22,149Zm10.13-11.75a13.27,13.27,0,0,0,2.18-2.24,26.94,26.94,0,0,0,1.81-2.69,17.91,17.91,0,0,0,1.24-2.56,5.55,5.55,0,0,0,.45-1.81c0-.18-.05-.26-.13-.26s-.46.24-.9.73a16,16,0,0,0-1.51,2,24.69,24.69,0,0,0-1.68,3A28.72,28.72,0,0,0,211.35,137.22Z" fill="#fff"/><path d="M226.33,150.14a3.68,3.68,0,0,1-4.05-3.86,7.66,7.66,0,0,1,.74-3.15,13,13,0,0,1,2-3.12,11.45,11.45,0,0,1,2.73-2.38,5.66,5.66,0,0,1,3-.91,2.6,2.6,0,0,1,1.41.4,1.77,1.77,0,0,1,.65,1.63,4.16,4.16,0,0,1-.75,2.37,7.83,7.83,0,0,1-2,2,12.2,12.2,0,0,1-2.65,1.41,11.25,11.25,0,0,1-2.88.68c0,.22-.07.43-.1.63s0,.39,0,.56a4.21,4.21,0,0,0,.12,1,2.35,2.35,0,0,0,.41.91,2,2,0,0,0,.82.65,3.17,3.17,0,0,0,1.27.23,5.57,5.57,0,0,0,2.83-.81,11,11,0,0,0,2.59-2.14,14.14,14.14,0,0,0,2-2.93l.4.3a12.73,12.73,0,0,1-2.27,3.46,10.92,10.92,0,0,1-3,2.27A7.26,7.26,0,0,1,226.33,150.14Zm-1.63-5.58a16,16,0,0,0,2-.88,15.23,15.23,0,0,0,2.17-1.38,8.22,8.22,0,0,0,1.73-1.76,3.48,3.48,0,0,0,.68-2,1,1,0,0,0-.14-.56c-.08-.13-.27-.2-.56-.2a3,3,0,0,0-1.69.61,8.6,8.6,0,0,0-1.73,1.61,14.38,14.38,0,0,0-1.49,2.2A10.39,10.39,0,0,0,224.7,144.56Z" fill="#fff"/><path d="M236.62,150.2a2.84,2.84,0,0,1-2.19-.83,3.49,3.49,0,0,1-.76-2.45,15.24,15.24,0,0,1,.54-3.61c.37-1.43.83-2.89,1.38-4.4l-.63-.11a4.14,4.14,0,0,1-.56-.15v-.6l.63.06.83.07c.46-1.19,1-2.35,1.49-3.47s1.06-2.11,1.58-3a13.43,13.43,0,0,1,1.49-2.09c.48-.52.88-.78,1.21-.78a.76.76,0,0,1,.49.18.69.69,0,0,1,.21.55,4.55,4.55,0,0,1-.7,1.84c-.46.86-1,1.87-1.72,3s-1.35,2.45-2,3.82h1.22l2.31,0c.81,0,1.62-.08,2.44-.17v.6q-1.81.19-3.27.3c-1,.07-1.82.1-2.57.1h-.5a28.29,28.29,0,0,0-1.29,3.62,12.92,12.92,0,0,0-.54,3.62,3.63,3.63,0,0,0,.44,2,1.6,1.6,0,0,0,1.42.61,5.05,5.05,0,0,0,3.39-1.52,13.51,13.51,0,0,0,2.92-4.16l.43.34a14.36,14.36,0,0,1-2,3.35,10,10,0,0,1-2.68,2.36A5.9,5.9,0,0,1,236.62,150.2Z" fill="#fff"/><path d="M245.65,149.54a2.26,2.26,0,0,1-1.92-.82,3.12,3.12,0,0,1-.63-2,8.41,8.41,0,0,1,.28-1.93c.19-.77.44-1.59.74-2.44A19.57,19.57,0,0,1,245.2,140a8.3,8.3,0,0,1,1.32-1.84,2,2,0,0,1,1.36-.71.76.76,0,0,1,.51.18.67.67,0,0,1,.22.55,3.07,3.07,0,0,1-.52,1.29c-.34.6-.74,1.29-1.21,2.06a17.86,17.86,0,0,0-1.21,2.44,6.61,6.61,0,0,0-.52,2.44,2.36,2.36,0,0,0,.4,1.6,1.71,1.71,0,0,0,1.23.4,3.78,3.78,0,0,0,2.41-1.13,13.79,13.79,0,0,0,2.71-4l.29.34a9.54,9.54,0,0,1-2.77,4.38A5.76,5.76,0,0,1,245.65,149.54Zm4-15.21a1.7,1.7,0,0,1-.95-.27.89.89,0,0,1-.41-.83,1.47,1.47,0,0,1,.81-1.21,3,3,0,0,1,1.61-.51,1.31,1.31,0,0,1,.8.23.94.94,0,0,1,.3.8,1.64,1.64,0,0,1-.68,1.21A2.24,2.24,0,0,1,249.64,134.33Z" fill="#fff"/><path d="M254.82,150.53a3.61,3.61,0,0,1-2.66-1.06,4.33,4.33,0,0,1-1.06-3.19,8.47,8.47,0,0,1,.65-3.23,10.43,10.43,0,0,1,1.71-2.84,8.86,8.86,0,0,1,2.35-2,5.11,5.11,0,0,1,2.56-.75,2,2,0,0,1,1.86.8,3.09,3.09,0,0,1,.5,1.66,3.14,3.14,0,0,1-.45,1.69,1.36,1.36,0,0,1-1.21.73,1.16,1.16,0,0,1-1-.5,2.11,2.11,0,0,0,.86-1.07,3.86,3.86,0,0,0,.36-1.55,1,1,0,0,0-.15-.61c-.09-.15-.29-.22-.58-.22a2.92,2.92,0,0,0-1.84.8,9.1,9.1,0,0,0-1.76,2.06,14,14,0,0,0-1.33,2.65,7.69,7.69,0,0,0-.51,2.63,3.66,3.66,0,0,0,.5,1.89,2,2,0,0,0,1.92.86,5.49,5.49,0,0,0,2.67-.73,8.66,8.66,0,0,0,2.51-2.09,10.58,10.58,0,0,0,1.86-3.19l.43.33a12.24,12.24,0,0,1-2.09,3.57,10.55,10.55,0,0,1-2.92,2.48A6.48,6.48,0,0,1,254.82,150.53Z" fill="#fff"/><path d="M265.48,150.37a4.1,4.1,0,0,1-2.48-.68,3.75,3.75,0,0,1-1.29-1.68,5.4,5.4,0,0,1-.38-2,3.45,3.45,0,0,1,.26-1.53,2.21,2.21,0,0,1,.65-.8,3.82,3.82,0,0,1,.73-.4,1.3,1.3,0,0,0,.48-.26,22.12,22.12,0,0,0,1.83-2.29,18.08,18.08,0,0,0,1.46-2.53v-.39a2.9,2.9,0,0,1,.41-1.75,1.16,1.16,0,0,1,.88-.51.54.54,0,0,1,.4.13.42.42,0,0,1,.14.3,2.69,2.69,0,0,1-.1.53,3.53,3.53,0,0,0-.1.93,7.36,7.36,0,0,0,.43,2.37c.29.86.57,1.75.86,2.69a10,10,0,0,1,.43,2.94,6,6,0,0,1,0,.85,4.5,4.5,0,0,1-.15.78,4.62,4.62,0,0,0,2.2-1.05,8.57,8.57,0,0,0,2-2.7l.3.33a5.64,5.64,0,0,1-1.9,2.77,6.06,6.06,0,0,1-2.75,1.18,3.91,3.91,0,0,1-1.68,2.09A5,5,0,0,1,265.48,150.37Zm.06-1.16a3.07,3.07,0,0,0,1.07-.27,2.06,2.06,0,0,0,1-1.36,5.75,5.75,0,0,1-2.48-1.1,6.73,6.73,0,0,1-1.61-1.66c-.49,0-.73.41-.73,1.16a3.78,3.78,0,0,0,.71,2.21A2.32,2.32,0,0,0,265.54,149.21Zm2.26-2.16a5.13,5.13,0,0,0,.1-.7c0-.24,0-.53,0-.86a12.67,12.67,0,0,0-.38-3.11c-.25-1-.47-2-.65-2.9a27.13,27.13,0,0,1-1.61,2.4,16,16,0,0,1-1.61,1.91,6.33,6.33,0,0,0,1.55,2A5.55,5.55,0,0,0,267.8,147.05Z" fill="#fff"/><path d="M309.13,40.5a27.64,27.64,0,0,1-8.3-5.34v-8.3h8.3Z" fill="#fff"/><path d="M309.13,64.75c-2.76-2.65-5.53-6.79-8.3-12.8v-8.3a32.71,32.71,0,0,0,8.3,9.66Z" fill="#fff"/><path d="M309.13,84.53c-2.76-3.27-5.53-8.37-8.3-15.79v-8.3c2.77,7,5.54,11.78,8.3,14.86Z" fill="#fff"/><path d="M323.49,41.52a27.61,27.61,0,0,1-8.3.47V26.86h8.3Z" fill="#fff"/><path d="M323.49,67.19a12.11,12.11,0,0,1-8.3,1.14V56a15.62,15.62,0,0,0,8.3-.86Z" fill="#fff"/><path d="M323.49,87.55c-2.76,1.62-5.53,2.25-8.3,1.4V79.46a10.56,10.56,0,0,0,8.3-1.32Z" fill="#fff"/><path d="M337.18,36.78c-2.77,1.22-5.54,2.37-8.31,3.29V26.86h8.31Z" fill="#fff"/><path d="M337.18,55.82a84,84,0,0,1-8.31,7.9V52.54a79.62,79.62,0,0,0,8.31-6Z" fill="#fff"/><path d="M337.18,73.51a93.67,93.67,0,0,1-8.31,9.75V74.11a89.57,89.57,0,0,0,8.31-9.18Z" fill="#fff"/><path d="M352.66,30.26c-2.76.92-5.53,2.07-8.3,3.29V26.86h8.3Z" fill="#fff"/><path d="M352.66,40.19a83.87,83.87,0,0,0-8.3,7.9V40.73a80.59,80.59,0,0,1,8.3-6Z" fill="#fff"/><path d="M352.66,54.23a95.78,95.78,0,0,0-8.3,9.74V56a90.71,90.71,0,0,1,8.3-9.18Z" fill="#fff"/><path d="M367,28.42a26.61,26.61,0,0,0-8.3.26V26.86H367Z" fill="#fff"/><path d="M367,35.78a11.58,11.58,0,0,0-8.3.63v-4.5a15,15,0,0,1,8.3-.48Z" fill="#fff"/><path d="M367,48.78a9.57,9.57,0,0,0-8.3.78V42.38a10.09,10.09,0,0,1,8.3-.74Z" fill="#fff"/><path d="M380.7,35.16a27.54,27.54,0,0,0-8.3-5.33v-3h8.3Z" fill="#fff"/><path d="M380.7,52c-2.76-6-5.53-10.14-8.3-12.79V34a32.42,32.42,0,0,1,8.3,9.66Z" fill="#fff"/><path d="M380.7,68.74c-2.76-7.41-5.53-12.51-8.3-15.78V45.58c2.77,3.08,5.54,7.88,8.3,14.86Z" fill="#fff"/><path d="M309.13,97.64c-2.76-3.08-5.53-7.88-8.3-14.86v-8.3c2.77,7.41,5.54,12.51,8.3,15.78Z" fill="#fff"/><path d="M309.13,109.23a32.71,32.71,0,0,1-8.3-9.66v-8.3c2.77,6,5.54,10.14,8.3,12.79Z" fill="#fff"/><path d="M309.13,116.36h-8.3v-8.3a27.79,27.79,0,0,0,8.3,5.33Z" fill="#fff"/><path d="M323.49,100.49a10.6,10.6,0,0,1-8.3,1.31V94.68c2.77.85,5.54.23,8.3-1.4Z" fill="#fff"/><path d="M323.49,111.08a15.62,15.62,0,0,1-8.3.86v-4.3a12.11,12.11,0,0,0,8.3-1.14Z" fill="#fff"/><path d="M323.49,116.36h-8.3v-1.47a27.61,27.61,0,0,0,8.3-.48Z" fill="#fff"/><path d="M337.18,87.27a89.57,89.57,0,0,1-8.31,9.18V89a94.55,94.55,0,0,0,8.31-9.74Z" fill="#fff"/><path d="M337.18,102.49a79.62,79.62,0,0,1-8.31,6V103a82.84,82.84,0,0,0,8.31-7.9Z" fill="#fff"/><path d="M337.18,116.36h-8.31V113c2.77-.92,5.54-2.07,8.31-3.29Z" fill="#fff"/><path d="M352.66,69.11a90.71,90.71,0,0,0-8.3,9.18V69.71a94.87,94.87,0,0,1,8.3-9.75Z" fill="#fff"/><path d="M352.66,90.68a80.59,80.59,0,0,0-8.3,6V87.4a85,85,0,0,1,8.3-7.9Z" fill="#fff"/><path d="M352.66,116.36h-8.3v-9.92c2.77-1.22,5.54-2.37,8.3-3.29Z" fill="#fff"/><path d="M367,64a10.13,10.13,0,0,0-8.3.74V55.29a9.57,9.57,0,0,1,8.3-.78Z" fill="#fff"/><path d="M367,87.35a15.09,15.09,0,0,0-8.3.48V75.72a11.58,11.58,0,0,1,8.3-.63Z" fill="#fff"/><path d="M367,116.36h-8.3V101.57a26.91,26.91,0,0,1,8.3-.26Z" fill="#fff"/><path d="M380.7,82.78c-2.76-7-5.53-11.78-8.3-14.86V58.69c2.77,3.27,5.54,8.37,8.3,15.79Z" fill="#fff"/><path d="M380.7,99.57a32.42,32.42,0,0,0-8.3-9.66V78.47c2.77,2.65,5.54,6.79,8.3,12.8Z" fill="#fff"/><path d="M380.7,116.36h-8.3V102.72a27.59,27.59,0,0,1,8.3,5.34Z" fill="#fff"/><path d="M269.63,447.78H256.48v-5.2a79.84,79.84,0,0,0,13.15,3Z" fill="#fff"/><path d="M292.38,447.78H279.23V446.4a125.52,125.52,0,0,0,13.15-.26Z" fill="#fff"/><path d="M314.05,447.78H300.89v-2.45c4.39-.52,8.77-1.16,13.16-1.84Z" fill="#fff"/><path d="M338.58,447.78H325.42v-6.1c4.39-.68,8.77-1.33,13.16-1.84Z" fill="#fff"/><path d="M361.32,447.78H348.17V439a117.75,117.75,0,0,1,13.15-.15Z" fill="#fff"/><path d="M383,447.78H369.84V439.6a80,80,0,0,1,13.15,3Z" fill="#fff"/><path d="M269.63,441.35a56.27,56.27,0,0,1-13.15-4.69v-5.19a56.23,56.23,0,0,0,13.15,4.68Z" fill="#fff"/><path d="M292.38,442.24a79.25,79.25,0,0,1-13.15.42v-5.2a79.25,79.25,0,0,0,13.15-.41Z" fill="#fff"/><path d="M314.05,438.08c-4.39,1.07-8.77,2.08-13.16,2.89v-5.2c4.39-.8,8.77-1.81,13.16-2.89Z" fill="#fff"/><path d="M338.58,432.36c-4.39.8-8.77,1.81-13.16,2.89v-5.2c4.39-1.07,8.77-2.08,13.16-2.89Z" fill="#fff"/><path d="M361.32,430.74a76,76,0,0,0-13.15.23v-5.19a76,76,0,0,1,13.15-.24Z" fill="#fff"/><path d="M383,436.66A56.39,56.39,0,0,0,369.84,432v-5.2A56.43,56.43,0,0,1,383,431.47Z" fill="#fff"/><path d="M269.63,428.53a79.8,79.8,0,0,1-13.15-3v-5.2h13.15Z" fill="#fff"/><path d="M292.38,429.1a122.85,122.85,0,0,1-13.15.26v-9h13.15Z" fill="#fff"/><path d="M314.05,426.45c-4.39.68-8.77,1.32-13.16,1.84v-7.94h13.16Z" fill="#fff"/><path d="M338.58,422.8c-4.39.52-8.77,1.16-13.16,1.84v-4.29h13.16Z" fill="#fff"/><path d="M361.32,421.77a117.75,117.75,0,0,0-13.15.15v-1.57h13.15Z" fill="#fff"/><path d="M383,425.55a79.06,79.06,0,0,0-13.15-3v-2.21H383Z" fill="#fff"/></g></g></svg>