<svg xmlns="http://www.w3.org/2000/svg" xmlns:xlink="http://www.w3.org/1999/xlink" viewBox="0 0 1500 600"><defs><linearGradient id="linear-gradient" x1="81.89" y1="678.59" x2="971.69" y2="174.38" gradientUnits="userSpaceOnUse"><stop offset="0.1" stop-color="#ff9558"/><stop offset="0.51" stop-color="#ffa06a"/><stop offset="1" stop-color="#ffc67b"/></linearGradient><linearGradient id="linear-gradient-2" x1="677.68" y1="224.55" x2="789.35" y2="161.27" gradientTransform="matrix(-1, 0, 0, 1, 957.77, 0)" xlink:href="#linear-gradient"/><linearGradient id="linear-gradient-3" x1="240.86" y1="406.91" x2="301.34" y2="372.64" gradientTransform="translate(64.8)" xlink:href="#linear-gradient"/><linearGradient id="linear-gradient-4" x1="473.06" y1="238.51" x2="511.46" y2="216.76" gradientTransform="translate(485.24 881.4) rotate(-150)" xlink:href="#linear-gradient"/><linearGradient id="linear-gradient-5" x1="1370.03" y1="540.83" x2="1431.94" y2="505.75" xlink:href="#linear-gradient"/><linearGradient id="linear-gradient-6" x1="1308.51" y1="482.06" x2="1404.89" y2="427.44" xlink:href="#linear-gradient"/><linearGradient id="linear-gradient-7" x1="1185.3" y1="620.3" x2="1315.71" y2="546.41" xlink:href="#linear-gradient"/><linearGradient id="linear-gradient-8" x1="791.23" y1="665.17" x2="827.78" y2="644.46" gradientTransform="translate(396.29 -226.78)" xlink:href="#linear-gradient"/><linearGradient id="linear-gradient-9" x1="958.73" y1="666.42" x2="977" y2="656.06" gradientTransform="translate(269.87 -186.66)" xlink:href="#linear-gradient"/><linearGradient id="linear-gradient-10" x1="638.23" y1="768.12" x2="656.51" y2="757.77" gradientTransform="translate(497.63 -236.88)" xlink:href="#linear-gradient"/><linearGradient id="linear-gradient-11" x1="630.61" y1="916.63" x2="642.92" y2="909.65" gradientTransform="translate(658.84 -414.86)" xlink:href="#linear-gradient"/><linearGradient id="linear-gradient-12" x1="602.23" y1="894.79" x2="614.54" y2="887.81" gradientTransform="translate(673.37 -360)" xlink:href="#linear-gradient"/><linearGradient id="linear-gradient-13" x1="1117.86" y1="271.79" x2="1382.51" y2="121.82" xlink:href="#linear-gradient"/></defs><title>banAsset 12</title><g id="Layer_2" data-name="Layer 2"><g id="Layer_1-2" data-name="Layer 1"><rect width="1500" height="600" fill="url(#linear-gradient)"/><circle cx="196.24" cy="177.04" r="100.44" fill="url(#linear-gradient-2)"/><circle cx="351.07" cy="381.18" r="54.39" fill="url(#linear-gradient-3)"/><circle cx="161.68" cy="438.04" r="34.53" fill="url(#linear-gradient-4)"/><path d="M1464,485.26V540H1382.9a27.36,27.36,0,0,1,0-54.72Z" fill="url(#linear-gradient-5)"/><path d="M1464,411.82v54.72H1311.62a27.36,27.36,0,1,1,0-54.72Z" fill="url(#linear-gradient-6)"/><path d="M1149.43,566.66a27.38,27.38,0,0,1,24.13-14.44H1395a27.38,27.38,0,0,1,24.13,14.44Z" fill="url(#linear-gradient-7)"/><rect x="1187.6" y="395.48" width="54.72" height="54.72" rx="12.18" transform="translate(198.45 1211.28) rotate(-56.99)" fill="url(#linear-gradient-8)"/><rect x="1228.64" y="458.3" width="27.36" height="27.36" rx="6.09" transform="translate(-37.39 830.4) rotate(-36.45)" fill="url(#linear-gradient-9)"/><rect x="1135.9" y="509.79" width="27.36" height="27.36" rx="6.09" transform="translate(937.63 1768.72) rotate(-104.82)" fill="url(#linear-gradient-10)"/><rect x="1289.47" y="487.31" width="18.44" height="18.44" rx="4.1" transform="translate(1150.94 1879.02) rotate(-104.82)" fill="url(#linear-gradient-11)"/><rect x="1275.62" y="520.33" width="18.44" height="18.44" rx="4.1" transform="matrix(-0.26, -0.97, 0.97, -0.26, 1101.62, 1907.1)" fill="url(#linear-gradient-12)"/><path d="M1500,0V316.91a249.29,249.29,0,0,1-179.12,75.59c-138.07,0-250-111.93-250-250A248.86,248.86,0,0,1,1115.44,0Z" fill="url(#linear-gradient-13)"/><rect x="33.16" y="31.88" width="1430.8" height="541.44" fill="none" stroke="#fff" stroke-miterlimit="10" stroke-width="3.71"/><path d="M118.68,70.2v11H92.76V93.24H117.4v11H92.76v21.92H80.28V70.2Z" fill="#fff"/><path d="M166,126.12,160.84,114H137.4l-5.2,12.08H118.92L143.08,70.2h12.08l24.16,55.92ZM149.16,86.84l-7,16.24h14Z" fill="#fff"/><path d="M198.48,81.36a4.81,4.81,0,0,0-1.8,3.92,4.45,4.45,0,0,0,2.2,3.88q2.2,1.44,10.16,3.4t12.36,5.88q4.41,3.91,4.4,11.44a15.1,15.1,0,0,1-5.64,12.2q-5.64,4.68-14.84,4.68-13.27,0-23.92-9.84l7.44-9.12q9,7.92,16.72,7.92a8.79,8.79,0,0,0,5.4-1.48,4.75,4.75,0,0,0,2-4,4.65,4.65,0,0,0-2.08-4q-2.07-1.48-8.24-3-9.75-2.33-14.28-6T183.8,85.52q0-8,5.72-12.28t14.28-4.32A34.3,34.3,0,0,1,215,70.84a29.83,29.83,0,0,1,9.76,5.44l-6.32,9.12q-7.27-5.52-15-5.52A7.5,7.5,0,0,0,198.48,81.36Z" fill="#fff"/><path d="M271.16,70.2h12.48v55.92H271.16v-22H248.92v22H236.44V70.2h12.48V93.56h22.24Z" fill="#fff"/><path d="M297.4,70.2h12.48v55.92H297.4Z" fill="#fff"/><path d="M370.68,118.4a30.47,30.47,0,0,1-41.76,0,27.64,27.64,0,0,1-8.48-20.6,27.63,27.63,0,0,1,8.48-20.6,30.47,30.47,0,0,1,41.76,0,27.63,27.63,0,0,1,8.48,20.6A27.64,27.64,0,0,1,370.68,118.4Zm-4.24-20.56a18.29,18.29,0,0,0-4.8-12.76,15.83,15.83,0,0,0-23.6,0,19.31,19.31,0,0,0,0,25.48,15.91,15.91,0,0,0,23.6,0A18.18,18.18,0,0,0,366.44,97.84Z" fill="#fff"/><path d="M428.84,70.2h12.48v55.92H428.84l-26.64-35v35H389.72V70.2H401.4l27.44,36Z" fill="#fff"/><path d="M118.68,152.28v11H92.76v12.08H117.4v11H92.76V208.2H80.28V152.28Z" fill="none" stroke="#fff" stroke-miterlimit="10" stroke-width="3"/><path d="M166,208.2l-5.2-12.08H137.4l-5.2,12.08H118.92l24.16-55.92h12.08l24.16,55.92Zm-16.88-39.28-7,16.24h14Z" fill="none" stroke="#fff" stroke-miterlimit="10" stroke-width="3"/><path d="M198.48,163.44a4.81,4.81,0,0,0-1.8,3.92,4.45,4.45,0,0,0,2.2,3.88q2.2,1.44,10.16,3.4t12.36,5.88q4.41,3.91,4.4,11.44a15.1,15.1,0,0,1-5.64,12.2q-5.64,4.68-14.84,4.68-13.27,0-23.92-9.84l7.44-9.12q9,7.92,16.72,7.92a8.79,8.79,0,0,0,5.4-1.48,4.75,4.75,0,0,0,2-4,4.65,4.65,0,0,0-2.08-4q-2.07-1.48-8.24-3-9.75-2.32-14.28-6T183.8,167.6q0-8,5.72-12.28T203.8,151a34.3,34.3,0,0,1,11.2,1.92,29.83,29.83,0,0,1,9.76,5.44l-6.32,9.12q-7.27-5.52-15-5.52A7.5,7.5,0,0,0,198.48,163.44Z" fill="none" stroke="#fff" stroke-miterlimit="10" stroke-width="3"/><path d="M271.16,152.28h12.48V208.2H271.16v-22H248.92v22H236.44V152.28h12.48v23.36h22.24Z" fill="none" stroke="#fff" stroke-miterlimit="10" stroke-width="3"/><path d="M297.4,152.28h12.48V208.2H297.4Z" fill="none" stroke="#fff" stroke-miterlimit="10" stroke-width="3"/><path d="M370.68,200.48a30.47,30.47,0,0,1-41.76,0,29.26,29.26,0,0,1,0-41.2,30.47,30.47,0,0,1,41.76,0,29.26,29.26,0,0,1,0,41.2Zm-4.24-20.56a18.29,18.29,0,0,0-4.8-12.76,15.83,15.83,0,0,0-23.6,0,19.31,19.31,0,0,0,0,25.48,15.91,15.91,0,0,0,23.6,0A18.18,18.18,0,0,0,366.44,179.92Z" fill="none" stroke="#fff" stroke-miterlimit="10" stroke-width="3"/><path d="M428.84,152.28h12.48V208.2H428.84l-26.64-35v35H389.72V152.28H401.4l27.44,36Z" fill="none" stroke="#fff" stroke-miterlimit="10" stroke-width="3"/><path d="M118.68,226.8v11H92.76v12.08H117.4v11H92.76v21.92H80.28V226.8Z" fill="#fff"/><path d="M166,282.72l-5.2-12.08H137.4l-5.2,12.08H118.92l24.16-55.92h12.08l24.16,55.92Zm-16.88-39.28-7,16.24h14Z" fill="#fff"/><path d="M198.48,238a4.81,4.81,0,0,0-1.8,3.92,4.45,4.45,0,0,0,2.2,3.88q2.2,1.44,10.16,3.4T221.4,255q4.41,3.91,4.4,11.44a15.1,15.1,0,0,1-5.64,12.2q-5.64,4.68-14.84,4.68-13.27,0-23.92-9.84l7.44-9.12q9,7.92,16.72,7.92a8.79,8.79,0,0,0,5.4-1.48,4.75,4.75,0,0,0,2-4,4.65,4.65,0,0,0-2.08-4q-2.07-1.48-8.24-3-9.75-2.32-14.28-6t-4.52-11.68q0-8,5.72-12.28t14.28-4.32a34.3,34.3,0,0,1,11.2,1.92,29.83,29.83,0,0,1,9.76,5.44L218.44,242q-7.27-5.52-15-5.52A7.5,7.5,0,0,0,198.48,238Z" fill="#fff"/><path d="M271.16,226.8h12.48v55.92H271.16v-22H248.92v22H236.44V226.8h12.48v23.36h22.24Z" fill="#fff"/><path d="M297.4,226.8h12.48v55.92H297.4Z" fill="#fff"/><path d="M370.68,275a30.47,30.47,0,0,1-41.76,0,29.26,29.26,0,0,1,0-41.2,30.47,30.47,0,0,1,41.76,0,29.26,29.26,0,0,1,0,41.2Zm-4.24-20.56a18.29,18.29,0,0,0-4.8-12.76,15.83,15.83,0,0,0-23.6,0,19.31,19.31,0,0,0,0,25.48,15.91,15.91,0,0,0,23.6,0A18.18,18.18,0,0,0,366.44,254.44Z" fill="#fff"/><path d="M428.84,226.8h12.48v55.92H428.84l-26.64-35v35H389.72V226.8H401.4l27.44,36Z" fill="#fff"/><path d="M118.68,308.88v11H92.76v12.08H117.4v11H92.76V364.8H80.28V308.88Z" fill="none" stroke="#fff" stroke-miterlimit="10" stroke-width="3"/><path d="M166,364.8l-5.2-12.08H137.4l-5.2,12.08H118.92l24.16-55.92h12.08l24.16,55.92Zm-16.88-39.28-7,16.24h14Z" fill="none" stroke="#fff" stroke-miterlimit="10" stroke-width="3"/><path d="M198.48,320a4.81,4.81,0,0,0-1.8,3.92,4.45,4.45,0,0,0,2.2,3.88q2.2,1.44,10.16,3.4t12.36,5.88q4.41,3.92,4.4,11.44a15.1,15.1,0,0,1-5.64,12.2q-5.64,4.68-14.84,4.68-13.27,0-23.92-9.84l7.44-9.12q9,7.92,16.72,7.92a8.79,8.79,0,0,0,5.4-1.48,4.75,4.75,0,0,0,2-4,4.65,4.65,0,0,0-2.08-4q-2.07-1.49-8.24-3-9.75-2.32-14.28-6T183.8,324.2q0-8,5.72-12.28t14.28-4.32a34.3,34.3,0,0,1,11.2,1.92,29.83,29.83,0,0,1,9.76,5.44l-6.32,9.12q-7.27-5.52-15-5.52A7.5,7.5,0,0,0,198.48,320Z" fill="none" stroke="#fff" stroke-miterlimit="10" stroke-width="3"/><path d="M271.16,308.88h12.48V364.8H271.16v-22H248.92v22H236.44V308.88h12.48v23.36h22.24Z" fill="none" stroke="#fff" stroke-miterlimit="10" stroke-width="3"/><path d="M297.4,308.88h12.48V364.8H297.4Z" fill="none" stroke="#fff" stroke-miterlimit="10" stroke-width="3"/><path d="M370.68,357.08a30.47,30.47,0,0,1-41.76,0,29.26,29.26,0,0,1,0-41.2,30.47,30.47,0,0,1,41.76,0,29.26,29.26,0,0,1,0,41.2Zm-4.24-20.56a18.29,18.29,0,0,0-4.8-12.76,15.83,15.83,0,0,0-23.6,0,19.31,19.31,0,0,0,0,25.48,15.91,15.91,0,0,0,23.6,0A18.18,18.18,0,0,0,366.44,336.52Z" fill="none" stroke="#fff" stroke-miterlimit="10" stroke-width="3"/><path d="M428.84,308.88h12.48V364.8H428.84l-26.64-35v35H389.72V308.88H401.4l27.44,36Z" fill="none" stroke="#fff" stroke-miterlimit="10" stroke-width="3"/><path d="M118.68,392.44v11H92.76v12.08H117.4v11H92.76v21.92H80.28V392.44Z" fill="#fff"/><path d="M166,448.36l-5.2-12.08H137.4l-5.2,12.08H118.92l24.16-55.92h12.08l24.16,55.92Zm-16.88-39.28-7,16.24h14Z" fill="#fff"/><path d="M198.48,403.6a4.84,4.84,0,0,0-1.8,3.92,4.44,4.44,0,0,0,2.2,3.88q2.2,1.44,10.16,3.4t12.36,5.88q4.41,3.93,4.4,11.44a15.09,15.09,0,0,1-5.64,12.2Q214.52,449,205.32,449q-13.27,0-23.92-9.84l7.44-9.12q9,7.92,16.72,7.92a8.73,8.73,0,0,0,5.4-1.48,4.73,4.73,0,0,0,2-4,4.66,4.66,0,0,0-2.08-4q-2.07-1.47-8.24-3-9.75-2.31-14.28-6t-4.52-11.68q0-8,5.72-12.28t14.28-4.32a34.3,34.3,0,0,1,11.2,1.92,30,30,0,0,1,9.76,5.44l-6.32,9.12q-7.27-5.52-15-5.52A7.56,7.56,0,0,0,198.48,403.6Z" fill="#fff"/><path d="M271.16,392.44h12.48v55.92H271.16v-22H248.92v22H236.44V392.44h12.48V415.8h22.24Z" fill="#fff"/><path d="M297.4,392.44h12.48v55.92H297.4Z" fill="#fff"/><path d="M370.68,440.64a30.47,30.47,0,0,1-41.76,0,29.26,29.26,0,0,1,0-41.2,30.47,30.47,0,0,1,41.76,0,29.26,29.26,0,0,1,0,41.2Zm-4.24-20.56a18.31,18.31,0,0,0-4.8-12.76,15.83,15.83,0,0,0-23.6,0,19.31,19.31,0,0,0,0,25.48,15.91,15.91,0,0,0,23.6,0A18.14,18.14,0,0,0,366.44,420.08Z" fill="#fff"/><path d="M428.84,392.44h12.48v55.92H428.84l-26.64-35v35H389.72V392.44H401.4l27.44,36Z" fill="#fff"/><path d="M118.68,474.52v11H92.76v12.08H117.4v11H92.76v21.92H80.28V474.52Z" fill="none" stroke="#fff" stroke-miterlimit="10" stroke-width="3"/><path d="M166,530.44l-5.2-12.08H137.4l-5.2,12.08H118.92l24.16-55.92h12.08l24.16,55.92Zm-16.88-39.28-7,16.24h14Z" fill="none" stroke="#fff" stroke-miterlimit="10" stroke-width="3"/><path d="M198.48,485.68a4.84,4.84,0,0,0-1.8,3.92,4.44,4.44,0,0,0,2.2,3.88q2.2,1.44,10.16,3.4t12.36,5.88q4.41,3.93,4.4,11.44a15.09,15.09,0,0,1-5.64,12.2q-5.64,4.68-14.84,4.68-13.27,0-23.92-9.84l7.44-9.12q9,7.92,16.72,7.92a8.73,8.73,0,0,0,5.4-1.48,4.73,4.73,0,0,0,2-4,4.66,4.66,0,0,0-2.08-4q-2.07-1.47-8.24-3-9.75-2.31-14.28-6t-4.52-11.68q0-7.95,5.72-12.28t14.28-4.32a34.3,34.3,0,0,1,11.2,1.92,30,30,0,0,1,9.76,5.44l-6.32,9.12q-7.27-5.52-15-5.52A7.56,7.56,0,0,0,198.48,485.68Z" fill="none" stroke="#fff" stroke-miterlimit="10" stroke-width="3"/><path d="M271.16,474.52h12.48v55.92H271.16v-22H248.92v22H236.44V474.52h12.48v23.36h22.24Z" fill="none" stroke="#fff" stroke-miterlimit="10" stroke-width="3"/><path d="M297.4,474.52h12.48v55.92H297.4Z" fill="none" stroke="#fff" stroke-miterlimit="10" stroke-width="3"/><path d="M370.68,522.72a30.47,30.47,0,0,1-41.76,0,29.26,29.26,0,0,1,0-41.2,30.47,30.47,0,0,1,41.76,0,29.26,29.26,0,0,1,0,41.2Zm-4.24-20.56a18.31,18.31,0,0,0-4.8-12.76,15.83,15.83,0,0,0-23.6,0,19.31,19.31,0,0,0,0,25.48,15.91,15.91,0,0,0,23.6,0A18.14,18.14,0,0,0,366.44,502.16Z" fill="none" stroke="#fff" stroke-miterlimit="10" stroke-width="3"/><path d="M428.84,474.52h12.48v55.92H428.84l-26.64-35v35H389.72V474.52H401.4l27.44,36Z" fill="none" stroke="#fff" stroke-miterlimit="10" stroke-width="3"/><circle cx="508.78" cy="426.84" r="6.8" fill="#fff"/><circle cx="530.39" cy="426.84" r="6.8" fill="#fff"/><circle cx="550.59" cy="426.84" r="6.8" fill="#fff"/><circle cx="508.78" cy="445.65" r="6.8" fill="#fff"/><circle cx="530.39" cy="445.65" r="6.8" fill="#fff"/><circle cx="550.59" cy="445.65" r="6.8" fill="#fff"/><circle cx="508.78" cy="464.45" r="6.8" fill="#fff"/><circle cx="530.39" cy="464.45" r="6.8" fill="#fff"/><circle cx="550.59" cy="464.45" r="6.8" fill="#fff"/><circle cx="508.78" cy="483.26" r="6.8" fill="#fff"/><circle cx="530.39" cy="483.26" r="6.8" fill="#fff"/><circle cx="550.59" cy="483.26" r="6.8" fill="#fff"/><circle cx="508.78" cy="502.06" r="6.8" fill="#fff"/><circle cx="530.39" cy="502.06" r="6.8" fill="#fff"/><circle cx="550.59" cy="502.06" r="6.8" fill="#fff"/><circle cx="508.78" cy="520.87" r="6.8" fill="#fff"/><circle cx="530.39" cy="520.87" r="6.8" fill="#fff"/><circle cx="550.59" cy="520.87" r="6.8" fill="#fff"/><circle cx="508.78" cy="539.67" r="6.8" fill="#fff"/><circle cx="530.39" cy="539.67" r="6.8" fill="#fff"/><circle cx="550.59" cy="539.67" r="6.8" fill="#fff"/><circle cx="508.78" cy="558.48" r="6.8" fill="#fff"/><circle cx="530.39" cy="558.48" r="6.8" fill="#fff"/><circle cx="550.59" cy="558.48" r="6.8" fill="#fff"/><circle cx="775.91" cy="8.66" r="6.39" fill="#fff"/><circle cx="796.19" cy="8.66" r="6.39" fill="#fff"/><circle cx="815.17" cy="8.66" r="6.39" fill="#fff"/><circle cx="775.91" cy="26.32" r="6.39" fill="#fff"/><circle cx="796.19" cy="26.32" r="6.39" fill="#fff"/><circle cx="815.17" cy="26.32" r="6.39" fill="#fff"/><circle cx="775.91" cy="43.98" r="6.39" fill="#fff"/><circle cx="796.19" cy="43.98" r="6.39" fill="#fff"/><circle cx="815.17" cy="43.98" r="6.39" fill="#fff"/><circle cx="775.91" cy="61.64" r="6.39" fill="#fff"/><circle cx="796.19" cy="61.64" r="6.39" fill="#fff"/><circle cx="815.17" cy="61.64" r="6.39" fill="#fff"/><circle cx="775.91" cy="79.3" r="6.39" fill="#fff"/><circle cx="796.19" cy="79.3" r="6.39" fill="#fff"/><circle cx="815.17" cy="79.3" r="6.39" fill="#fff"/><circle cx="775.91" cy="96.95" r="6.39" fill="#fff"/><circle cx="796.19" cy="96.95" r="6.39" fill="#fff"/><circle cx="815.17" cy="96.95" r="6.39" fill="#fff"/><circle cx="775.91" cy="114.61" r="6.39" fill="#fff"/><circle cx="796.19" cy="114.61" r="6.39" fill="#fff"/><circle cx="815.17" cy="114.61" r="6.39" fill="#fff"/><circle cx="775.91" cy="132.27" r="6.39" fill="#fff"/><circle cx="796.19" cy="132.27" r="6.39" fill="#fff"/><circle cx="815.17" cy="132.27" r="6.39" fill="#fff"/><circle cx="960.28" cy="519.76" r="6.48" fill="#fff"/><circle cx="960.28" cy="540.34" r="6.48" fill="#fff"/><circle cx="960.28" cy="559.59" r="6.48" fill="#fff"/><circle cx="942.37" cy="519.76" r="6.48" fill="#fff"/><circle cx="942.37" cy="540.34" r="6.48" fill="#fff"/><circle cx="942.37" cy="559.59" r="6.48" fill="#fff"/><circle cx="924.45" cy="519.76" r="6.48" fill="#fff"/><circle cx="924.45" cy="540.34" r="6.48" fill="#fff"/><circle cx="924.45" cy="559.59" r="6.48" fill="#fff"/><circle cx="906.54" cy="519.76" r="6.48" fill="#fff"/><circle cx="906.54" cy="540.34" r="6.48" fill="#fff"/><circle cx="906.54" cy="559.59" r="6.48" fill="#fff"/><circle cx="888.62" cy="519.76" r="6.48" fill="#fff"/><circle cx="888.62" cy="540.34" r="6.48" fill="#fff"/><circle cx="888.62" cy="559.59" r="6.48" fill="#fff"/><circle cx="870.71" cy="519.76" r="6.48" fill="#fff"/><circle cx="870.71" cy="540.34" r="6.48" fill="#fff"/><circle cx="870.71" cy="559.59" r="6.48" fill="#fff"/><circle cx="852.79" cy="519.76" r="6.48" fill="#fff"/><circle cx="852.79" cy="540.34" r="6.48" fill="#fff"/><circle cx="852.79" cy="559.59" r="6.48" fill="#fff"/><circle cx="834.87" cy="519.76" r="6.48" fill="#fff"/><circle cx="834.87" cy="540.34" r="6.48" fill="#fff"/><circle cx="834.87" cy="559.59" r="6.48" fill="#fff"/><path d="M634.49,322.35a4.87,4.87,0,0,1-3-1.55,29.33,29.33,0,0,1-3.66-4.1c-1.29-1.71-2.56-3.56-3.81-5.57s-2.4-4-3.45-6-1.94-3.75-2.65-5.3l-5.78,18.69a3.34,3.34,0,0,1-1.31,1.94,4.61,4.61,0,0,1-1.93.68,18,18,0,0,1-2.06.12c.52-1.11,1.05-2.38,1.58-3.81s1.17-3.15,1.91-5.18,1.59-4.48,2.59-7.38,2.17-6.36,3.54-10.39,3-8.75,4.85-14.19c.12-.32.28-.76.48-1.34a5.11,5.11,0,0,0,.29-1.58,1.73,1.73,0,0,0-.29-1,1.36,1.36,0,0,0-1.13-.38,4.19,4.19,0,0,0-2.77,1.15,11.44,11.44,0,0,0-2.38,2.95,17.27,17.27,0,0,0-1.64,3.69,11.45,11.45,0,0,0-.6,3.39,6.37,6.37,0,0,0,.3,2,3.39,3.39,0,0,1-2.77-1,3.68,3.68,0,0,1-.8-2.4,8,8,0,0,1,1.19-4.05,15.76,15.76,0,0,1,3.07-3.72,17.56,17.56,0,0,1,3.92-2.71,8.61,8.61,0,0,1,3.72-1,2.41,2.41,0,0,1,2.18.89,3.64,3.64,0,0,1,.56,2,5.79,5.79,0,0,1-.15,1.31c-.1.44-.2.86-.32,1.25l-5,16.2a9.84,9.84,0,0,1,2.17-2.21c.89-.67,1.87-1.44,3-2.32q2.67-2.14,5.74-5c2-1.91,4-3.91,5.86-6a47.27,47.27,0,0,0,4.64-6.07,2.51,2.51,0,0,1,.42,1.25,11,11,0,0,1,.12,1.37,7.28,7.28,0,0,1-1.52,4,30.17,30.17,0,0,1-4,4.56c-1.62,1.56-3.41,3.11-5.35,4.64s-3.86,3-5.75,4.32-3.58,2.52-5.08,3.51c1.18,2,2.35,3.95,3.48,5.77s2.36,3.61,3.69,5.36a57.16,57.16,0,0,0,4.67,5.35,86,86,0,0,0,6.49,5.9,4,4,0,0,1-1.31,1.37A3.44,3.44,0,0,1,634.49,322.35Z" fill="#fff"/><path d="M645.33,322.35a5.14,5.14,0,0,1-2.8-.83,2.48,2.48,0,0,1-1.31-2.14,5.22,5.22,0,0,1,.3-1.58c.19-.62.37-1.18.53-1.7q1.91-5.84,3.57-10.89t3.34-9.82q1.66-4.77,3.54-9.52t4.19-9.95a17.35,17.35,0,0,0-4,1.22c-1.18.54-2.12,1-2.83,1.43a3.94,3.94,0,0,1-1.43.63,1.46,1.46,0,0,1-.68-.27,3.92,3.92,0,0,1-.81-.65,1.08,1.08,0,0,1-.35-.69c1-.43,2.25-.91,3.65-1.43a36.63,36.63,0,0,1,4.56-1.31,23.42,23.42,0,0,1,4.94-.53,21.12,21.12,0,0,1,5.33.71,17.2,17.2,0,0,1,5,2.18,12,12,0,0,1,3.63,3.6,9.07,9.07,0,0,1,1.37,5,10,10,0,0,1-1.37,5.32,12.24,12.24,0,0,1-3.63,3.75,21.63,21.63,0,0,1-4.88,2.44,35.51,35.51,0,0,1-5.21,1.43,39.35,39.35,0,0,1-4.62.66c-1.34.1-2.34.15-3,.15h-.6q-1.79,6.12-3.42,12.08T645.33,322.35ZM652,298.6a32.55,32.55,0,0,0,6.64-1.07,23.33,23.33,0,0,0,6.16-2.59,14.54,14.54,0,0,0,4.52-4.22,10.27,10.27,0,0,0,1.73-5.93,8.5,8.5,0,0,0-1.52-5.23,9.07,9.07,0,0,0-4-3,14.19,14.19,0,0,0-5.27-1A83.81,83.81,0,0,0,656,286Q653.9,292.05,652,298.6Z" fill="#fff"/><path d="M688,322.35a3.76,3.76,0,0,1-1.66-1.63,4,4,0,0,1-.36-1.46,12.53,12.53,0,0,1,1.22-4.53,67.06,67.06,0,0,1,3.27-6.51c1.37-2.45,2.89-5,4.56-7.59q-2.21-.18-3.75-.24c-1,0-1.93-.06-2.68-.06h-2.09a4.06,4.06,0,0,1,2.3-2.41,10,10,0,0,1,3.89-.69,18.84,18.84,0,0,1,2.09.12c.71.08,1.45.18,2.2.3q3-4.59,6.22-8.9c2.12-2.87,4.11-5.44,5.95-7.68a56.25,56.25,0,0,1,4.62-5.08c1.15-1.12,2.1-1.67,2.85-1.67a2.86,2.86,0,0,1,1.46.5,10.42,10.42,0,0,1,1.7,1.4,7.6,7.6,0,0,0-1.52,2.53c-.62,1.37-1.27,3.09-2,5.15s-1.37,4.33-2,6.79-1.3,5-1.87,7.53-1,5-1.37,7.29a42.09,42.09,0,0,0-.51,6.07,9.57,9.57,0,0,0,.51,3.51,1.75,1.75,0,0,0,1.69,1.25c1,0,2.21-.71,3.52-2.14a31.79,31.79,0,0,0,4.28-6.67l.6.6a23.93,23.93,0,0,1-4.56,7.79c-1.84,2-3.76,3-5.74,3a3.7,3.7,0,0,1-3.54-2.17,12.88,12.88,0,0,1-1.1-5.81,35.26,35.26,0,0,1,.27-4.16c.17-1.51.42-3.08.74-4.7-1.75-.28-3.35-.51-4.79-.69l-4-.51q-2.8,5.19-5.45,10.66T688,322.35ZM707.58,300q.9-3.93,2.09-7.94t2.53-7.65c.89-2.42,1.73-4.55,2.53-6.37a18.89,18.89,0,0,0-4.26,4,71.88,71.88,0,0,0-5.09,7q-2.67,4.14-5.47,9.08c1.34.28,2.68.58,4,.92Z" fill="#fff"/><path d="M725.74,319.79a6.57,6.57,0,0,1-7.26-6.9,13.87,13.87,0,0,1,1.34-5.66,23.41,23.41,0,0,1,3.57-5.59,20.38,20.38,0,0,1,4.91-4.26,10.12,10.12,0,0,1,5.3-1.63,4.72,4.72,0,0,1,2.53.71c.77.48,1.16,1.45,1.16,2.92a7.5,7.5,0,0,1-1.34,4.25,13.87,13.87,0,0,1-3.51,3.54,20.51,20.51,0,0,1-4.77,2.53,19.39,19.39,0,0,1-5.14,1.22,10.29,10.29,0,0,0-.18,1.14,9,9,0,0,0-.06,1,7.73,7.73,0,0,0,.21,1.78,4.35,4.35,0,0,0,.74,1.64,3.61,3.61,0,0,0,1.46,1.16,5.51,5.51,0,0,0,2.29.42,10,10,0,0,0,5.06-1.46,19.28,19.28,0,0,0,4.64-3.84,25,25,0,0,0,3.63-5.24l.72.54a22.19,22.19,0,0,1-4.08,6.19,19.43,19.43,0,0,1-5.36,4.07A12.77,12.77,0,0,1,725.74,319.79Zm-2.92-10a25.92,25.92,0,0,0,3.64-1.57,27.34,27.34,0,0,0,3.89-2.47,14.92,14.92,0,0,0,3.1-3.16,6.21,6.21,0,0,0,1.22-3.63,1.8,1.8,0,0,0-.24-1,1.15,1.15,0,0,0-1-.36,5.48,5.48,0,0,0-3,1.1,15.61,15.61,0,0,0-3.09,2.89,25.16,25.16,0,0,0-2.68,3.93A19.3,19.3,0,0,0,722.82,309.79Z" fill="#fff"/><path d="M745.38,320.21A7.28,7.28,0,0,1,741,319a6.65,6.65,0,0,1-2.32-3,9.84,9.84,0,0,1-.69-3.57,6.18,6.18,0,0,1,.48-2.73,3.61,3.61,0,0,1,1.16-1.43,5.93,5.93,0,0,1,1.31-.72,2.5,2.5,0,0,0,.86-.48A40.07,40.07,0,0,0,745,303a32.75,32.75,0,0,0,2.62-4.53v-.71a5,5,0,0,1,.74-3.12,2.05,2.05,0,0,1,1.57-.93,1,1,0,0,1,.72.24.75.75,0,0,1,.24.54,4.19,4.19,0,0,1-.18.95,6.45,6.45,0,0,0-.18,1.67,13.54,13.54,0,0,0,.77,4.25q.78,2.29,1.55,4.82a17.83,17.83,0,0,1,.78,5.27,12.66,12.66,0,0,1-.09,1.52,9.65,9.65,0,0,1-.27,1.4,8.42,8.42,0,0,0,3.93-1.88,15.41,15.41,0,0,0,3.57-4.85l.53.6a10.14,10.14,0,0,1-3.39,5,11,11,0,0,1-4.94,2.11,6.88,6.88,0,0,1-3,3.75A9.08,9.08,0,0,1,745.38,320.21Zm.12-2.08a5.49,5.49,0,0,0,1.91-.48,3.65,3.65,0,0,0,1.84-2.44,10.24,10.24,0,0,1-4.43-2,12.29,12.29,0,0,1-2.89-3c-.87,0-1.31.73-1.31,2.08a6.75,6.75,0,0,0,1.28,4A4.15,4.15,0,0,0,745.5,318.13Zm4-3.87a12.12,12.12,0,0,0,.18-1.25c0-.44.06-.95.06-1.55a23,23,0,0,0-.69-5.57c-.45-1.84-.84-3.58-1.16-5.2q-1.37,2.25-2.88,4.31a31.28,31.28,0,0,1-2.89,3.42,11,11,0,0,0,2.77,3.57A9.92,9.92,0,0,0,749.55,314.26Z" fill="#fff"/><path d="M764.73,319.91a5.07,5.07,0,0,1-3.93-1.49,6.26,6.26,0,0,1-1.37-4.4,22.71,22.71,0,0,1,.5-4.29c.34-1.66.8-3.44,1.37-5.32s1.2-3.72,1.88-5.51a4.32,4.32,0,0,1-1.13-.39,10.47,10.47,0,0,0-1-.44V297a6.07,6.07,0,0,1,1.14.3,5.39,5.39,0,0,0,1.48.3,81.58,81.58,0,0,1,3.55-7.92,38,38,0,0,1,3.6-5.83c1.15-1.47,2.12-2.2,2.91-2.2a1.31,1.31,0,0,1,.87.33,1.22,1.22,0,0,1,.38,1,4.66,4.66,0,0,1-.47,1.7c-.32.73-.76,1.59-1.31,2.59s-1.17,2.08-1.85,3.27-1.39,2.46-2.14,3.81-1.47,2.76-2.14,4.22q1.49.24,2.88.42a22.65,22.65,0,0,0,2.89.18,26.84,26.84,0,0,0,3.45-.24c1.23-.16,2.64-.4,4.23-.71Q782,294,784,289.79t3.93-7.59a34.92,34.92,0,0,1,3.81-5.47c1.21-1.37,2.25-2.06,3.12-2.06.72,0,1.22.43,1.52,1.29a7.39,7.39,0,0,1,.45,2.47,14.67,14.67,0,0,1-1,4.91,36.07,36.07,0,0,1-2.83,5.83,34.26,34.26,0,0,1-4.14,5.59,22.84,22.84,0,0,1-5,4.2,37.15,37.15,0,0,0-1.7,5.24,43,43,0,0,0-1,5.86,22.21,22.21,0,0,0-.06,4.79,62.76,62.76,0,0,1,3.22-7.62,20.83,20.83,0,0,1,4-5.65,6.88,6.88,0,0,1,4.85-2.14,3.77,3.77,0,0,1,3.48,1.69,6.9,6.9,0,0,1,1,3.66,10.56,10.56,0,0,1-.62,3.57c-.42,1.16-.85,2.27-1.28,3.34a8.11,8.11,0,0,0-.66,3.09,2.45,2.45,0,0,0,.51,1.73,1.67,1.67,0,0,0,1.28.53,5.17,5.17,0,0,0,3.06-1.31,19,19,0,0,0,3.37-3.48,25,25,0,0,0,2.85-4.73l.78.72a25.29,25.29,0,0,1-3,5.26,15.25,15.25,0,0,1-3.93,3.72,8.21,8.21,0,0,1-4.46,1.37,4.08,4.08,0,0,1-3.07-1.07,3.7,3.7,0,0,1-1-2.68,9.5,9.5,0,0,1,.48-2.79c.31-1,.62-2.09.92-3.16a11.25,11.25,0,0,0,.45-3,3,3,0,0,0-.66-2.2A2.21,2.21,0,0,0,791,303a3.66,3.66,0,0,0-2.67,1.19,12.38,12.38,0,0,0-2.18,3.06c-.65,1.25-1.27,2.57-1.84,4s-1.12,2.71-1.64,4a18.52,18.52,0,0,1-1.55,3.07c-.51.79-1.05,1.18-1.6,1.18a1.5,1.5,0,0,1-1.19-.65,5,5,0,0,1-.87-1.84,12.27,12.27,0,0,1-.38-2.77,19.6,19.6,0,0,1,.18-3.36,21.76,21.76,0,0,1-5.57,6.54A11.15,11.15,0,0,1,764.73,319.91Zm1.72-2.2a9,9,0,0,0,6.07-2.74,24.06,24.06,0,0,0,5.24-7.44c.28-1.31.56-2.56.86-3.75s.71-2.52,1.22-4a29.33,29.33,0,0,1-3.83.66c-1.22.12-2.38.18-3.49.18a22.51,22.51,0,0,1-3.15-.21c-1-.14-2-.29-3-.45a54.42,54.42,0,0,0-2.32,6.49,23.71,23.71,0,0,0-1,6.49,6.56,6.56,0,0,0,.77,3.66A2.92,2.92,0,0,0,766.45,317.71Zm18.16-21.07a24.09,24.09,0,0,0,3.9-4,44.64,44.64,0,0,0,3.24-4.82,32.76,32.76,0,0,0,2.23-4.58,9.9,9.9,0,0,0,.8-3.25c0-.31-.08-.47-.24-.47s-.81.43-1.6,1.31a28.37,28.37,0,0,0-2.71,3.63,46.1,46.1,0,0,0-3,5.44A51.1,51.1,0,0,0,784.61,296.64Z" fill="#fff"/><path d="M811.45,319.79a6.57,6.57,0,0,1-7.26-6.9,13.87,13.87,0,0,1,1.34-5.66,23.41,23.41,0,0,1,3.57-5.59,20.38,20.38,0,0,1,4.91-4.26,10.12,10.12,0,0,1,5.3-1.63,4.72,4.72,0,0,1,2.53.71c.77.48,1.16,1.45,1.16,2.92a7.5,7.5,0,0,1-1.34,4.25,13.87,13.87,0,0,1-3.51,3.54,20.51,20.51,0,0,1-4.77,2.53,19.39,19.39,0,0,1-5.14,1.22,10.29,10.29,0,0,0-.18,1.14,9,9,0,0,0-.06,1,7.73,7.73,0,0,0,.21,1.78,4.35,4.35,0,0,0,.74,1.64,3.61,3.61,0,0,0,1.46,1.16,5.51,5.51,0,0,0,2.29.42,10,10,0,0,0,5.06-1.46,19.28,19.28,0,0,0,4.64-3.84,25,25,0,0,0,3.63-5.24l.72.54a22.19,22.19,0,0,1-4.08,6.19,19.43,19.43,0,0,1-5.36,4.07A12.77,12.77,0,0,1,811.45,319.79Zm-2.92-10a25.92,25.92,0,0,0,3.64-1.57,27.34,27.34,0,0,0,3.89-2.47,14.92,14.92,0,0,0,3.1-3.16,6.21,6.21,0,0,0,1.22-3.63,1.8,1.8,0,0,0-.24-1,1.15,1.15,0,0,0-1-.36,5.48,5.48,0,0,0-3,1.1,15.61,15.61,0,0,0-3.09,2.89,25.16,25.16,0,0,0-2.68,3.93A19.3,19.3,0,0,0,808.53,309.79Z" fill="#fff"/><path d="M829.9,319.91a5.1,5.1,0,0,1-3.93-1.49,6.3,6.3,0,0,1-1.37-4.4,26.69,26.69,0,0,1,1-6.46,78,78,0,0,1,2.47-7.89l-1.13-.2a5.15,5.15,0,0,1-1-.27v-1.07c.31,0,.69.08,1.13.11s.93.09,1.48.12q1.26-3.21,2.68-6.22c.95-2,1.9-3.79,2.83-5.35a22.34,22.34,0,0,1,2.68-3.75c.85-.93,1.57-1.4,2.17-1.4a1.29,1.29,0,0,1,.86.33,1.19,1.19,0,0,1,.39,1,8.42,8.42,0,0,1-1.25,3.3c-.83,1.53-1.87,3.35-3.1,5.45s-2.42,4.38-3.56,6.84h2.2c1.31,0,2.68,0,4.13-.06s2.91-.13,4.38-.29v1.07c-2.18.23-4.14.41-5.86.53s-3.27.18-4.62.18h-.89a52.72,52.72,0,0,0-2.32,6.49,23.33,23.33,0,0,0-1,6.49,6.56,6.56,0,0,0,.77,3.66,2.91,2.91,0,0,0,2.56,1.1A9,9,0,0,0,837.7,315a24.23,24.23,0,0,0,5.24-7.44l.77.6a25.29,25.29,0,0,1-3.6,6,18.13,18.13,0,0,1-4.79,4.22A10.54,10.54,0,0,1,829.9,319.91Z" fill="#fff"/><path d="M846.09,318.72a4.09,4.09,0,0,1-3.45-1.46,5.62,5.62,0,0,1-1.13-3.54,15.09,15.09,0,0,1,.51-3.45,41.11,41.11,0,0,1,1.33-4.38,31.87,31.87,0,0,1,1.94-4.31,14.74,14.74,0,0,1,2.35-3.3,3.52,3.52,0,0,1,2.44-1.29,1.42,1.42,0,0,1,.92.33,1.22,1.22,0,0,1,.39,1,5.74,5.74,0,0,1-.92,2.32c-.62,1.07-1.34,2.3-2.18,3.69a31.74,31.74,0,0,0-2.17,4.37,11.84,11.84,0,0,0-.92,4.38,4.15,4.15,0,0,0,.71,2.85,3,3,0,0,0,2.21.72,6.74,6.74,0,0,0,4.31-2,24.13,24.13,0,0,0,4.85-7.08l.54.6a17.14,17.14,0,0,1-5,7.85A10.36,10.36,0,0,1,846.09,318.72Zm7.14-27.26a3,3,0,0,1-1.69-.48,1.62,1.62,0,0,1-.75-1.48,2.62,2.62,0,0,1,1.46-2.18,5.45,5.45,0,0,1,2.89-.92,2.27,2.27,0,0,1,1.43.42,1.69,1.69,0,0,1,.53,1.43,2.9,2.9,0,0,1-1.21,2.17A4,4,0,0,1,853.23,291.46Z" fill="#fff"/><path d="M862.52,320.51a6.47,6.47,0,0,1-4.76-1.91q-1.9-1.91-1.9-5.71a15,15,0,0,1,1.16-5.8,19,19,0,0,1,3.06-5.09,15.85,15.85,0,0,1,4.23-3.6,9,9,0,0,1,4.58-1.34c1.63,0,2.74.47,3.33,1.42a5.54,5.54,0,0,1,.9,3,5.69,5.69,0,0,1-.81,3,2.44,2.44,0,0,1-2.17,1.3,2.13,2.13,0,0,1-1.73-.89A3.89,3.89,0,0,0,870,303a6.73,6.73,0,0,0,.66-2.77,1.9,1.9,0,0,0-.27-1.1,1.19,1.19,0,0,0-1-.39,5.23,5.23,0,0,0-3.31,1.43,16.22,16.22,0,0,0-3.15,3.69,24.06,24.06,0,0,0-2.38,4.76,13.56,13.56,0,0,0-.93,4.71,6.64,6.64,0,0,0,.9,3.39c.59,1,1.74,1.55,3.45,1.55a10,10,0,0,0,4.79-1.31,16.06,16.06,0,0,0,4.49-3.75,19.57,19.57,0,0,0,3.34-5.72l.77.6a22,22,0,0,1-3.75,6.39,19,19,0,0,1-5.23,4.44A11.73,11.73,0,0,1,862.52,320.51Z" fill="#fff"/><path d="M881.63,320.21a7.29,7.29,0,0,1-4.44-1.22,6.72,6.72,0,0,1-2.32-3,10,10,0,0,1-.68-3.57,6.35,6.35,0,0,1,.47-2.73,3.63,3.63,0,0,1,1.17-1.43,6.11,6.11,0,0,1,1.3-.72,2.57,2.57,0,0,0,.87-.48,38.66,38.66,0,0,0,3.27-4.1,32.75,32.75,0,0,0,2.62-4.53v-.71a5.06,5.06,0,0,1,.74-3.12,2.07,2.07,0,0,1,1.58-.93,1,1,0,0,1,.71.24.75.75,0,0,1,.24.54,4.64,4.64,0,0,1-.17.95,6.45,6.45,0,0,0-.18,1.67,13.26,13.26,0,0,0,.77,4.25c.52,1.53,1,3.14,1.55,4.82a18.16,18.16,0,0,1,.77,5.27,12.66,12.66,0,0,1-.09,1.52,9.65,9.65,0,0,1-.27,1.4,8.42,8.42,0,0,0,3.93-1.88,15.41,15.41,0,0,0,3.57-4.85l.54.6a10.2,10.2,0,0,1-3.39,5,11,11,0,0,1-4.94,2.11,6.93,6.93,0,0,1-3,3.75A9.07,9.07,0,0,1,881.63,320.21Zm.12-2.08a5.44,5.44,0,0,0,1.9-.48,3.63,3.63,0,0,0,1.85-2.44,10.28,10.28,0,0,1-4.44-2,12,12,0,0,1-2.88-3c-.88,0-1.31.73-1.31,2.08a6.74,6.74,0,0,0,1.27,4A4.18,4.18,0,0,0,881.75,318.13Zm4-3.87A12.12,12.12,0,0,0,886,313c0-.44.06-.95.06-1.55a23.45,23.45,0,0,0-.68-5.57c-.46-1.84-.85-3.58-1.16-5.2q-1.38,2.25-2.89,4.31a30.2,30.2,0,0,1-2.89,3.42,11.11,11.11,0,0,0,2.77,3.57A10,10,0,0,0,885.79,314.26Z" fill="#fff"/><rect x="528.43" y="234.85" width="441.46" height="130.29" fill="none" stroke="#fff" stroke-miterlimit="10" stroke-width="2.66"/><path d="M1042.79,159.15q8.31,7.59,8.31,21.13T1043,201.7q-8.1,7.89-24.7,7.89H998.45v-58H1019Q1034.48,151.55,1042.79,159.15Zm-9.5,34.5q4.77-4.49,4.77-13t-4.77-13.16q-4.79-4.6-14.66-4.61h-7.22v35.29h8.22Q1028.51,198.13,1033.29,193.65Z" fill="none" stroke="#fff" stroke-miterlimit="10" stroke-width="3"/><path d="M1062.3,151.55h13v58h-13Z" fill="none" stroke="#fff" stroke-miterlimit="10" stroke-width="3"/><path d="M1103.11,163.13a5,5,0,0,0-1.86,4.07,4.61,4.61,0,0,0,2.28,4q2.28,1.49,10.55,3.53t12.82,6.1q4.57,4.06,4.57,11.87a15.68,15.68,0,0,1-5.85,12.67q-5.86,4.84-15.41,4.85-13.77,0-24.82-10.21l7.72-9.47q9.38,8.22,17.35,8.22a9.16,9.16,0,0,0,5.61-1.53,5,5,0,0,0,2-4.15,4.85,4.85,0,0,0-2.16-4.16q-2.16-1.53-8.55-3.11-10.12-2.4-14.82-6.27t-4.69-12.12q0-8.26,5.94-12.75t14.82-4.48a35.58,35.58,0,0,1,11.62,2,31,31,0,0,1,10.13,5.65l-6.56,9.46q-7.56-5.72-15.61-5.72A7.84,7.84,0,0,0,1103.11,163.13Z" fill="none" stroke="#fff" stroke-miterlimit="10" stroke-width="3"/><path d="M1169.17,198.13a19.12,19.12,0,0,0,15.61-7.56l8.3,8.56q-9.88,11.13-23.29,11.12t-22.09-8.47q-8.67-8.46-8.67-21.38a28.85,28.85,0,0,1,8.84-21.54,29.76,29.76,0,0,1,21.63-8.64,30.66,30.66,0,0,1,23.91,10.88l-8.05,9.13q-6.15-7.64-15.28-7.64a17.79,17.79,0,0,0-12.5,4.78q-5.19,4.77-5.19,12.87c0,5.39,1.64,9.73,4.9,13A16.18,16.18,0,0,0,1169.17,198.13Z" fill="none" stroke="#fff" stroke-miterlimit="10" stroke-width="3"/><path d="M1250.87,201.58a31.63,31.63,0,0,1-43.34,0,30.38,30.38,0,0,1,0-42.77,31.63,31.63,0,0,1,43.34,0,30.38,30.38,0,0,1,0,42.77Zm-4.4-21.34a19,19,0,0,0-5-13.25,16.43,16.43,0,0,0-24.5,0,20.05,20.05,0,0,0,0,26.45,16.51,16.51,0,0,0,24.5,0A18.86,18.86,0,0,0,1246.47,180.24Z" fill="none" stroke="#fff" stroke-miterlimit="10" stroke-width="3"/><path d="M1290.73,188.5l14.78-36.95h14l-23.33,58h-11l-23.34-58h14Z" fill="none" stroke="#fff" stroke-miterlimit="10" stroke-width="3"/><path d="M1368.28,151.55v11.54h-28.9v12h26v11h-26v12h29.81v11.46h-42.76v-58Z" fill="none" stroke="#fff" stroke-miterlimit="10" stroke-width="3"/><path d="M1427.81,170.81q0,14-11,18l14.7,20.76h-15.94l-12.87-18.52h-9v18.52h-13v-58h22q13.53,0,19.3,4.57T1427.81,170.81Zm-15.61,6.89c1.61-1.43,2.41-3.72,2.41-6.85s-.83-5.27-2.49-6.43-4.57-1.75-8.72-1.75h-9.71v17.19h9.46Q1409.79,179.86,1412.2,177.7Z" fill="none" stroke="#fff" stroke-miterlimit="10" stroke-width="3"/><path d="M1042.79,77.07q8.31,7.59,8.31,21.13t-8.1,21.42q-8.1,7.89-24.7,7.89H998.45v-58H1019Q1034.48,69.47,1042.79,77.07Zm-9.5,34.5q4.77-4.48,4.77-13t-4.77-13.16q-4.79-4.61-14.66-4.61h-7.22v35.29h8.22Q1028.51,116.05,1033.29,111.57Z" fill="#fff"/><path d="M1062.3,69.47h13v58h-13Z" fill="#fff"/><path d="M1103.11,81.05a5,5,0,0,0-1.86,4.07,4.61,4.61,0,0,0,2.28,4q2.28,1.48,10.55,3.53t12.82,6.1q4.57,4.06,4.57,11.87a15.68,15.68,0,0,1-5.85,12.67q-5.86,4.84-15.41,4.85-13.77,0-24.82-10.21l7.72-9.47q9.38,8.22,17.35,8.22a9.16,9.16,0,0,0,5.61-1.53,5,5,0,0,0,2-4.15,4.85,4.85,0,0,0-2.16-4.16q-2.16-1.53-8.55-3.11-10.12-2.4-14.82-6.27t-4.69-12.12q0-8.27,5.94-12.75t14.82-4.48a35.58,35.58,0,0,1,11.62,2,31,31,0,0,1,10.13,5.65l-6.56,9.46q-7.56-5.71-15.61-5.72A7.84,7.84,0,0,0,1103.11,81.05Z" fill="#fff"/><path d="M1169.17,116.05a19.12,19.12,0,0,0,15.61-7.56l8.3,8.56q-9.88,11.13-23.29,11.12t-22.09-8.47q-8.67-8.46-8.67-21.38a28.85,28.85,0,0,1,8.84-21.54,29.76,29.76,0,0,1,21.63-8.64A30.66,30.66,0,0,1,1193.41,79l-8.05,9.13q-6.15-7.64-15.28-7.64a17.79,17.79,0,0,0-12.5,4.78q-5.19,4.77-5.19,12.87c0,5.39,1.64,9.73,4.9,13A16.18,16.18,0,0,0,1169.17,116.05Z" fill="#fff"/><path d="M1250.87,119.5a31.63,31.63,0,0,1-43.34,0,28.67,28.67,0,0,1-8.8-21.38,28.67,28.67,0,0,1,8.8-21.39,31.63,31.63,0,0,1,43.34,0,28.67,28.67,0,0,1,8.8,21.39A28.67,28.67,0,0,1,1250.87,119.5Zm-4.4-21.34a19,19,0,0,0-5-13.25,16.43,16.43,0,0,0-24.5,0,20.05,20.05,0,0,0,0,26.45,16.51,16.51,0,0,0,24.5,0A18.86,18.86,0,0,0,1246.47,98.16Z" fill="#fff"/><path d="M1290.73,106.42l14.78-36.95h14l-23.33,58h-11l-23.34-58h14Z" fill="#fff"/><path d="M1368.28,69.47V81h-28.9V93h26v11h-26v12h29.81v11.46h-42.76v-58Z" fill="#fff"/><path d="M1427.81,88.73q0,14-11,18l14.7,20.76h-15.94L1402.66,109h-9v18.52h-13v-58h22q13.53,0,19.3,4.56T1427.81,88.73Zm-15.61,6.89c1.61-1.43,2.41-3.72,2.41-6.85s-.83-5.27-2.49-6.43-4.57-1.75-8.72-1.75h-9.71V97.78h9.46Q1409.79,97.78,1412.2,95.62Z" fill="#fff"/><path d="M1042.79,320q8.31,7.59,8.31,21.13T1043,362.5q-8.1,7.89-24.7,7.89H998.45v-58H1019Q1034.48,312.35,1042.79,320Zm-9.5,34.5q4.77-4.49,4.77-13t-4.77-13.16q-4.79-4.61-14.66-4.61h-7.22v35.29h8.22Q1028.51,358.93,1033.29,354.45Z" fill="none" stroke="#fff" stroke-miterlimit="10" stroke-width="3"/><path d="M1062.3,312.35h13v58h-13Z" fill="none" stroke="#fff" stroke-miterlimit="10" stroke-width="3"/><path d="M1103.11,323.93a5,5,0,0,0-1.86,4.07,4.61,4.61,0,0,0,2.28,4q2.28,1.5,10.55,3.53t12.82,6.1c3,2.72,4.57,6.67,4.57,11.88a15.68,15.68,0,0,1-5.85,12.66q-5.86,4.86-15.41,4.86-13.77,0-24.82-10.22l7.72-9.46q9.38,8.22,17.35,8.22a9.1,9.1,0,0,0,5.61-1.54,4.94,4.94,0,0,0,2-4.15,4.83,4.83,0,0,0-2.16-4.15c-1.44-1-4.29-2.06-8.55-3.12q-10.12-2.4-14.82-6.26t-4.69-12.13q0-8.25,5.94-12.74t14.82-4.49a35.59,35.59,0,0,1,11.62,2,31,31,0,0,1,10.13,5.64l-6.56,9.47q-7.56-5.73-15.61-5.73A7.84,7.84,0,0,0,1103.11,323.93Z" fill="none" stroke="#fff" stroke-miterlimit="10" stroke-width="3"/><path d="M1169.17,358.93a19.11,19.11,0,0,0,15.61-7.55l8.3,8.55q-9.88,11.13-23.29,11.13t-22.09-8.47q-8.67-8.47-8.67-21.38a28.87,28.87,0,0,1,8.84-21.55A29.76,29.76,0,0,1,1169.5,311a30.66,30.66,0,0,1,23.91,10.88l-8.05,9.13q-6.15-7.63-15.28-7.63a17.83,17.83,0,0,0-12.5,4.77q-5.19,4.77-5.19,12.87t4.9,13A16.18,16.18,0,0,0,1169.17,358.93Z" fill="none" stroke="#fff" stroke-miterlimit="10" stroke-width="3"/><path d="M1250.87,362.38a31.63,31.63,0,0,1-43.34,0,30.37,30.37,0,0,1,0-42.76,31.6,31.6,0,0,1,43.34,0,30.37,30.37,0,0,1,0,42.76Zm-4.4-21.34a19,19,0,0,0-5-13.24,16.43,16.43,0,0,0-24.5,0,20,20,0,0,0,0,26.44,16.51,16.51,0,0,0,24.5,0A18.82,18.82,0,0,0,1246.47,341Z" fill="none" stroke="#fff" stroke-miterlimit="10" stroke-width="3"/><path d="M1290.73,349.3l14.78-36.95h14l-23.33,58h-11l-23.34-58h14Z" fill="none" stroke="#fff" stroke-miterlimit="10" stroke-width="3"/><path d="M1368.28,312.35v11.54h-28.9v12h26v11h-26v12h29.81v11.46h-42.76v-58Z" fill="none" stroke="#fff" stroke-miterlimit="10" stroke-width="3"/><path d="M1427.81,331.62q0,14-11,18l14.7,20.76h-15.94l-12.87-18.51h-9v18.51h-13v-58h22q13.53,0,19.3,4.57T1427.81,331.62Zm-15.61,6.89q2.41-2.16,2.41-6.85t-2.49-6.44q-2.49-1.74-8.72-1.74h-9.71v17.19h9.46Q1409.79,340.67,1412.2,338.51Z" fill="none" stroke="#fff" stroke-miterlimit="10" stroke-width="3"/><path d="M1042.79,237.87q8.31,7.59,8.31,21.13t-8.1,21.42q-8.1,7.89-24.7,7.89H998.45v-58H1019Q1034.48,230.27,1042.79,237.87Zm-9.5,34.5q4.77-4.49,4.77-13t-4.77-13.16q-4.79-4.6-14.66-4.61h-7.22v35.29h8.22Q1028.51,276.85,1033.29,272.37Z" fill="#fff"/><path d="M1062.3,230.27h13v58h-13Z" fill="#fff"/><path d="M1103.11,241.85a5,5,0,0,0-1.86,4.07,4.61,4.61,0,0,0,2.28,4q2.28,1.5,10.55,3.53t12.82,6.1c3,2.72,4.57,6.67,4.57,11.88a15.68,15.68,0,0,1-5.85,12.66q-5.86,4.86-15.41,4.86-13.77,0-24.82-10.22l7.72-9.46q9.38,8.22,17.35,8.22a9.1,9.1,0,0,0,5.61-1.54,4.94,4.94,0,0,0,2-4.15,4.83,4.83,0,0,0-2.16-4.15c-1.44-1-4.29-2.06-8.55-3.12q-10.12-2.4-14.82-6.26t-4.69-12.13q0-8.25,5.94-12.74t14.82-4.49a35.59,35.59,0,0,1,11.62,2,31,31,0,0,1,10.13,5.64l-6.56,9.47q-7.56-5.73-15.61-5.73A7.84,7.84,0,0,0,1103.11,241.85Z" fill="#fff"/><path d="M1169.17,276.85a19.11,19.11,0,0,0,15.61-7.55l8.3,8.55Q1183.2,289,1169.79,289t-22.09-8.47Q1139,272,1139,259.13a28.87,28.87,0,0,1,8.84-21.55,29.76,29.76,0,0,1,21.63-8.64,30.66,30.66,0,0,1,23.91,10.88l-8.05,9.13q-6.15-7.63-15.28-7.63a17.83,17.83,0,0,0-12.5,4.77q-5.19,4.77-5.19,12.87t4.9,13A16.18,16.18,0,0,0,1169.17,276.85Z" fill="#fff"/><path d="M1250.87,280.3a31.63,31.63,0,0,1-43.34,0,30.37,30.37,0,0,1,0-42.76,31.6,31.6,0,0,1,43.34,0,30.37,30.37,0,0,1,0,42.76Zm-4.4-21.34a19,19,0,0,0-5-13.24,16.43,16.43,0,0,0-24.5,0,20,20,0,0,0,0,26.44,16.51,16.51,0,0,0,24.5,0A18.82,18.82,0,0,0,1246.47,259Z" fill="#fff"/><path d="M1290.73,267.22l14.78-37h14l-23.33,58h-11l-23.34-58h14Z" fill="#fff"/><path d="M1368.28,230.27v11.54h-28.9v12h26v11h-26v12h29.81v11.46h-42.76v-58Z" fill="#fff"/><path d="M1427.81,249.54q0,13.95-11,18l14.7,20.76h-15.94l-12.87-18.51h-9v18.51h-13v-58h22q13.53,0,19.3,4.57T1427.81,249.54Zm-15.61,6.89q2.41-2.16,2.41-6.85t-2.49-6.44q-2.49-1.74-8.72-1.74h-9.71v17.19h9.46Q1409.79,258.59,1412.2,256.43Z" fill="#fff"/><path d="M1042.79,477.6q8.31,7.61,8.31,21.13t-8.1,21.43q-8.1,7.89-24.7,7.88H998.45V470H1019Q1034.48,470,1042.79,477.6Zm-9.5,34.5q4.77-4.49,4.77-13t-4.77-13.16q-4.79-4.62-14.66-4.61h-7.22v35.29h8.22Q1028.51,516.59,1033.29,512.1Z" fill="none" stroke="#fff" stroke-miterlimit="10" stroke-width="3"/><path d="M1062.3,470h13v58h-13Z" fill="none" stroke="#fff" stroke-miterlimit="10" stroke-width="3"/><path d="M1103.11,481.59a5,5,0,0,0-1.86,4.07,4.58,4.58,0,0,0,2.28,4q2.28,1.5,10.55,3.53t12.82,6.11q4.57,4.06,4.57,11.87a15.68,15.68,0,0,1-5.85,12.66q-5.86,4.86-15.41,4.86-13.77,0-24.82-10.21l7.72-9.47q9.38,8.22,17.35,8.22a9.1,9.1,0,0,0,5.61-1.54,4.93,4.93,0,0,0,2-4.15,4.85,4.85,0,0,0-2.16-4.15q-2.16-1.53-8.55-3.11-10.12-2.42-14.82-6.27t-4.69-12.12q0-8.27,5.94-12.75t14.82-4.48a35.58,35.58,0,0,1,11.62,2,31,31,0,0,1,10.13,5.65l-6.56,9.46q-7.56-5.73-15.61-5.73A7.79,7.79,0,0,0,1103.11,481.59Z" fill="none" stroke="#fff" stroke-miterlimit="10" stroke-width="3"/><path d="M1169.17,516.59a19.12,19.12,0,0,0,15.61-7.56l8.3,8.55q-9.88,11.13-23.29,11.13t-22.09-8.47q-8.67-8.47-8.67-21.38a28.87,28.87,0,0,1,8.84-21.55,29.79,29.79,0,0,1,21.63-8.63,30.65,30.65,0,0,1,23.91,10.87l-8.05,9.14q-6.15-7.63-15.28-7.64a17.83,17.83,0,0,0-12.5,4.77q-5.19,4.79-5.19,12.87t4.9,13A16.21,16.21,0,0,0,1169.17,516.59Z" fill="none" stroke="#fff" stroke-miterlimit="10" stroke-width="3"/><path d="M1250.87,520a31.6,31.6,0,0,1-43.34,0,30.37,30.37,0,0,1,0-42.76,31.63,31.63,0,0,1,43.34,0,30.37,30.37,0,0,1,0,42.76Zm-4.4-21.34a19,19,0,0,0-5-13.24,16.43,16.43,0,0,0-24.5,0,20.05,20.05,0,0,0,0,26.45,16.53,16.53,0,0,0,24.5,0A18.87,18.87,0,0,0,1246.47,498.69Z" fill="none" stroke="#fff" stroke-miterlimit="10" stroke-width="3"/><path d="M1290.73,507,1305.51,470h14l-23.33,58h-11l-23.34-58h14Z" fill="none" stroke="#fff" stroke-miterlimit="10" stroke-width="3"/><path d="M1368.28,470v11.55h-28.9V493.5h26v11.05h-26v12h29.81V528h-42.76V470Z" fill="none" stroke="#fff" stroke-miterlimit="10" stroke-width="3"/><path d="M1427.81,489.27q0,14-11,18l14.7,20.75h-15.94l-12.87-18.51h-9V528h-13V470h22q13.53,0,19.3,4.57T1427.81,489.27Zm-15.61,6.89q2.41-2.16,2.41-6.85c0-3.13-.83-5.27-2.49-6.44s-4.57-1.74-8.72-1.74h-9.71v17.19h9.46Q1409.79,498.32,1412.2,496.16Z" fill="none" stroke="#fff" stroke-miterlimit="10" stroke-width="3"/><path d="M1042.79,395.52q8.31,7.61,8.31,21.13t-8.1,21.43q-8.1,7.89-24.7,7.88H998.45v-58H1019Q1034.48,387.92,1042.79,395.52Zm-9.5,34.5q4.77-4.49,4.77-13t-4.77-13.16q-4.79-4.62-14.66-4.61h-7.22v35.29h8.22Q1028.51,434.51,1033.29,430Z" fill="#fff"/><path d="M1062.3,387.92h13v58h-13Z" fill="#fff"/><path d="M1103.11,399.51a5,5,0,0,0-1.86,4.07,4.58,4.58,0,0,0,2.28,4q2.28,1.5,10.55,3.53t12.82,6.11q4.57,4.06,4.57,11.87a15.68,15.68,0,0,1-5.85,12.66q-5.86,4.86-15.41,4.86-13.77,0-24.82-10.21l7.72-9.47q9.38,8.22,17.35,8.22a9.1,9.1,0,0,0,5.61-1.54,4.93,4.93,0,0,0,2-4.15,4.85,4.85,0,0,0-2.16-4.15q-2.16-1.53-8.55-3.11-10.12-2.42-14.82-6.27t-4.69-12.12q0-8.26,5.94-12.75t14.82-4.48a35.58,35.58,0,0,1,11.62,2,31,31,0,0,1,10.13,5.65l-6.56,9.46q-7.56-5.73-15.61-5.73A7.79,7.79,0,0,0,1103.11,399.51Z" fill="#fff"/><path d="M1169.17,434.51a19.12,19.12,0,0,0,15.61-7.56l8.3,8.55q-9.88,11.13-23.29,11.13t-22.09-8.47q-8.67-8.48-8.67-21.38a28.87,28.87,0,0,1,8.84-21.55,29.79,29.79,0,0,1,21.63-8.63,30.65,30.65,0,0,1,23.91,10.87l-8.05,9.14q-6.15-7.65-15.28-7.64a17.83,17.83,0,0,0-12.5,4.77q-5.19,4.78-5.19,12.87t4.9,13A16.21,16.21,0,0,0,1169.17,434.51Z" fill="#fff"/><path d="M1250.87,438a31.6,31.6,0,0,1-43.34,0,30.37,30.37,0,0,1,0-42.76,31.63,31.63,0,0,1,43.34,0,30.37,30.37,0,0,1,0,42.76Zm-4.4-21.34a19,19,0,0,0-5-13.24,16.43,16.43,0,0,0-24.5,0,20.05,20.05,0,0,0,0,26.45,16.53,16.53,0,0,0,24.5,0A18.87,18.87,0,0,0,1246.47,416.61Z" fill="#fff"/><path d="M1290.73,424.87l14.78-36.95h14l-23.33,58h-11l-23.34-58h14Z" fill="#fff"/><path d="M1368.28,387.92v11.55h-28.9v11.95h26v11.05h-26v12h29.81V446h-42.76v-58Z" fill="#fff"/><path d="M1427.81,407.19q0,13.95-11,18l14.7,20.75h-15.94l-12.87-18.51h-9V446h-13v-58h22q13.53,0,19.3,4.57T1427.81,407.19Zm-15.61,6.89q2.41-2.16,2.41-6.85c0-3.13-.83-5.27-2.49-6.44s-4.57-1.74-8.72-1.74h-9.71v17.19h9.46Q1409.79,416.24,1412.2,414.08Z" fill="#fff"/></g></g></svg>