<svg xmlns="http://www.w3.org/2000/svg" xmlns:xlink="http://www.w3.org/1999/xlink" viewBox="0 0 1500 600.3"><defs><linearGradient id="linear-gradient" x1="81.89" y1="678.89" x2="971.69" y2="174.67" gradientUnits="userSpaceOnUse"><stop offset="0.1" stop-color="#ff9558"/><stop offset="0.51" stop-color="#ffa06a"/><stop offset="1" stop-color="#ffc67b"/></linearGradient></defs><title>banAsset 4</title><g id="Layer_2" data-name="Layer 2"><g id="Layer_1-2" data-name="Layer 1"><rect y="0.3" width="1500" height="600" fill="url(#linear-gradient)"/><path d="M261.22,434.44H245.35V398.19h14.11a20.58,20.58,0,0,1,6.35.88,9.08,9.08,0,0,1,4,2.39,9.37,9.37,0,0,1,2.43,6.32q0,4.26-2.74,6.33a11.06,11.06,0,0,1-1.3.91c-.24.12-.67.32-1.3.59a9.53,9.53,0,0,1,5.37,3,8.44,8.44,0,0,1,2,5.73,9.76,9.76,0,0,1-2.6,6.69Q268.69,434.43,261.22,434.44Zm-7.78-21.57h3.84a13,13,0,0,0,5-.73c1.09-.49,1.64-1.53,1.64-3.14s-.51-2.67-1.51-3.19a11.89,11.89,0,0,0-5.08-.77h-3.89Zm0,14.72H259a12.27,12.27,0,0,0,5.21-.85,3.39,3.39,0,0,0,1.74-3.37,3.24,3.24,0,0,0-1.84-3.32,15.68,15.68,0,0,0-5.89-.81h-4.77Z" fill="#fff"/><path d="M306.49,434.44l-3.37-7.83h-15.2l-3.37,7.83H276l15.66-36.25h7.83l15.66,36.25ZM295.55,409,291,419.5h9.08Z" fill="#fff"/><path d="M342.84,416H351v12.86q-5.4,6-14.94,6a18.42,18.42,0,0,1-13.4-5.29,19.16,19.16,0,0,1,.1-26.81,18.43,18.43,0,0,1,13.33-5.39,19.73,19.73,0,0,1,13.56,5.13l-4.2,6.07a16.07,16.07,0,0,0-4.49-2.93,12.11,12.11,0,0,0-4.43-.8,10.62,10.62,0,0,0-7.78,3.13,12.53,12.53,0,0,0-.13,16.49,9.81,9.81,0,0,0,7.24,3.09,13.91,13.91,0,0,0,7-1.61Z" fill="#fff"/><path d="M366.66,405.42A3.15,3.15,0,0,0,365.5,408a2.87,2.87,0,0,0,1.42,2.52,26,26,0,0,0,6.59,2.2,18.6,18.6,0,0,1,8,3.81q2.85,2.55,2.85,7.42a9.8,9.8,0,0,1-3.65,7.91,14.6,14.6,0,0,1-9.62,3,22.29,22.29,0,0,1-15.51-6.38l4.83-5.91q5.85,5.13,10.83,5.13a5.66,5.66,0,0,0,3.5-.95,3.08,3.08,0,0,0,1.27-2.6,3,3,0,0,0-1.34-2.59,17.42,17.42,0,0,0-5.35-1.94q-6.31-1.51-9.25-3.92c-2-1.61-2.93-4.13-2.93-7.57a9.37,9.37,0,0,1,3.71-8,14.88,14.88,0,0,1,9.25-2.8,22.26,22.26,0,0,1,7.26,1.25,19.31,19.31,0,0,1,6.33,3.52L379.6,408a16,16,0,0,0-9.75-3.58A4.88,4.88,0,0,0,366.66,405.42Z" fill="#fff"/><path d="M261.22,484H245.35V447.77h14.11a20.29,20.29,0,0,1,6.35.88,9.16,9.16,0,0,1,4,2.38,9.41,9.41,0,0,1,2.43,6.33c0,2.84-.91,4.94-2.74,6.33a10.58,10.58,0,0,1-1.3.9c-.24.13-.67.32-1.3.6a9.58,9.58,0,0,1,5.37,3,8.46,8.46,0,0,1,2,5.73,9.73,9.73,0,0,1-2.6,6.69Q268.69,484,261.22,484Zm-7.78-21.57h3.84a13.07,13.07,0,0,0,5-.72c1.09-.49,1.64-1.53,1.64-3.14s-.51-2.67-1.51-3.19a11.86,11.86,0,0,0-5.08-.78h-3.89Zm0,14.73H259a12.24,12.24,0,0,0,5.21-.86,3.38,3.38,0,0,0,1.74-3.37,3.26,3.26,0,0,0-1.84-3.32,15.94,15.94,0,0,0-5.89-.8h-4.77Z" fill="none" stroke="#fff" stroke-miterlimit="10" stroke-width="2.07"/><path d="M306.49,484l-3.37-7.83h-15.2L284.55,484H276l15.66-36.24h7.83L315.1,484Zm-10.94-25.46L291,469.08h9.08Z" fill="none" stroke="#fff" stroke-miterlimit="10" stroke-width="2.07"/><path d="M342.84,465.55H351v12.86q-5.4,6-14.94,6a18.42,18.42,0,0,1-13.4-5.29,19.16,19.16,0,0,1,.1-26.81,18.43,18.43,0,0,1,13.33-5.39,19.73,19.73,0,0,1,13.56,5.13l-4.2,6.07a16.07,16.07,0,0,0-4.49-2.93,11.91,11.91,0,0,0-4.43-.8,10.62,10.62,0,0,0-7.78,3.13A12.53,12.53,0,0,0,328.6,474a9.81,9.81,0,0,0,7.24,3.09,13.91,13.91,0,0,0,7-1.61Z" fill="none" stroke="#fff" stroke-miterlimit="10" stroke-width="2.07"/><path d="M366.66,455a3.15,3.15,0,0,0-1.16,2.54,2.88,2.88,0,0,0,1.42,2.52q1.43.93,6.59,2.2a18.6,18.6,0,0,1,8,3.81q2.85,2.55,2.85,7.42a9.78,9.78,0,0,1-3.65,7.9q-3.66,3-9.62,3a22.29,22.29,0,0,1-15.51-6.38l4.83-5.91q5.85,5.13,10.83,5.13a5.66,5.66,0,0,0,3.5-1,3.07,3.07,0,0,0,1.27-2.59,3,3,0,0,0-1.34-2.59,17.63,17.63,0,0,0-5.35-1.95q-6.31-1.5-9.25-3.91c-2-1.61-2.93-4.13-2.93-7.57a9.37,9.37,0,0,1,3.71-8,14.88,14.88,0,0,1,9.25-2.8,22.25,22.25,0,0,1,7.26,1.24,19.52,19.52,0,0,1,6.33,3.53l-4.1,5.91a15.93,15.93,0,0,0-9.75-3.58A4.88,4.88,0,0,0,366.66,455Z" fill="none" stroke="#fff" stroke-miterlimit="10" stroke-width="2.07"/><path d="M261.22,533.59H245.35V497.35h14.11a20.29,20.29,0,0,1,6.35.88,9.07,9.07,0,0,1,4,2.38,9.41,9.41,0,0,1,2.43,6.33q0,4.24-2.74,6.32a9.91,9.91,0,0,1-1.3.91c-.24.12-.67.32-1.3.6a9.46,9.46,0,0,1,5.37,3,8.46,8.46,0,0,1,2,5.73,9.76,9.76,0,0,1-2.6,6.69Q268.69,533.6,261.22,533.59ZM253.44,512h3.84a12.84,12.84,0,0,0,5-.73c1.09-.48,1.64-1.53,1.64-3.13s-.51-2.67-1.51-3.19a11.86,11.86,0,0,0-5.08-.78h-3.89Zm0,14.73H259a12.24,12.24,0,0,0,5.21-.86,3.38,3.38,0,0,0,1.74-3.37,3.25,3.25,0,0,0-1.84-3.32,15.94,15.94,0,0,0-5.89-.8h-4.77Z" fill="#fff"/><path d="M306.49,533.59l-3.37-7.83h-15.2l-3.37,7.83H276l15.66-36.24h7.83l15.66,36.24Zm-10.94-25.46L291,518.66h9.08Z" fill="#fff"/><path d="M342.84,515.13H351V528q-5.4,6-14.94,6a18.46,18.46,0,0,1-13.4-5.29,19.16,19.16,0,0,1,.1-26.81,18.39,18.39,0,0,1,13.33-5.39,19.73,19.73,0,0,1,13.56,5.13l-4.2,6.07a15.84,15.84,0,0,0-4.49-2.93,11.91,11.91,0,0,0-4.43-.81,10.63,10.63,0,0,0-7.78,3.14,12.53,12.53,0,0,0-.13,16.49,9.8,9.8,0,0,0,7.24,3.08,13.92,13.92,0,0,0,7-1.6Z" fill="#fff"/><path d="M366.66,504.58a3.15,3.15,0,0,0-1.16,2.54,2.86,2.86,0,0,0,1.42,2.51c.95.63,3.15,1.36,6.59,2.21a18.6,18.6,0,0,1,8,3.81c1.9,1.69,2.85,4.17,2.85,7.41a9.8,9.8,0,0,1-3.65,7.91,14.61,14.61,0,0,1-9.62,3,22.29,22.29,0,0,1-15.51-6.38l4.83-5.91q5.85,5.13,10.83,5.13a5.66,5.66,0,0,0,3.5-1A3.07,3.07,0,0,0,376,523.3a3,3,0,0,0-1.34-2.59,17.63,17.63,0,0,0-5.35-2q-6.31-1.5-9.25-3.91c-2-1.61-2.93-4.13-2.93-7.57a9.36,9.36,0,0,1,3.71-8,14.88,14.88,0,0,1,9.25-2.8,22.25,22.25,0,0,1,7.26,1.24,19.52,19.52,0,0,1,6.33,3.53l-4.1,5.91a15.93,15.93,0,0,0-9.75-3.58A4.88,4.88,0,0,0,366.66,504.58Z" fill="#fff"/><path d="M261.22,583.17H245.35V546.92h14.11a20.58,20.58,0,0,1,6.35.88,9.17,9.17,0,0,1,4,2.39,9.39,9.39,0,0,1,2.43,6.33q0,4.25-2.74,6.32a9.91,9.91,0,0,1-1.3.91c-.24.12-.67.32-1.3.59a9.53,9.53,0,0,1,5.37,3,8.46,8.46,0,0,1,2,5.73,9.76,9.76,0,0,1-2.6,6.69Q268.69,583.16,261.22,583.17Zm-7.78-21.57h3.84a12.84,12.84,0,0,0,5-.73c1.09-.48,1.64-1.53,1.64-3.14s-.51-2.67-1.51-3.18a11.86,11.86,0,0,0-5.08-.78h-3.89Zm0,14.72H259a12.27,12.27,0,0,0,5.21-.85,3.39,3.39,0,0,0,1.74-3.37,3.25,3.25,0,0,0-1.84-3.32,15.68,15.68,0,0,0-5.89-.81h-4.77Z" fill="none" stroke="#fff" stroke-miterlimit="10" stroke-width="2.07"/><path d="M306.49,583.17l-3.37-7.83h-15.2l-3.37,7.83H276l15.66-36.25h7.83l15.66,36.25Zm-10.94-25.46L291,568.23h9.08Z" fill="none" stroke="#fff" stroke-miterlimit="10" stroke-width="2.07"/><path d="M342.84,564.71H351v12.86q-5.4,6-14.94,6a18.42,18.42,0,0,1-13.4-5.29,19.15,19.15,0,0,1,.1-26.8,18.4,18.4,0,0,1,13.33-5.4,19.69,19.69,0,0,1,13.56,5.14l-4.2,6.06a16.3,16.3,0,0,0-4.49-2.93,12.11,12.11,0,0,0-4.43-.8,10.63,10.63,0,0,0-7.78,3.14,12.53,12.53,0,0,0-.13,16.49,9.84,9.84,0,0,0,7.24,3.08,13.81,13.81,0,0,0,7-1.61Z" fill="none" stroke="#fff" stroke-miterlimit="10" stroke-width="2.07"/><path d="M366.66,554.16a3.13,3.13,0,0,0-1.16,2.54,2.86,2.86,0,0,0,1.42,2.51,26.26,26.26,0,0,0,6.59,2.21,18.37,18.37,0,0,1,8,3.81q2.85,2.53,2.85,7.41a9.8,9.8,0,0,1-3.65,7.91,14.6,14.6,0,0,1-9.62,3,22.24,22.24,0,0,1-15.51-6.38l4.83-5.91q5.85,5.15,10.83,5.14a5.66,5.66,0,0,0,3.5-1,3.08,3.08,0,0,0,1.27-2.59,3,3,0,0,0-1.34-2.6,17.69,17.69,0,0,0-5.35-1.94q-6.31-1.5-9.25-3.92c-2-1.6-2.93-4.13-2.93-7.57a9.37,9.37,0,0,1,3.71-8,14.94,14.94,0,0,1,9.25-2.8,22.26,22.26,0,0,1,7.26,1.25,19.5,19.5,0,0,1,6.33,3.52l-4.1,5.91a16,16,0,0,0-9.75-3.57A4.88,4.88,0,0,0,366.66,554.16Z" fill="none" stroke="#fff" stroke-miterlimit="10" stroke-width="2.07"/><path d="M31,192.59a12.42,12.42,0,0,0,10.15-4.92l5.4,5.57q-6.42,7.23-15.15,7.24A19.76,19.76,0,0,1,17.07,195,20,20,0,0,1,17.18,167a19.37,19.37,0,0,1,14.07-5.62,19.94,19.94,0,0,1,15.56,7.08l-5.24,5.94a12.3,12.3,0,0,0-9.94-5,11.54,11.54,0,0,0-8.13,3.11A10.81,10.81,0,0,0,20.13,181a11.43,11.43,0,0,0,3.18,8.45A10.51,10.51,0,0,0,31,192.59Z" fill="none" stroke="#fff" stroke-miterlimit="10" stroke-width="2.16"/><path d="M53.24,200V162.29h8.42v30.24h16.1V200Z" fill="none" stroke="#fff" stroke-miterlimit="10" stroke-width="2.16"/><path d="M114.65,194.83a20.57,20.57,0,0,1-28.19,0,19.75,19.75,0,0,1,0-27.82,20.57,20.57,0,0,1,28.19,0,19.75,19.75,0,0,1,0,27.82ZM111.79,181a12.37,12.37,0,0,0-3.24-8.62,10.7,10.7,0,0,0-15.94,0,13,13,0,0,0,0,17.21,10.76,10.76,0,0,0,15.94,0A12.26,12.26,0,0,0,111.79,181Z" fill="none" stroke="#fff" stroke-miterlimit="10" stroke-width="2.16"/><path d="M142.47,169.58V200H134V169.58H123.35v-7.29h29.82v7.29Z" fill="none" stroke="#fff" stroke-miterlimit="10" stroke-width="2.16"/><path d="M182.77,162.29h8.42V200h-8.42V185.19h-15V200h-8.43V162.29h8.43v15.77h15Z" fill="none" stroke="#fff" stroke-miterlimit="10" stroke-width="2.16"/><path d="M227.71,162.29v7.5h-18.8v7.78h16.91v7.19H208.91v7.83H228.3V200H200.48V162.29Z" fill="none" stroke="#fff" stroke-miterlimit="10" stroke-width="2.16"/><path d="M244.64,169.82a3.26,3.26,0,0,0-1.21,2.65,3,3,0,0,0,1.48,2.62q1.49,1,6.86,2.29a19.48,19.48,0,0,1,8.35,4c2,1.77,3,4.34,3,7.73a10.18,10.18,0,0,1-3.81,8.23q-3.81,3.16-10,3.17a23.19,23.19,0,0,1-16.15-6.65l5-6.16q6.1,5.36,11.29,5.35a5.91,5.91,0,0,0,3.65-1,3.36,3.36,0,0,0-.08-5.4,18.37,18.37,0,0,0-5.57-2q-6.58-1.56-9.64-4.07t-3.05-7.89a9.78,9.78,0,0,1,3.86-8.29,15.52,15.52,0,0,1,9.64-2.92,23.09,23.09,0,0,1,7.57,1.3,20.34,20.34,0,0,1,6.59,3.67l-4.27,6.16A16.6,16.6,0,0,0,248,168.82,5.06,5.06,0,0,0,244.64,169.82Z" fill="none" stroke="#fff" stroke-miterlimit="10" stroke-width="2.16"/><path d="M31,138.92A12.42,12.42,0,0,0,41.19,134l5.4,5.57q-6.42,7.23-15.15,7.23a19.72,19.72,0,0,1-14.37-5.51,18.6,18.6,0,0,1-5.64-13.9,18.81,18.81,0,0,1,5.75-14,19.37,19.37,0,0,1,14.07-5.62,19.94,19.94,0,0,1,15.56,7.08l-5.24,5.94a12.3,12.3,0,0,0-9.94-5,11.54,11.54,0,0,0-8.13,3.11,10.81,10.81,0,0,0-3.37,8.37,11.43,11.43,0,0,0,3.18,8.45A10.51,10.51,0,0,0,31,138.92Z" fill="#fff"/><path d="M53.24,146.37V108.61h8.42v30.25h16.1v7.51Z" fill="#fff"/><path d="M114.65,141.16a20.57,20.57,0,0,1-28.19,0,19.75,19.75,0,0,1,0-27.82,20.57,20.57,0,0,1,28.19,0,19.75,19.75,0,0,1,0,27.82Zm-2.86-13.88a12.37,12.37,0,0,0-3.24-8.62,10.7,10.7,0,0,0-15.94,0,13,13,0,0,0,0,17.21,10.76,10.76,0,0,0,15.94,0A12.26,12.26,0,0,0,111.79,127.28Z" fill="#fff"/><path d="M142.47,115.91v30.46H134V115.91H123.35v-7.3h29.82v7.3Z" fill="#fff"/><path d="M182.77,108.61h8.42v37.76h-8.42V131.52h-15v14.85h-8.43V108.61h8.43v15.78h15Z" fill="#fff"/><path d="M227.71,108.61v7.51h-18.8v7.78h16.91v7.19H208.91v7.83H228.3v7.45H200.48V108.61Z" fill="#fff"/><path d="M244.64,116.15a3.26,3.26,0,0,0-1.21,2.65,3,3,0,0,0,1.48,2.62c1,.64,3.28,1.41,6.86,2.29a19.37,19.37,0,0,1,8.35,4c2,1.77,3,4.34,3,7.73a10.18,10.18,0,0,1-3.81,8.23q-3.81,3.17-10,3.16a23.18,23.18,0,0,1-16.15-6.64l5-6.16q6.1,5.35,11.29,5.35a5.91,5.91,0,0,0,3.65-1,3.21,3.21,0,0,0,1.32-2.7A3.17,3.17,0,0,0,253,133a18.37,18.37,0,0,0-5.57-2q-6.58-1.56-9.64-4.07T234.73,119a9.78,9.78,0,0,1,3.86-8.29,15.52,15.52,0,0,1,9.64-2.92,23.09,23.09,0,0,1,7.57,1.3,20.34,20.34,0,0,1,6.59,3.67l-4.27,6.16A16.6,16.6,0,0,0,248,115.15,5.06,5.06,0,0,0,244.64,116.15Z" fill="#fff"/><path d="M31,93a12.42,12.42,0,0,0,10.15-4.92l5.4,5.56q-6.42,7.24-15.15,7.24A19.72,19.72,0,0,1,17.07,95.4a18.62,18.62,0,0,1-5.64-13.91,18.78,18.78,0,0,1,5.75-14,19.37,19.37,0,0,1,14.07-5.62,20,20,0,0,1,15.56,7.07l-5.24,5.95a12.27,12.27,0,0,0-9.94-5A11.58,11.58,0,0,0,23.5,73a10.82,10.82,0,0,0-3.37,8.38,11.44,11.44,0,0,0,3.18,8.45A10.55,10.55,0,0,0,31,93Z" fill="none" stroke="#fff" stroke-miterlimit="10" stroke-width="2.16"/><path d="M53.24,100.48V62.72h8.42V93h16.1v7.51Z" fill="none" stroke="#fff" stroke-miterlimit="10" stroke-width="2.16"/><path d="M114.65,95.27a20.57,20.57,0,0,1-28.19,0,18.66,18.66,0,0,1-5.73-13.91,18.64,18.64,0,0,1,5.73-13.91,20.57,20.57,0,0,1,28.19,0,18.64,18.64,0,0,1,5.73,13.91A18.66,18.66,0,0,1,114.65,95.27Zm-2.86-13.88a12.37,12.37,0,0,0-3.24-8.62,10.68,10.68,0,0,0-15.94,0,12.37,12.37,0,0,0-3.24,8.62A12.24,12.24,0,0,0,92.61,90a10.74,10.74,0,0,0,15.94,0A12.24,12.24,0,0,0,111.79,81.39Z" fill="none" stroke="#fff" stroke-miterlimit="10" stroke-width="2.16"/><path d="M142.47,70v30.47H134V70H123.35V62.72h29.82V70Z" fill="none" stroke="#fff" stroke-miterlimit="10" stroke-width="2.16"/><path d="M182.77,62.72h8.42v37.76h-8.42V85.63h-15v14.85h-8.43V62.72h8.43V78.5h15Z" fill="none" stroke="#fff" stroke-miterlimit="10" stroke-width="2.16"/><path d="M227.71,62.72v7.51h-18.8V78h16.91v7.18H208.91V93H228.3v7.45H200.48V62.72Z" fill="none" stroke="#fff" stroke-miterlimit="10" stroke-width="2.16"/><path d="M244.64,70.26a3.26,3.26,0,0,0-1.21,2.64,3,3,0,0,0,1.48,2.62q1.49,1,6.86,2.3a19.37,19.37,0,0,1,8.35,4q3,2.65,3,7.72a10.18,10.18,0,0,1-3.81,8.24q-3.81,3.16-10,3.16a23.18,23.18,0,0,1-16.15-6.64l5-6.16q6.1,5.34,11.29,5.35a5.91,5.91,0,0,0,3.65-1,3.22,3.22,0,0,0,1.32-2.7,3.14,3.14,0,0,0-1.4-2.7,18.37,18.37,0,0,0-5.57-2q-6.58-1.56-9.64-4.08t-3.05-7.88a9.77,9.77,0,0,1,3.86-8.29,15.52,15.52,0,0,1,9.64-2.92,23.09,23.09,0,0,1,7.57,1.3,20.15,20.15,0,0,1,6.59,3.67L258.12,73A16.6,16.6,0,0,0,248,69.26,5.06,5.06,0,0,0,244.64,70.26Z" fill="none" stroke="#fff" stroke-miterlimit="10" stroke-width="2.16"/><path d="M31,39.35a12.41,12.41,0,0,0,10.15-4.91L46.59,40q-6.42,7.24-15.15,7.24a19.72,19.72,0,0,1-14.37-5.51,18.62,18.62,0,0,1-5.64-13.91,18.78,18.78,0,0,1,5.75-14A19.37,19.37,0,0,1,31.25,8.19a20,20,0,0,1,15.56,7.07l-5.24,6a12.27,12.27,0,0,0-9.94-5,11.58,11.58,0,0,0-8.13,3.1,10.81,10.81,0,0,0-3.37,8.37,11.45,11.45,0,0,0,3.18,8.46A10.54,10.54,0,0,0,31,39.35Z" fill="#fff"/><path d="M53.24,46.81V9.05h8.42V39.3h16.1v7.51Z" fill="#fff"/><path d="M114.65,41.6a20.57,20.57,0,0,1-28.19,0,18.66,18.66,0,0,1-5.73-13.91,18.64,18.64,0,0,1,5.73-13.91,20.57,20.57,0,0,1,28.19,0,18.64,18.64,0,0,1,5.73,13.91A18.66,18.66,0,0,1,114.65,41.6Zm-2.86-13.89a12.36,12.36,0,0,0-3.24-8.61,10.68,10.68,0,0,0-15.94,0,12.36,12.36,0,0,0-3.24,8.61,12.26,12.26,0,0,0,3.24,8.59,10.74,10.74,0,0,0,15.94,0A12.26,12.26,0,0,0,111.79,27.71Z" fill="#fff"/><path d="M142.47,16.34V46.81H134V16.34H123.35V9.05h29.82v7.29Z" fill="#fff"/><path d="M182.77,9.05h8.42V46.81h-8.42V32h-15V46.81h-8.43V9.05h8.43V24.83h15Z" fill="#fff"/><path d="M227.71,9.05v7.51h-18.8v7.78h16.91v7.18H208.91v7.83H228.3v7.46H200.48V9.05Z" fill="#fff"/><path d="M244.64,16.59a3.24,3.24,0,0,0-1.21,2.64,3,3,0,0,0,1.48,2.62q1.49,1,6.86,2.3a19.37,19.37,0,0,1,8.35,4q3,2.65,3,7.72a10.18,10.18,0,0,1-3.81,8.24q-3.81,3.16-10,3.16a23.18,23.18,0,0,1-16.15-6.64l5-6.16q6.1,5.34,11.29,5.35a5.91,5.91,0,0,0,3.65-1,3.22,3.22,0,0,0,1.32-2.7,3.14,3.14,0,0,0-1.4-2.7,18.37,18.37,0,0,0-5.57-2q-6.58-1.56-9.64-4.08t-3.05-7.88a9.8,9.8,0,0,1,3.86-8.3,15.58,15.58,0,0,1,9.64-2.91,23.34,23.34,0,0,1,7.57,1.29,20.36,20.36,0,0,1,6.59,3.68l-4.27,6.15A16.65,16.65,0,0,0,248,15.59,5.06,5.06,0,0,0,244.64,16.59Z" fill="#fff"/><path d="M559.6,425.82a6.67,6.67,0,0,1-5.05-2,7.56,7.56,0,0,1-1.95-5.45v-.48a9.14,9.14,0,0,1,.87-4.06A6.76,6.76,0,0,1,555.9,411a6.08,6.08,0,0,1,3.37-1,5.71,5.71,0,0,1,4.63,2,8.5,8.5,0,0,1,1.65,5.62v1.08H555.21a5.45,5.45,0,0,0,1.32,3.65,4.13,4.13,0,0,0,3.21,1.39,4.51,4.51,0,0,0,2.34-.57,5.79,5.79,0,0,0,1.68-1.49l1.59,1.24A6.38,6.38,0,0,1,559.6,425.82Zm-.33-13.69a3.51,3.51,0,0,0-2.65,1.15,5.66,5.66,0,0,0-1.32,3.23h7.64v-.2a4.92,4.92,0,0,0-1.07-3.08A3.28,3.28,0,0,0,559.27,412.13Z" fill="#fff"/><path d="M573.69,415.85l3.39-5.58h3l-5,7.55,5.15,7.72h-3l-3.53-5.72-3.52,5.72h-3l5.14-7.72-5-7.55h3Z" fill="#fff"/><path d="M595.78,418.07a9.16,9.16,0,0,1-1.59,5.62,5.11,5.11,0,0,1-4.32,2.13,5.61,5.61,0,0,1-4.37-1.76v7.35h-2.61V410.27h2.38l.13,1.7a5.37,5.37,0,0,1,4.43-2,5.19,5.19,0,0,1,4.35,2.07,9.25,9.25,0,0,1,1.6,5.77Zm-2.6-.29a6.72,6.72,0,0,0-1.11-4.08,3.52,3.52,0,0,0-3-1.49,3.84,3.84,0,0,0-3.56,2.1v7.29a3.85,3.85,0,0,0,3.58,2.09,3.55,3.55,0,0,0,3-1.49A7.35,7.35,0,0,0,593.18,417.78Z" fill="#fff"/><path d="M601.94,425.54h-2.61V403.87h2.61Z" fill="#fff"/><path d="M605.42,417.76a9,9,0,0,1,.88-4,6.58,6.58,0,0,1,2.46-2.77,6.72,6.72,0,0,1,3.59-1,6.42,6.42,0,0,1,5,2.16,8.32,8.32,0,0,1,1.93,5.74v.18a9.07,9.07,0,0,1-.86,4,6.49,6.49,0,0,1-2.44,2.76,6.73,6.73,0,0,1-3.64,1,6.41,6.41,0,0,1-5-2.16,8.23,8.23,0,0,1-1.93-5.71Zm2.62.31a6.55,6.55,0,0,0,1.18,4.08,4,4,0,0,0,6.32,0,7.14,7.14,0,0,0,1.17-4.37,6.5,6.5,0,0,0-1.2-4.07,4,4,0,0,0-6.28,0A7.09,7.09,0,0,0,608,418.07Z" fill="#fff"/><path d="M630,412.61a8.71,8.71,0,0,0-1.29-.09,3.43,3.43,0,0,0-3.48,2.18v10.84h-2.61V410.27h2.54l0,1.77a4.06,4.06,0,0,1,3.64-2.05,2.72,2.72,0,0,1,1.16.2Z" fill="#fff"/><path d="M638.43,425.82a6.67,6.67,0,0,1-5-2,7.56,7.56,0,0,1-2-5.45v-.48a9.14,9.14,0,0,1,.87-4.06,6.76,6.76,0,0,1,2.43-2.79,6.11,6.11,0,0,1,3.38-1,5.7,5.7,0,0,1,4.62,2,8.45,8.45,0,0,1,1.65,5.62v1.08H634a5.45,5.45,0,0,0,1.32,3.65,4.13,4.13,0,0,0,3.21,1.39,4.51,4.51,0,0,0,2.34-.57,5.79,5.79,0,0,0,1.68-1.49l1.6,1.24A6.41,6.41,0,0,1,638.43,425.82Zm-.32-13.69a3.48,3.48,0,0,0-2.65,1.15,5.6,5.6,0,0,0-1.33,3.23h7.64v-.2a4.92,4.92,0,0,0-1.07-3.08A3.27,3.27,0,0,0,638.11,412.13Z" fill="#fff"/><path d="M664,425.54a5.7,5.7,0,0,1-.37-1.61,5.81,5.81,0,0,1-4.34,1.89,5.41,5.41,0,0,1-3.71-1.28,4.14,4.14,0,0,1-1.44-3.24,4.32,4.32,0,0,1,1.81-3.7,8.55,8.55,0,0,1,5.1-1.32h2.54v-1.2a2.93,2.93,0,0,0-.82-2.18,3.28,3.28,0,0,0-2.41-.81,3.81,3.81,0,0,0-2.34.71,2.08,2.08,0,0,0-1,1.7h-2.62a3.59,3.59,0,0,1,.81-2.2,5.57,5.57,0,0,1,2.2-1.69,7.5,7.5,0,0,1,3.06-.62,6,6,0,0,1,4.13,1.32,4.75,4.75,0,0,1,1.55,3.63v7a8.53,8.53,0,0,0,.54,3.34v.23Zm-4.33-2a4.55,4.55,0,0,0,2.33-.64,3.82,3.82,0,0,0,1.59-1.65v-3.13h-2q-4.8,0-4.8,2.81a2.36,2.36,0,0,0,.82,1.92A3.13,3.13,0,0,0,659.65,423.55Z" fill="#fff"/><path d="M679.89,410.27l.09,1.92a5.55,5.55,0,0,1,4.57-2.2q4.83,0,4.88,5.46v10.09h-2.61v-10.1a3.57,3.57,0,0,0-.75-2.45,3.07,3.07,0,0,0-2.31-.78,3.77,3.77,0,0,0-2.23.67,4.65,4.65,0,0,0-1.5,1.78v10.88h-2.61V410.27Z" fill="#fff"/><path d="M699.7,425.82a6.67,6.67,0,0,1-5.05-2,7.56,7.56,0,0,1-1.95-5.45v-.48a9.14,9.14,0,0,1,.87-4.06A6.76,6.76,0,0,1,696,411a6.11,6.11,0,0,1,3.38-1,5.7,5.7,0,0,1,4.62,2,8.5,8.5,0,0,1,1.65,5.62v1.08H695.31a5.45,5.45,0,0,0,1.32,3.65,4.13,4.13,0,0,0,3.21,1.39,4.51,4.51,0,0,0,2.34-.57,5.79,5.79,0,0,0,1.68-1.49l1.6,1.24A6.41,6.41,0,0,1,699.7,425.82Zm-.32-13.69a3.52,3.52,0,0,0-2.66,1.15,5.66,5.66,0,0,0-1.32,3.23H703v-.2a4.92,4.92,0,0,0-1.07-3.08A3.27,3.27,0,0,0,699.38,412.13Z" fill="#fff"/><path d="M722.19,421.94l2.93-11.67h2.61l-4.44,15.27h-2.12L717.46,414l-3.61,11.57h-2.12l-4.43-15.27h2.6l3,11.43,3.56-11.43h2.1Z" fill="#fff"/><path d="M746.42,421.49a1.94,1.94,0,0,0-.79-1.65,7.74,7.74,0,0,0-2.78-1,13.38,13.38,0,0,1-3.15-1,4.51,4.51,0,0,1-1.72-1.41,3.41,3.41,0,0,1-.56-2,3.94,3.94,0,0,1,1.59-3.17,6.18,6.18,0,0,1,4.06-1.3,6.4,6.4,0,0,1,4.21,1.34,4.27,4.27,0,0,1,1.61,3.43h-2.62a2.35,2.35,0,0,0-.91-1.85,3.4,3.4,0,0,0-2.29-.78,3.52,3.52,0,0,0-2.23.63,1.94,1.94,0,0,0-.81,1.62,1.57,1.57,0,0,0,.75,1.42,9.16,9.16,0,0,0,2.7.92,14.34,14.34,0,0,1,3.17,1,4.65,4.65,0,0,1,1.8,1.46,3.61,3.61,0,0,1,.58,2.08,3.89,3.89,0,0,1-1.63,3.28,6.83,6.83,0,0,1-4.25,1.24,7.71,7.71,0,0,1-3.24-.65,5.3,5.3,0,0,1-2.21-1.81,4.4,4.4,0,0,1-.8-2.52h2.61a2.72,2.72,0,0,0,1,2.08,4.11,4.11,0,0,0,2.59.77,4.22,4.22,0,0,0,2.38-.6A1.83,1.83,0,0,0,746.42,421.49Z" fill="#fff"/><path d="M758.77,425.82a6.65,6.65,0,0,1-5-2,7.56,7.56,0,0,1-2-5.45v-.48a9.14,9.14,0,0,1,.87-4.06,6.73,6.73,0,0,1,2.42-2.79,6.14,6.14,0,0,1,3.38-1,5.71,5.71,0,0,1,4.63,2,8.5,8.5,0,0,1,1.65,5.62v1.08H754.38a5.45,5.45,0,0,0,1.32,3.65,4.13,4.13,0,0,0,3.21,1.39,4.51,4.51,0,0,0,2.34-.57,5.79,5.79,0,0,0,1.68-1.49l1.59,1.24A6.39,6.39,0,0,1,758.77,425.82Zm-.33-13.69a3.51,3.51,0,0,0-2.65,1.15,5.59,5.59,0,0,0-1.32,3.23h7.64v-.2a4.92,4.92,0,0,0-1.07-3.08A3.29,3.29,0,0,0,758.44,412.13Z" fill="#fff"/><path d="M770.21,410.27l.08,1.92a5.56,5.56,0,0,1,4.57-2.2q4.85,0,4.89,5.46v10.09h-2.62v-10.1a3.52,3.52,0,0,0-.75-2.45,3,3,0,0,0-2.31-.78,3.79,3.79,0,0,0-2.23.67,4.72,4.72,0,0,0-1.49,1.78v10.88h-2.61V410.27Z" fill="#fff"/><path d="M792.57,421.49a2,2,0,0,0-.8-1.65,7.67,7.67,0,0,0-2.78-1,13.12,13.12,0,0,1-3.14-1,4.43,4.43,0,0,1-1.72-1.41,3.34,3.34,0,0,1-.56-2,3.94,3.94,0,0,1,1.59-3.17,6.15,6.15,0,0,1,4.05-1.3,6.38,6.38,0,0,1,4.21,1.34,4.25,4.25,0,0,1,1.62,3.43h-2.63a2.35,2.35,0,0,0-.91-1.85,3.38,3.38,0,0,0-2.29-.78,3.54,3.54,0,0,0-2.23.63,2,2,0,0,0-.8,1.62,1.57,1.57,0,0,0,.75,1.42,8.94,8.94,0,0,0,2.7.92,14.34,14.34,0,0,1,3.17,1,4.69,4.69,0,0,1,1.79,1.46,3.61,3.61,0,0,1,.59,2.08,3.9,3.9,0,0,1-1.64,3.28,6.8,6.8,0,0,1-4.24,1.24,7.73,7.73,0,0,1-3.25-.65,5.36,5.36,0,0,1-2.21-1.81,4.39,4.39,0,0,1-.79-2.52h2.61a2.66,2.66,0,0,0,1.05,2.08,4.07,4.07,0,0,0,2.59.77,4.18,4.18,0,0,0,2.37-.6A1.84,1.84,0,0,0,792.57,421.49Z" fill="#fff"/><path d="M804.91,425.82a6.67,6.67,0,0,1-5-2,7.56,7.56,0,0,1-1.94-5.45v-.48a9.28,9.28,0,0,1,.86-4.06,6.76,6.76,0,0,1,2.43-2.79,6.14,6.14,0,0,1,3.38-1,5.72,5.72,0,0,1,4.63,2,8.5,8.5,0,0,1,1.65,5.62v1.08H800.53a5.4,5.4,0,0,0,1.31,3.65,4.16,4.16,0,0,0,3.21,1.39,4.52,4.52,0,0,0,2.35-.57,5.75,5.75,0,0,0,1.67-1.49l1.6,1.24A6.41,6.41,0,0,1,804.91,425.82Zm-.32-13.69a3.5,3.5,0,0,0-2.65,1.15,5.6,5.6,0,0,0-1.33,3.23h7.65v-.2a5,5,0,0,0-1.08-3.08A3.27,3.27,0,0,0,804.59,412.13Z" fill="#fff"/><path d="M820.35,417.76a9,9,0,0,1,.88-4,6.56,6.56,0,0,1,2.45-2.77,6.77,6.77,0,0,1,3.59-1,6.46,6.46,0,0,1,5.05,2.16,8.31,8.31,0,0,1,1.92,5.74v.18a9.07,9.07,0,0,1-.85,4,6.49,6.49,0,0,1-2.44,2.76,6.77,6.77,0,0,1-3.65,1,6.43,6.43,0,0,1-5-2.16,8.27,8.27,0,0,1-1.92-5.71Zm2.62.31a6.49,6.49,0,0,0,1.18,4.08,4,4,0,0,0,6.31,0,7.14,7.14,0,0,0,1.17-4.37,6.56,6.56,0,0,0-1.19-4.07,4,4,0,0,0-6.28,0A7.09,7.09,0,0,0,823,418.07Z" fill="#fff"/><path d="M838.8,425.54V412.29h-2.41v-2h2.41v-1.56a5.23,5.23,0,0,1,1.31-3.8,5,5,0,0,1,3.71-1.34,6.83,6.83,0,0,1,1.79.24l-.14,2.1a7.88,7.88,0,0,0-1.41-.12,2.53,2.53,0,0,0-2,.74,3,3,0,0,0-.69,2.13v1.61h3.26v2h-3.26v13.25Z" fill="#fff"/><path d="M856,425.54V412.29h-2.41v-2H856v-1.56a5.23,5.23,0,0,1,1.31-3.8,5,5,0,0,1,3.71-1.34,6.9,6.9,0,0,1,1.8.24l-.15,2.1a7.88,7.88,0,0,0-1.41-.12,2.53,2.53,0,0,0-2,.74,3,3,0,0,0-.69,2.13v1.61h3.26v2h-3.26v13.25Z" fill="#fff"/><path d="M874.15,425.54a5.43,5.43,0,0,1-.36-1.61,5.85,5.85,0,0,1-4.35,1.89,5.37,5.37,0,0,1-3.7-1.28,4.11,4.11,0,0,1-1.45-3.24,4.32,4.32,0,0,1,1.81-3.7,8.55,8.55,0,0,1,5.1-1.32h2.54v-1.2a3,3,0,0,0-.81-2.18,3.32,3.32,0,0,0-2.42-.81,3.81,3.81,0,0,0-2.34.71,2.08,2.08,0,0,0-.95,1.7H864.6a3.59,3.59,0,0,1,.81-2.2,5.64,5.64,0,0,1,2.2-1.69,7.5,7.5,0,0,1,3.06-.62,6,6,0,0,1,4.13,1.32,4.75,4.75,0,0,1,1.55,3.63v7a8.53,8.53,0,0,0,.54,3.34v.23Zm-4.33-2a4.52,4.52,0,0,0,2.33-.64,3.82,3.82,0,0,0,1.59-1.65v-3.13h-2q-4.8,0-4.8,2.81a2.36,2.36,0,0,0,.82,1.92A3.14,3.14,0,0,0,869.82,423.55Z" fill="#fff"/><path d="M889.33,421.49a1.92,1.92,0,0,0-.8-1.65,7.6,7.6,0,0,0-2.77-1,13.07,13.07,0,0,1-3.15-1,4.43,4.43,0,0,1-1.72-1.41,3.41,3.41,0,0,1-.56-2,3.94,3.94,0,0,1,1.59-3.17A6.17,6.17,0,0,1,886,410a6.38,6.38,0,0,1,4.21,1.34,4.25,4.25,0,0,1,1.62,3.43h-2.62a2.38,2.38,0,0,0-.91-1.85,3.41,3.41,0,0,0-2.3-.78,3.49,3.49,0,0,0-2.22.63,1.94,1.94,0,0,0-.81,1.62,1.57,1.57,0,0,0,.75,1.42,9.16,9.16,0,0,0,2.7.92,14.34,14.34,0,0,1,3.17,1,4.65,4.65,0,0,1,1.8,1.46,3.61,3.61,0,0,1,.58,2.08,3.88,3.88,0,0,1-1.64,3.28,6.8,6.8,0,0,1-4.24,1.24,7.76,7.76,0,0,1-3.25-.65,5.27,5.27,0,0,1-2.2-1.81,4.33,4.33,0,0,1-.8-2.52h2.61a2.72,2.72,0,0,0,1.05,2.08,4.09,4.09,0,0,0,2.59.77,4.22,4.22,0,0,0,2.38-.6A1.85,1.85,0,0,0,889.33,421.49Z" fill="#fff"/><path d="M898,412.12a5.55,5.55,0,0,1,4.52-2.13q4.83,0,4.88,5.46v10.09h-2.61v-10.1A3.52,3.52,0,0,0,904,413a3,3,0,0,0-2.3-.78,3.77,3.77,0,0,0-2.23.67,4.65,4.65,0,0,0-1.5,1.78v10.88h-2.61V403.87H898Z" fill="#fff"/><path d="M911.27,406.22a1.55,1.55,0,0,1,.39-1.07,1.72,1.72,0,0,1,2.3,0,1.51,1.51,0,0,1,.4,1.07,1.46,1.46,0,0,1-.4,1.06,1.54,1.54,0,0,1-2.69-1.06Zm2.82,19.32h-2.61V410.27h2.61Z" fill="#fff"/><path d="M917.58,417.76a9,9,0,0,1,.88-4,6.49,6.49,0,0,1,2.45-2.77,6.77,6.77,0,0,1,3.59-1,6.46,6.46,0,0,1,5,2.16,8.31,8.31,0,0,1,1.92,5.74v.18a9.07,9.07,0,0,1-.85,4,6.56,6.56,0,0,1-2.44,2.76,6.77,6.77,0,0,1-3.65,1,6.41,6.41,0,0,1-5-2.16,8.27,8.27,0,0,1-1.92-5.71Zm2.62.31a6.49,6.49,0,0,0,1.18,4.08,4,4,0,0,0,6.31,0,7.14,7.14,0,0,0,1.17-4.37,6.56,6.56,0,0,0-1.19-4.07,4,4,0,0,0-6.29,0A7.09,7.09,0,0,0,920.2,418.07Z" fill="#fff"/><path d="M937.21,410.27l.09,1.92a5.55,5.55,0,0,1,4.57-2.2q4.83,0,4.88,5.46v10.09h-2.61v-10.1a3.52,3.52,0,0,0-.76-2.45,3,3,0,0,0-2.3-.78,3.77,3.77,0,0,0-2.23.67,4.65,4.65,0,0,0-1.5,1.78v10.88h-2.61V410.27Z" fill="#fff"/><rect x="5.07" y="245.28" width="194.19" height="7.2" fill="#fff"/><path d="M596.21,320.47q-1.76,0-4.07-2.07a39.56,39.56,0,0,1-4.91-5.51q-2.6-3.43-5.11-7.47t-4.63-8q-2.12-4-3.55-7.1l-7.74,25.06a4.48,4.48,0,0,1-1.76,2.6,6.2,6.2,0,0,1-2.59.92,25.84,25.84,0,0,1-2.76.16c.69-1.49,1.4-3.2,2.12-5.11s1.57-4.23,2.55-6.95,2.14-6,3.47-9.9,2.92-8.53,4.75-13.93,4-11.74,6.51-19c.16-.43.37-1,.64-1.8a6.72,6.72,0,0,0,.4-2.12,2.25,2.25,0,0,0-.4-1.39,1.82,1.82,0,0,0-1.52-.52,5.66,5.66,0,0,0-3.71,1.55,15.43,15.43,0,0,0-3.19,4,23.18,23.18,0,0,0-2.2,4.95,15.54,15.54,0,0,0-.8,4.55,8.72,8.72,0,0,0,.4,2.71,4.56,4.56,0,0,1-3.71-1.32,4.92,4.92,0,0,1-1.08-3.23,10.58,10.58,0,0,1,1.6-5.43,21.13,21.13,0,0,1,4.11-5,23.11,23.11,0,0,1,5.27-3.63,11.55,11.55,0,0,1,5-1.36,3.19,3.19,0,0,1,2.91,1.2,4.8,4.8,0,0,1,.76,2.63,8.05,8.05,0,0,1-.2,1.76c-.13.59-.28,1.15-.44,1.68L575.62,285a13.08,13.08,0,0,1,2.91-2.95c1.2-.91,2.51-1.94,4-3.12q3.59-2.86,7.7-6.7c2.74-2.56,5.37-5.24,7.87-8.07a63.1,63.1,0,0,0,6.22-8.14,3.3,3.3,0,0,1,.56,1.68,14.33,14.33,0,0,1,.16,1.84,9.82,9.82,0,0,1-2,5.42,40.89,40.89,0,0,1-5.31,6.11q-3.28,3.15-7.19,6.23t-7.7,5.78q-3.79,2.72-6.82,4.71,2.38,4.08,4.67,7.75t4.95,7.18a76.72,76.72,0,0,0,6.26,7.18,113,113,0,0,0,8.7,7.91,5.22,5.22,0,0,1-1.75,1.83A4.55,4.55,0,0,1,596.21,320.47Z" fill="#fff"/><path d="M610.74,320.47a6.82,6.82,0,0,1-3.75-1.12,3.31,3.31,0,0,1-1.76-2.87,6.89,6.89,0,0,1,.4-2.11c.26-.83.51-1.59.72-2.28q2.55-7.83,4.79-14.61t4.47-13.17q2.24-6.39,4.75-12.77T626,258.21a23.15,23.15,0,0,0-5.38,1.63c-1.57.73-2.84,1.36-3.8,1.92a5.19,5.19,0,0,1-1.91.84,2.06,2.06,0,0,1-.92-.36,4.53,4.53,0,0,1-1.07-.88,1.44,1.44,0,0,1-.48-.92c1.38-.58,3-1.22,4.9-1.91a47.8,47.8,0,0,1,6.11-1.76,30.74,30.74,0,0,1,6.63-.72,27.85,27.85,0,0,1,7.14,1,23.09,23.09,0,0,1,6.67,2.92,15.78,15.78,0,0,1,4.86,4.83,12.11,12.11,0,0,1,1.84,6.7,13.31,13.31,0,0,1-1.84,7.14,16.07,16.07,0,0,1-4.86,5,29.31,29.31,0,0,1-6.55,3.28,50.08,50.08,0,0,1-7,1.91,50.94,50.94,0,0,1-6.19.88c-1.81.13-3.14.2-4,.2h-.8q-2.4,8.22-4.59,16.2T610.74,320.47Zm8.94-31.85a44.67,44.67,0,0,0,8.9-1.43,31.38,31.38,0,0,0,8.26-3.48,19.41,19.41,0,0,0,6.07-5.66,13.8,13.8,0,0,0,2.31-7.95,11.44,11.44,0,0,0-2-7,12.16,12.16,0,0,0-5.35-4,18.91,18.91,0,0,0-7.07-1.32,111.15,111.15,0,0,0-5.74,14Q622.24,279.85,619.68,288.62Z" fill="#fff"/><path d="M668,320.47a5,5,0,0,1-2.23-2.19,5.37,5.37,0,0,1-.48-2,16.78,16.78,0,0,1,1.64-6.07,92.62,92.62,0,0,1,4.39-8.74q2.75-4.9,6.1-10.17c-2-.16-3.64-.27-5-.32s-2.59-.08-3.6-.08H666a5.42,5.42,0,0,1,3.07-3.23,13.4,13.4,0,0,1,5.23-.92,24.65,24.65,0,0,1,2.8.16c.95.1,1.94.24,2.95.4q4.07-6.15,8.34-11.94t8-10.3a75.82,75.82,0,0,1,6.19-6.82q2.31-2.24,3.83-2.24a3.82,3.82,0,0,1,2,.68,14.13,14.13,0,0,1,2.27,1.88,10.34,10.34,0,0,0-2,3.39q-1.23,2.76-2.63,6.91c-.93,2.76-1.85,5.8-2.75,9.09s-1.75,6.67-2.52,10.1-1.38,6.7-1.83,9.78a57.39,57.39,0,0,0-.68,8.14,13,13,0,0,0,.68,4.71,2.34,2.34,0,0,0,2.27,1.68c1.38,0,3-1,4.71-2.87a42.26,42.26,0,0,0,5.75-8.94l.8.79a32.1,32.1,0,0,1-6.11,10.46c-2.48,2.71-5,4.07-7.7,4.07A5,5,0,0,1,693.8,313a17.25,17.25,0,0,1-1.48-7.78,47.58,47.58,0,0,1,.36-5.59q.36-3,1-6.31c-2.34-.37-4.49-.68-6.43-.92s-3.74-.46-5.38-.67q-3.76,6.94-7.31,14.28T668,320.47Zm26.27-29.93q1.2-5.27,2.79-10.66t3.39-10.26q1.8-4.86,3.4-8.54a25.2,25.2,0,0,0-5.71,5.39,97.08,97.08,0,0,0-6.83,9.42q-3.59,5.55-7.34,12.17c1.81.38,3.6.79,5.39,1.24Z" fill="#fff"/><path d="M718.59,317q-4.87,0-7.31-2.67a9.45,9.45,0,0,1-2.43-6.59,18.6,18.6,0,0,1,1.79-7.58,31.91,31.91,0,0,1,4.79-7.51A27.72,27.72,0,0,1,722,287a13.56,13.56,0,0,1,7.1-2.19,6.36,6.36,0,0,1,3.4,1c1,.64,1.55,1.94,1.55,3.91a10,10,0,0,1-1.8,5.71,18.57,18.57,0,0,1-4.7,4.75,28.69,28.69,0,0,1-6.39,3.39,26.48,26.48,0,0,1-6.91,1.64c-.1.53-.18,1-.24,1.51A13.19,13.19,0,0,0,714,308a10.26,10.26,0,0,0,.28,2.39,5.92,5.92,0,0,0,1,2.2,4.86,4.86,0,0,0,2,1.56,7.49,7.49,0,0,0,3.07.55,13.39,13.39,0,0,0,6.79-2,25.91,25.91,0,0,0,6.22-5.15,33.74,33.74,0,0,0,4.87-7l1,.72a29.43,29.43,0,0,1-5.47,8.29,25.81,25.81,0,0,1-7.18,5.47A17.22,17.22,0,0,1,718.59,317Zm-3.92-13.41a34.17,34.17,0,0,0,4.87-2.12,34.52,34.52,0,0,0,5.23-3.31,19.28,19.28,0,0,0,4.15-4.23,8.32,8.32,0,0,0,1.64-4.87,2.49,2.49,0,0,0-.32-1.36,1.55,1.55,0,0,0-1.36-.48,7.36,7.36,0,0,0-4.07,1.48,21.22,21.22,0,0,0-4.15,3.87,33.68,33.68,0,0,0-3.59,5.27A26.53,26.53,0,0,0,714.67,303.63Z" fill="#fff"/><path d="M744.93,317.6A9.73,9.73,0,0,1,739,316a9,9,0,0,1-3.11-4,13.31,13.31,0,0,1-.92-4.79,8.36,8.36,0,0,1,.64-3.67,5,5,0,0,1,1.56-1.92,8,8,0,0,1,1.75-.95,3.68,3.68,0,0,0,1.16-.64,53.28,53.28,0,0,0,4.39-5.51,43,43,0,0,0,3.51-6.07v-1a6.77,6.77,0,0,1,1-4.19,2.77,2.77,0,0,1,2.11-1.23,1.31,1.31,0,0,1,1,.31,1,1,0,0,1,.32.73,5.49,5.49,0,0,1-.24,1.27,8.71,8.71,0,0,0-.24,2.24,17.92,17.92,0,0,0,1,5.7q1,3.08,2.08,6.47a24.07,24.07,0,0,1,1,7.06,17.07,17.07,0,0,1-.12,2,13.06,13.06,0,0,1-.36,1.88,11.19,11.19,0,0,0,5.27-2.52,20.52,20.52,0,0,0,4.79-6.5l.72.8a13.62,13.62,0,0,1-4.55,6.66,14.59,14.59,0,0,1-6.62,2.83,9.35,9.35,0,0,1-4,5A12.1,12.1,0,0,1,744.93,317.6Zm.16-2.79a7.45,7.45,0,0,0,2.55-.64c1.07-.43,1.89-1.52,2.48-3.28a13.78,13.78,0,0,1-6-2.63,16.31,16.31,0,0,1-3.87-4c-1.17.05-1.76,1-1.76,2.79a9,9,0,0,0,1.72,5.31A5.57,5.57,0,0,0,745.09,314.81Zm5.43-5.2a16.41,16.41,0,0,0,.23-1.67c.06-.59.09-1.28.09-2.08a31.09,31.09,0,0,0-.92-7.46c-.62-2.47-1.13-4.8-1.56-7q-1.83,3-3.87,5.78a40.91,40.91,0,0,1-3.87,4.59,14.72,14.72,0,0,0,3.71,4.79A13.4,13.4,0,0,0,750.52,309.61Z" fill="#fff"/><path d="M770.87,317.2a6.8,6.8,0,0,1-5.27-2c-1.22-1.33-1.84-3.29-1.84-5.9a29.81,29.81,0,0,1,.68-5.75c.45-2.23,1.07-4.62,1.84-7.14s1.61-5,2.51-7.39a6.13,6.13,0,0,1-1.51-.52c-.48-.24-.94-.44-1.36-.6v-1.43a6.75,6.75,0,0,1,1.52.4,7.32,7.32,0,0,0,2,.39,111.1,111.1,0,0,1,4.75-10.61,50.68,50.68,0,0,1,4.83-7.83c1.55-2,2.85-2.95,3.91-2.95a1.77,1.77,0,0,1,1.16.44,1.61,1.61,0,0,1,.52,1.32,6.22,6.22,0,0,1-.64,2.27c-.43,1-1,2.14-1.76,3.48s-1.57,2.79-2.47,4.39-1.86,3.3-2.87,5.11-2,3.69-2.88,5.66c1.33.21,2.62.4,3.87.56a30.62,30.62,0,0,0,3.88.24,36.93,36.93,0,0,0,4.63-.32q2.46-.31,5.66-1c1.39-3.77,2.94-7.53,4.67-11.25s3.49-7.12,5.27-10.18a46.37,46.37,0,0,1,5.11-7.34q2.43-2.76,4.19-2.76a2.13,2.13,0,0,1,2,1.72,10.27,10.27,0,0,1,.6,3.31,19.56,19.56,0,0,1-1.4,6.59,48.06,48.06,0,0,1-3.79,7.82,46.33,46.33,0,0,1-5.55,7.5,30.82,30.82,0,0,1-6.67,5.63,48.36,48.36,0,0,0-2.27,7,56.4,56.4,0,0,0-1.4,7.87,29.07,29.07,0,0,0-.08,6.42,83.3,83.3,0,0,1,4.31-10.21,28.29,28.29,0,0,1,5.39-7.59,9.27,9.27,0,0,1,6.51-2.87,5.05,5.05,0,0,1,4.67,2.28,9.19,9.19,0,0,1,1.39,4.9,13.88,13.88,0,0,1-.84,4.79c-.55,1.55-1.13,3-1.71,4.47a11,11,0,0,0-.88,4.16,3.3,3.3,0,0,0,.68,2.31,2.24,2.24,0,0,0,1.71.72,7,7,0,0,0,4.12-1.76,25.59,25.59,0,0,0,4.51-4.67,34.26,34.26,0,0,0,3.83-6.34l1,.95a33.17,33.17,0,0,1-4.06,7.07,20.73,20.73,0,0,1-5.27,5,11,11,0,0,1-6,1.84A5.47,5.47,0,0,1,808,314a5,5,0,0,1-1.4-3.6,12.81,12.81,0,0,1,.64-3.75c.43-1.38.84-2.79,1.24-4.23a15.14,15.14,0,0,0,.6-4.07,4.09,4.09,0,0,0-.88-2.95,2.93,2.93,0,0,0-2.16-.88,5,5,0,0,0-3.59,1.59,17.33,17.33,0,0,0-2.92,4.12c-.87,1.67-1.7,3.44-2.47,5.31l-2.19,5.3a25.68,25.68,0,0,1-2.08,4.12c-.69,1.06-1.41,1.59-2.15,1.59a2,2,0,0,1-1.6-.88,6.61,6.61,0,0,1-1.16-2.47,17,17,0,0,1-.52-3.71,27.21,27.21,0,0,1,.24-4.51,29.17,29.17,0,0,1-7.46,8.78A15,15,0,0,1,770.87,317.2Zm2.32-3c2.76,0,5.48-1.22,8.14-3.67a32.4,32.4,0,0,0,7-10c.37-1.76.76-3.43,1.16-5s.94-3.38,1.64-5.35a40.87,40.87,0,0,1-5.15.88c-1.63.16-3.18.24-4.67.24a31.55,31.55,0,0,1-4.24-.28c-1.32-.19-2.66-.39-4-.6a70.81,70.81,0,0,0-3.11,8.7,31.66,31.66,0,0,0-1.28,8.7c0,2.29.35,3.93,1,4.91A3.92,3.92,0,0,0,773.19,314.24ZM797.53,286a31.58,31.58,0,0,0,5.23-5.39,59,59,0,0,0,4.35-6.47,42.2,42.2,0,0,0,3-6.14,13.45,13.45,0,0,0,1.08-4.35c0-.43-.11-.64-.32-.64-.37,0-1.09.59-2.15,1.76a38.79,38.79,0,0,0-3.64,4.86,63.48,63.48,0,0,0-4,7.31A67.78,67.78,0,0,0,797.53,286Z" fill="#fff"/><path d="M833.53,317c-3.24,0-5.68-.89-7.3-2.67a9.46,9.46,0,0,1-2.44-6.59,18.47,18.47,0,0,1,1.8-7.58,31.59,31.59,0,0,1,4.79-7.51A27.88,27.88,0,0,1,837,287a13.62,13.62,0,0,1,7.11-2.19,6.35,6.35,0,0,1,3.39,1c1,.64,1.56,1.94,1.56,3.91a10,10,0,0,1-1.8,5.71,18.46,18.46,0,0,1-4.71,4.75,28.4,28.4,0,0,1-6.38,3.39,26.58,26.58,0,0,1-6.91,1.64c-.11.53-.18,1-.24,1.51a13.33,13.33,0,0,0-.08,1.36,10.83,10.83,0,0,0,.28,2.39,6.11,6.11,0,0,0,1,2.2,4.9,4.9,0,0,0,2,1.56,7.58,7.58,0,0,0,3.08.55,13.39,13.39,0,0,0,6.79-2,25.91,25.91,0,0,0,6.22-5.15,33.74,33.74,0,0,0,4.87-7l1,.72a29.65,29.65,0,0,1-5.47,8.29,25.81,25.81,0,0,1-7.18,5.47A17.26,17.26,0,0,1,833.53,317Zm-3.91-13.41a34.17,34.17,0,0,0,4.87-2.12,35,35,0,0,0,5.23-3.31,19.28,19.28,0,0,0,4.15-4.23,8.32,8.32,0,0,0,1.64-4.87,2.49,2.49,0,0,0-.32-1.36,1.56,1.56,0,0,0-1.36-.48,7.33,7.33,0,0,0-4.07,1.48,21,21,0,0,0-4.15,3.87,33.68,33.68,0,0,0-3.59,5.27A26,26,0,0,0,829.62,303.63Z" fill="#fff"/><path d="M858.28,317.2a6.8,6.8,0,0,1-5.27-2c-1.22-1.33-1.84-3.29-1.84-5.9a36.65,36.65,0,0,1,1.32-8.67,107.15,107.15,0,0,1,3.32-10.57c-.54-.11-1-.2-1.52-.28a7.34,7.34,0,0,1-1.36-.36V288c.43.06.93.11,1.52.16s1.25.11,2,.16Q858.12,284,860,280t3.8-7.18a30.69,30.69,0,0,1,3.59-5c1.14-1.25,2.11-1.88,2.91-1.88a1.77,1.77,0,0,1,1.16.44,1.61,1.61,0,0,1,.52,1.32,11.2,11.2,0,0,1-1.68,4.43c-1.11,2.05-2.5,4.48-4.15,7.3s-3.25,5.88-4.79,9.18h3c1.75,0,3.6,0,5.55-.08s3.89-.18,5.86-.4v1.44c-2.93.32-5.54.56-7.86.72s-4.38.24-6.19.24h-1.2a70.81,70.81,0,0,0-3.11,8.7,31.66,31.66,0,0,0-1.28,8.7c0,2.29.35,3.93,1,4.91a3.92,3.92,0,0,0,3.44,1.47c2.76,0,5.48-1.22,8.14-3.67a32.4,32.4,0,0,0,7-10l1,.79a34.07,34.07,0,0,1-4.83,8.07,24.31,24.31,0,0,1-6.43,5.67A14.11,14.11,0,0,1,858.28,317.2Z" fill="#fff"/><path d="M880,315.6a5.51,5.51,0,0,1-4.63-2,7.54,7.54,0,0,1-1.51-4.75,19.9,19.9,0,0,1,.68-4.63,54.2,54.2,0,0,1,1.79-5.87,43.6,43.6,0,0,1,2.59-5.79,20.19,20.19,0,0,1,3.16-4.43,4.73,4.73,0,0,1,3.27-1.71,1.83,1.83,0,0,1,1.24.44,1.64,1.64,0,0,1,.52,1.31,7.71,7.71,0,0,1-1.24,3.12q-1.25,2.15-2.91,4.94a42.23,42.23,0,0,0-2.92,5.87,15.84,15.84,0,0,0-1.24,5.87c0,1.91.32,3.19,1,3.83a4,4,0,0,0,3,1c1.81,0,3.74-.9,5.79-2.72s4.21-5,6.5-9.49l.72.79a23,23,0,0,1-6.67,10.54A13.9,13.9,0,0,1,880,315.6ZM889.57,279a4.2,4.2,0,0,1-2.28-.63,2.22,2.22,0,0,1-1-2,3.51,3.51,0,0,1,2-2.92,7.27,7.27,0,0,1,3.88-1.23,3.05,3.05,0,0,1,1.91.56,2.27,2.27,0,0,1,.72,1.91,3.94,3.94,0,0,1-1.63,2.92A5.39,5.39,0,0,1,889.57,279Z" fill="#fff"/><path d="M902,318a8.7,8.7,0,0,1-6.38-2.55c-1.7-1.71-2.55-4.26-2.55-7.67a20.41,20.41,0,0,1,1.55-7.78,25.88,25.88,0,0,1,4.11-6.83,21.39,21.39,0,0,1,5.67-4.83,12.23,12.23,0,0,1,6.15-1.79q3.27,0,4.47,1.91a7.51,7.51,0,0,1,1.2,4,7.63,7.63,0,0,1-1.08,4.08,3.29,3.29,0,0,1-2.92,1.75,2.87,2.87,0,0,1-2.31-1.2,5.14,5.14,0,0,0,2.07-2.59,9,9,0,0,0,.88-3.71,2.59,2.59,0,0,0-.36-1.48,1.6,1.6,0,0,0-1.39-.52,7,7,0,0,0-4.44,1.92,22.33,22.33,0,0,0-4.23,4.94,33.44,33.44,0,0,0-3.19,6.39,18.41,18.41,0,0,0-1.24,6.31,9,9,0,0,0,1.2,4.55c.8,1.38,2.34,2.08,4.63,2.08a13.41,13.41,0,0,0,6.43-1.76,21.49,21.49,0,0,0,6-5,25.65,25.65,0,0,0,4.47-7.66l1,.8a29.68,29.68,0,0,1-5,8.58,25.91,25.91,0,0,1-7,5.94A15.63,15.63,0,0,1,902,318Z" fill="#fff"/><path d="M927.65,317.6A9.77,9.77,0,0,1,921.7,316a9,9,0,0,1-3.11-4,13.31,13.31,0,0,1-.92-4.79,8.36,8.36,0,0,1,.64-3.67,5.1,5.1,0,0,1,1.56-1.92,8.23,8.23,0,0,1,1.75-.95,3.57,3.57,0,0,0,1.16-.64,53.28,53.28,0,0,0,4.39-5.51,43,43,0,0,0,3.51-6.07v-1a6.83,6.83,0,0,1,1-4.19,2.77,2.77,0,0,1,2.11-1.23,1.31,1.31,0,0,1,1,.31,1,1,0,0,1,.32.73,5.33,5.33,0,0,1-.23,1.27,8.66,8.66,0,0,0-.25,2.24,17.92,17.92,0,0,0,1,5.7q1,3.08,2.08,6.47a24.07,24.07,0,0,1,1,7.06,15.21,15.21,0,0,1-.12,2,11.83,11.83,0,0,1-.35,1.88,11.24,11.24,0,0,0,5.27-2.52,20.82,20.82,0,0,0,4.79-6.5l.71.8a13.62,13.62,0,0,1-4.55,6.66,14.59,14.59,0,0,1-6.62,2.83,9.35,9.35,0,0,1-4,5A12.07,12.07,0,0,1,927.65,317.6Zm.16-2.79a7.45,7.45,0,0,0,2.55-.64c1.07-.43,1.89-1.52,2.48-3.28a13.78,13.78,0,0,1-6-2.63,16.31,16.31,0,0,1-3.87-4c-1.17.05-1.76,1-1.76,2.79a9,9,0,0,0,1.72,5.31A5.57,5.57,0,0,0,927.81,314.81Zm5.43-5.2c.1-.53.18-1.08.24-1.67s.08-1.28.08-2.08a31.09,31.09,0,0,0-.92-7.46q-.92-3.7-1.56-7-1.83,3-3.87,5.78a39.88,39.88,0,0,1-3.87,4.59,15,15,0,0,0,3.71,4.79A13.4,13.4,0,0,0,933.24,309.61Z" fill="#fff"/><rect x="453.97" y="203.13" width="592.06" height="174.74" fill="none" stroke="#fff" stroke-miterlimit="10" stroke-width="3.56"/><rect x="1300.3" y="423.03" width="194.19" height="7.2" fill="#fff"/><circle cx="20.1" cy="526.72" r="2.7" fill="#fff"/><circle cx="20.1" cy="535.84" r="2.7" fill="#fff"/><circle cx="20.1" cy="544.96" r="2.7" fill="#fff"/><circle cx="20.1" cy="554.08" r="2.7" fill="#fff"/><circle cx="20.1" cy="563.2" r="2.7" fill="#fff"/><circle cx="20.1" cy="572.32" r="2.7" fill="#fff"/><circle cx="27.54" cy="526.72" r="2.7" fill="#fff"/><circle cx="27.54" cy="535.84" r="2.7" fill="#fff"/><circle cx="27.54" cy="544.96" r="2.7" fill="#fff"/><circle cx="27.54" cy="554.08" r="2.7" fill="#fff"/><circle cx="27.54" cy="563.2" r="2.7" fill="#fff"/><circle cx="27.54" cy="572.32" r="2.7" fill="#fff"/><circle cx="34.92" cy="526.72" r="2.7" fill="#fff"/><circle cx="34.92" cy="535.84" r="2.7" fill="#fff"/><circle cx="34.92" cy="544.96" r="2.7" fill="#fff"/><circle cx="34.92" cy="554.08" r="2.7" fill="#fff"/><circle cx="34.92" cy="563.2" r="2.7" fill="#fff"/><circle cx="34.92" cy="572.32" r="2.7" fill="#fff"/><circle cx="42.36" cy="526.72" r="2.7" fill="#fff"/><circle cx="42.36" cy="535.84" r="2.7" fill="#fff"/><circle cx="42.36" cy="544.96" r="2.7" fill="#fff"/><circle cx="42.36" cy="554.08" r="2.7" fill="#fff"/><circle cx="42.36" cy="563.2" r="2.7" fill="#fff"/><circle cx="42.36" cy="572.32" r="2.7" fill="#fff"/><circle cx="50.87" cy="526.72" r="2.7" fill="#fff"/><circle cx="50.87" cy="535.84" r="2.7" fill="#fff"/><circle cx="50.87" cy="544.96" r="2.7" fill="#fff"/><circle cx="50.87" cy="554.08" r="2.7" fill="#fff"/><circle cx="50.87" cy="563.2" r="2.7" fill="#fff"/><circle cx="50.87" cy="572.32" r="2.7" fill="#fff"/><circle cx="58.31" cy="526.72" r="2.7" fill="#fff"/><circle cx="58.31" cy="535.84" r="2.7" fill="#fff"/><circle cx="58.31" cy="544.96" r="2.7" fill="#fff"/><circle cx="58.31" cy="554.08" r="2.7" fill="#fff"/><circle cx="58.31" cy="563.2" r="2.7" fill="#fff"/><circle cx="58.31" cy="572.32" r="2.7" fill="#fff"/><circle cx="65.69" cy="526.72" r="2.7" fill="#fff"/><circle cx="65.69" cy="535.84" r="2.7" fill="#fff"/><circle cx="65.69" cy="544.96" r="2.7" fill="#fff"/><circle cx="65.69" cy="554.08" r="2.7" fill="#fff"/><circle cx="65.69" cy="563.2" r="2.7" fill="#fff"/><circle cx="65.69" cy="572.32" r="2.7" fill="#fff"/><circle cx="73.13" cy="526.72" r="2.7" fill="#fff"/><circle cx="73.13" cy="535.84" r="2.7" fill="#fff"/><circle cx="73.13" cy="544.96" r="2.7" fill="#fff"/><circle cx="73.13" cy="554.08" r="2.7" fill="#fff"/><circle cx="73.13" cy="563.2" r="2.7" fill="#fff"/><circle cx="73.13" cy="572.32" r="2.7" fill="#fff"/><circle cx="1382.22" cy="31.82" r="4.49" fill="#fff"/><circle cx="1382.22" cy="46.99" r="4.49" fill="#fff"/><circle cx="1382.22" cy="62.16" r="4.49" fill="#fff"/><circle cx="1382.22" cy="77.34" r="4.49" fill="#fff"/><circle cx="1382.22" cy="92.51" r="4.49" fill="#fff"/><circle cx="1382.22" cy="107.68" r="4.49" fill="#fff"/><circle cx="1394.6" cy="31.82" r="4.49" fill="#fff"/><circle cx="1394.6" cy="46.99" r="4.49" fill="#fff"/><circle cx="1394.6" cy="62.16" r="4.49" fill="#fff"/><circle cx="1394.6" cy="77.34" r="4.49" fill="#fff"/><circle cx="1394.6" cy="92.51" r="4.49" fill="#fff"/><circle cx="1394.6" cy="107.68" r="4.49" fill="#fff"/><circle cx="1406.88" cy="31.82" r="4.49" fill="#fff"/><circle cx="1406.88" cy="46.99" r="4.49" fill="#fff"/><circle cx="1406.88" cy="62.16" r="4.49" fill="#fff"/><circle cx="1406.88" cy="77.34" r="4.49" fill="#fff"/><circle cx="1406.88" cy="92.51" r="4.49" fill="#fff"/><circle cx="1406.88" cy="107.68" r="4.49" fill="#fff"/><circle cx="1419.26" cy="31.82" r="4.49" fill="#fff"/><circle cx="1419.26" cy="46.99" r="4.49" fill="#fff"/><circle cx="1419.26" cy="62.16" r="4.49" fill="#fff"/><circle cx="1419.26" cy="77.34" r="4.49" fill="#fff"/><circle cx="1419.26" cy="92.51" r="4.49" fill="#fff"/><circle cx="1419.26" cy="107.68" r="4.49" fill="#fff"/><circle cx="1433.43" cy="31.82" r="4.49" fill="#fff"/><circle cx="1433.43" cy="46.99" r="4.49" fill="#fff"/><circle cx="1433.43" cy="62.16" r="4.49" fill="#fff"/><circle cx="1433.43" cy="77.34" r="4.49" fill="#fff"/><circle cx="1433.43" cy="92.51" r="4.49" fill="#fff"/><circle cx="1433.43" cy="107.68" r="4.49" fill="#fff"/><circle cx="1445.81" cy="31.82" r="4.49" fill="#fff"/><circle cx="1445.81" cy="46.99" r="4.49" fill="#fff"/><circle cx="1445.81" cy="62.16" r="4.49" fill="#fff"/><circle cx="1445.81" cy="77.34" r="4.49" fill="#fff"/><circle cx="1445.81" cy="92.51" r="4.49" fill="#fff"/><circle cx="1445.81" cy="107.68" r="4.49" fill="#fff"/><circle cx="1458.09" cy="31.82" r="4.49" fill="#fff"/><circle cx="1458.09" cy="46.99" r="4.49" fill="#fff"/><circle cx="1458.09" cy="62.16" r="4.49" fill="#fff"/><circle cx="1458.09" cy="77.34" r="4.49" fill="#fff"/><circle cx="1458.09" cy="92.51" r="4.49" fill="#fff"/><circle cx="1458.09" cy="107.68" r="4.49" fill="#fff"/><circle cx="1470.47" cy="31.82" r="4.49" fill="#fff"/><circle cx="1470.47" cy="46.99" r="4.49" fill="#fff"/><circle cx="1470.47" cy="62.16" r="4.49" fill="#fff"/><circle cx="1470.47" cy="77.34" r="4.49" fill="#fff"/><circle cx="1470.47" cy="92.51" r="4.49" fill="#fff"/><circle cx="1470.47" cy="107.68" r="4.49" fill="#fff"/><circle cx="1433.76" cy="442.88" r="2.7" fill="#fff"/><circle cx="1433.76" cy="452" r="2.7" fill="#fff"/><circle cx="1433.76" cy="461.12" r="2.7" fill="#fff"/><circle cx="1433.76" cy="470.24" r="2.7" fill="#fff"/><circle cx="1433.76" cy="479.36" r="2.7" fill="#fff"/><circle cx="1433.76" cy="488.48" r="2.7" fill="#fff"/><circle cx="1441.2" cy="442.88" r="2.7" fill="#fff"/><circle cx="1441.2" cy="452" r="2.7" fill="#fff"/><circle cx="1441.2" cy="461.12" r="2.7" fill="#fff"/><circle cx="1441.2" cy="470.24" r="2.7" fill="#fff"/><circle cx="1441.2" cy="479.36" r="2.7" fill="#fff"/><circle cx="1441.2" cy="488.48" r="2.7" fill="#fff"/><circle cx="1448.58" cy="442.88" r="2.7" fill="#fff"/><circle cx="1448.58" cy="452" r="2.7" fill="#fff"/><circle cx="1448.58" cy="461.12" r="2.7" fill="#fff"/><circle cx="1448.58" cy="470.24" r="2.7" fill="#fff"/><circle cx="1448.58" cy="479.36" r="2.7" fill="#fff"/><circle cx="1448.58" cy="488.48" r="2.7" fill="#fff"/><circle cx="1456.02" cy="442.88" r="2.7" fill="#fff"/><circle cx="1456.02" cy="452" r="2.7" fill="#fff"/><circle cx="1456.02" cy="461.12" r="2.7" fill="#fff"/><circle cx="1456.02" cy="470.24" r="2.7" fill="#fff"/><circle cx="1456.02" cy="479.36" r="2.7" fill="#fff"/><circle cx="1456.02" cy="488.48" r="2.7" fill="#fff"/><circle cx="1464.54" cy="442.88" r="2.7" fill="#fff"/><circle cx="1464.54" cy="452" r="2.7" fill="#fff"/><circle cx="1464.54" cy="461.12" r="2.7" fill="#fff"/><circle cx="1464.54" cy="470.24" r="2.7" fill="#fff"/><circle cx="1464.54" cy="479.36" r="2.7" fill="#fff"/><circle cx="1464.54" cy="488.48" r="2.7" fill="#fff"/><circle cx="1471.98" cy="442.88" r="2.7" fill="#fff"/><circle cx="1471.98" cy="452" r="2.7" fill="#fff"/><circle cx="1471.98" cy="461.12" r="2.7" fill="#fff"/><circle cx="1471.98" cy="470.24" r="2.7" fill="#fff"/><circle cx="1471.98" cy="479.36" r="2.7" fill="#fff"/><circle cx="1471.98" cy="488.48" r="2.7" fill="#fff"/><circle cx="1479.36" cy="442.88" r="2.7" fill="#fff"/><circle cx="1479.36" cy="452" r="2.7" fill="#fff"/><circle cx="1479.36" cy="461.12" r="2.7" fill="#fff"/><circle cx="1479.36" cy="470.24" r="2.7" fill="#fff"/><circle cx="1479.36" cy="479.36" r="2.7" fill="#fff"/><circle cx="1479.36" cy="488.48" r="2.7" fill="#fff"/><circle cx="1486.8" cy="442.88" r="2.7" fill="#fff"/><circle cx="1486.8" cy="452" r="2.7" fill="#fff"/><circle cx="1486.8" cy="461.12" r="2.7" fill="#fff"/><circle cx="1486.8" cy="470.24" r="2.7" fill="#fff"/><circle cx="1486.8" cy="479.36" r="2.7" fill="#fff"/><circle cx="1486.8" cy="488.48" r="2.7" fill="#fff"/><path d="M1300.2,380.06h31.23v8.64H1300.2v11h-7.47V369.09h7.47Z" fill="#fff"/><path d="M1292.73,338.75v-8.64h38.7v8.64H1316.2v15.39h15.23v8.64h-38.7v-8.64h16.16V338.75Z" fill="#fff"/><path d="M1305.57,289.19q9.3,0,12,7.37l13.84-9.8v10.63L1319.08,306v6h12.35v8.64h-38.7V305.92q0-9,3-12.88T1305.57,289.19Zm4.6,10.41a5.85,5.85,0,0,0-4.57-1.6c-2.09,0-3.52.55-4.29,1.66s-1.16,3-1.16,5.81V312h11.46v-6.31C1311.61,302.69,1311.13,300.67,1310.17,299.6Z" fill="#fff"/><path d="M1292.73,280.33V271.7h38.7v8.63Z" fill="#fff"/><path d="M1292.73,235.59h7.58v17.95h8.36V236.48h7.59v17.06h15.17v8.63h-38.7Z" fill="#fff"/><path d="M1300.2,211.9h31.23v8.63H1300.2v11h-7.47V200.93h7.47Z" fill="#fff"/><path d="M1355.22,380.06h31.23v8.64h-31.23v11h-7.48V369.09h7.48Z" fill="none" stroke="#fff" stroke-miterlimit="10" stroke-width="2.21"/><path d="M1347.74,338.75v-8.64h38.71v8.64h-15.23v15.39h15.23v8.64h-38.71v-8.64h16.17V338.75Z" fill="none" stroke="#fff" stroke-miterlimit="10" stroke-width="2.21"/><path d="M1360.59,289.19q9.3,0,12,7.37l13.85-9.8v10.63L1374.1,306v6h12.35v8.64h-38.71V305.92q0-9,3-12.88T1360.59,289.19Zm4.59,10.41c-1-1.07-2.48-1.6-4.56-1.6s-3.52.55-4.3,1.66-1.16,3-1.16,5.81V312h11.46v-6.31C1366.62,302.69,1366.14,300.67,1365.18,299.6Z" fill="none" stroke="#fff" stroke-miterlimit="10" stroke-width="2.21"/><path d="M1347.74,280.33V271.7h38.71v8.63Z" fill="none" stroke="#fff" stroke-miterlimit="10" stroke-width="2.21"/><path d="M1347.74,235.59h7.59v17.95h8.36V236.48h7.59v17.06h15.17v8.63h-38.71Z" fill="none" stroke="#fff" stroke-miterlimit="10" stroke-width="2.21"/><path d="M1355.22,211.9h31.23v8.63h-31.23v11h-7.48V200.93h7.48Z" fill="none" stroke="#fff" stroke-miterlimit="10" stroke-width="2.21"/><path d="M1404.92,380.06h31.23v8.64h-31.23v11h-7.47V369.09h7.47Z" fill="#fff"/><path d="M1397.45,338.75v-8.64h38.7v8.64h-15.22v15.39h15.22v8.64h-38.7v-8.64h16.17V338.75Z" fill="#fff"/><path d="M1410.3,289.19q9.3,0,12,7.37l13.84-9.8v10.63L1423.81,306v6h12.34v8.64h-38.7V305.92q0-9,3-12.88T1410.3,289.19Zm4.59,10.41a5.85,5.85,0,0,0-4.57-1.6c-2.08,0-3.51.55-4.29,1.66s-1.16,3-1.16,5.81V312h11.46v-6.31C1416.33,302.69,1415.85,300.67,1414.89,299.6Z" fill="#fff"/><path d="M1397.45,280.33V271.7h38.7v8.63Z" fill="#fff"/><path d="M1397.45,235.59H1405v17.95h8.37V236.48H1421v17.06h15.17v8.63h-38.7Z" fill="#fff"/><path d="M1404.92,211.9h31.23v8.63h-31.23v11h-7.47V200.93h7.47Z" fill="#fff"/><path d="M1459.94,380.06h31.23v8.64h-31.23v11h-7.47V369.09h7.47Z" fill="none" stroke="#fff" stroke-miterlimit="10" stroke-width="2.21"/><path d="M1452.47,338.75v-8.64h38.7v8.64h-15.23v15.39h15.23v8.64h-38.7v-8.64h16.16V338.75Z" fill="none" stroke="#fff" stroke-miterlimit="10" stroke-width="2.21"/><path d="M1465.31,289.19q9.3,0,12,7.37l13.84-9.8v10.63L1478.82,306v6h12.35v8.64h-38.7V305.92q0-9,3-12.88T1465.31,289.19Zm4.6,10.41a5.85,5.85,0,0,0-4.57-1.6c-2.09,0-3.52.55-4.29,1.66s-1.16,3-1.16,5.81V312h11.46v-6.31C1471.35,302.69,1470.87,300.67,1469.91,299.6Z" fill="none" stroke="#fff" stroke-miterlimit="10" stroke-width="2.21"/><path d="M1452.47,280.33V271.7h38.7v8.63Z" fill="none" stroke="#fff" stroke-miterlimit="10" stroke-width="2.21"/><path d="M1452.47,235.59h7.58v17.95h8.36V236.48H1476v17.06h15.17v8.63h-38.7Z" fill="none" stroke="#fff" stroke-miterlimit="10" stroke-width="2.21"/><path d="M1459.94,211.9h31.23v8.63h-31.23v11h-7.47V200.93h7.47Z" fill="none" stroke="#fff" stroke-miterlimit="10" stroke-width="2.21"/><path d="M761.89.3A127.81,127.81,0,1,1,511.28.3" fill="none" stroke="#fff" stroke-miterlimit="10" stroke-width="3"/><circle cx="830.35" cy="65.38" r="32.88" fill="none" stroke="#fff" stroke-miterlimit="10" stroke-width="3"/><circle cx="58.31" cy="382.75" r="32.88" fill="none" stroke="#fff" stroke-miterlimit="10" stroke-width="3"/><circle cx="84.25" cy="439.27" r="13.81" fill="none" stroke="#fff" stroke-miterlimit="10" stroke-width="1.26"/><circle cx="1212.27" cy="464.25" r="47.3" fill="none" stroke="#fff" stroke-miterlimit="10" stroke-width="4.32"/><circle cx="1174.97" cy="545.55" r="19.87" fill="none" stroke="#fff" stroke-miterlimit="10" stroke-width="1.81"/><circle cx="783.55" cy="148.98" r="21.68" fill="none" stroke="#fff" stroke-miterlimit="10" stroke-width="3"/></g></g></svg>