<svg xmlns="http://www.w3.org/2000/svg" xmlns:xlink="http://www.w3.org/1999/xlink" viewBox="0 0 400 500"><defs><linearGradient id="linear-gradient" x1="-58.62" y1="396.55" x2="458.62" y2="103.45" gradientUnits="userSpaceOnUse"><stop offset="0.1" stop-color="#ff9558"/><stop offset="0.51" stop-color="#ffa06a"/><stop offset="1" stop-color="#ffc67b"/></linearGradient></defs><title>banAsset 17</title><g id="Layer_2" data-name="Layer 2"><g id="Layer_1-2" data-name="Layer 1"><rect width="400" height="500" fill="url(#linear-gradient)"/><rect x="13.52" y="16" width="372.96" height="468" fill="none" stroke="#fff" stroke-miterlimit="10" stroke-width="2.58"/><path d="M83.42,60.42v9H62.16v9.91H82.37v9H62.16v18H51.92V60.42Z" fill="#fff"/><path d="M122.27,106.29,118,96.38H98.77l-4.26,9.91H83.62l19.81-45.87h9.91l19.82,45.87ZM108.42,74.07l-5.77,13.32h11.48Z" fill="#fff"/><path d="M148.88,69.57a4,4,0,0,0-1.48,3.22A3.63,3.63,0,0,0,149.21,76q1.8,1.19,8.33,2.79a23.41,23.41,0,0,1,10.14,4.82c2.41,2.15,3.61,5.27,3.61,9.39a12.36,12.36,0,0,1-4.63,10q-4.62,3.84-12.17,3.84-10.89,0-19.62-8.07l6.1-7.48q7.42,6.49,13.72,6.5a7.2,7.2,0,0,0,4.43-1.22,3.9,3.9,0,0,0,1.61-3.28A3.82,3.82,0,0,0,159,90q-1.71-1.22-6.76-2.46-8-1.9-11.71-5T136.84,73q0-6.53,4.69-10.07a18.89,18.89,0,0,1,11.71-3.54,28.14,28.14,0,0,1,9.19,1.57,24.79,24.79,0,0,1,8,4.46l-5.19,7.48a20.23,20.23,0,0,0-12.33-4.52A6.16,6.16,0,0,0,148.88,69.57Z" fill="#fff"/><path d="M208.5,60.42h10.24v45.87H208.5V88.24H190.26v18.05H180V60.42h10.24V79.58H208.5Z" fill="#fff"/><path d="M230,60.42h10.24v45.87H230Z" fill="#fff"/><path d="M290.14,100a25,25,0,0,1-34.26,0,22.63,22.63,0,0,1-7-16.89,22.66,22.66,0,0,1,7-16.9,25,25,0,0,1,34.26,0,22.69,22.69,0,0,1,6.95,16.9A22.66,22.66,0,0,1,290.14,100Zm-3.48-16.86a15,15,0,0,0-3.94-10.47,13,13,0,0,0-19.36,0,15.83,15.83,0,0,0,0,20.9,13,13,0,0,0,19.36,0A14.9,14.9,0,0,0,286.66,83.09Z" fill="#fff"/><path d="M337.84,60.42h10.24v45.87H337.84L316,77.54v28.75H305.75V60.42h9.58L337.84,90Z" fill="#fff"/><path d="M83.42,127.75v9H62.16v9.91H82.37v9H62.16v18H51.92V127.75Z" fill="none" stroke="#fff" stroke-miterlimit="10" stroke-width="2.46"/><path d="M122.27,173.62,118,163.71H98.77l-4.26,9.91H83.62l19.81-45.87h9.91l19.82,45.87ZM108.42,141.4l-5.77,13.32h11.48Z" fill="none" stroke="#fff" stroke-miterlimit="10" stroke-width="2.46"/><path d="M148.88,136.9a4,4,0,0,0-1.48,3.22,3.63,3.63,0,0,0,1.81,3.18q1.8,1.19,8.33,2.79a23.41,23.41,0,0,1,10.14,4.82q3.62,3.22,3.61,9.39a12.35,12.35,0,0,1-4.63,10q-4.62,3.84-12.17,3.84-10.89,0-19.62-8.07l6.1-7.48q7.42,6.49,13.72,6.5a7.2,7.2,0,0,0,4.43-1.22,3.9,3.9,0,0,0,1.61-3.28,3.82,3.82,0,0,0-1.71-3.28q-1.71-1.22-6.76-2.46-8-1.9-11.71-4.95t-3.71-9.59q0-6.52,4.69-10.07a18.89,18.89,0,0,1,11.71-3.54,28.14,28.14,0,0,1,9.19,1.57,24.79,24.79,0,0,1,8,4.46l-5.19,7.49a20.18,20.18,0,0,0-12.33-4.53A6.16,6.16,0,0,0,148.88,136.9Z" fill="none" stroke="#fff" stroke-miterlimit="10" stroke-width="2.46"/><path d="M208.5,127.75h10.24v45.87H208.5V155.57H190.26v18.05H180V127.75h10.24v19.16H208.5Z" fill="none" stroke="#fff" stroke-miterlimit="10" stroke-width="2.46"/><path d="M230,127.75h10.24v45.87H230Z" fill="none" stroke="#fff" stroke-miterlimit="10" stroke-width="2.46"/><path d="M290.14,167.29a25,25,0,0,1-34.26,0,24,24,0,0,1,0-33.8,25,25,0,0,1,34.26,0,24,24,0,0,1,0,33.8Zm-3.48-16.87A15,15,0,0,0,282.72,140a13,13,0,0,0-19.36,0,15.83,15.83,0,0,0,0,20.9,13,13,0,0,0,19.36,0A14.9,14.9,0,0,0,286.66,150.42Z" fill="none" stroke="#fff" stroke-miterlimit="10" stroke-width="2.46"/><path d="M337.84,127.75h10.24v45.87H337.84L316,144.88v28.74H305.75V127.75h9.58l22.51,29.53Z" fill="none" stroke="#fff" stroke-miterlimit="10" stroke-width="2.46"/><path d="M83.42,188.88v9H62.16v9.91H82.37v9H62.16v18H51.92V188.88Z" fill="#fff"/><path d="M122.27,234.75,118,224.84H98.77l-4.26,9.91H83.62l19.81-45.87h9.91l19.82,45.87Zm-13.85-32.22-5.77,13.32h11.48Z" fill="#fff"/><path d="M148.88,198a4,4,0,0,0-1.48,3.22,3.63,3.63,0,0,0,1.81,3.18q1.8,1.19,8.33,2.79A23.41,23.41,0,0,1,167.68,212c2.41,2.15,3.61,5.27,3.61,9.39a12.36,12.36,0,0,1-4.63,10q-4.62,3.84-12.17,3.84-10.89,0-19.62-8.07l6.1-7.48q7.42,6.5,13.72,6.5a7.2,7.2,0,0,0,4.43-1.22,3.9,3.9,0,0,0,1.61-3.28,3.82,3.82,0,0,0-1.71-3.28q-1.71-1.22-6.76-2.46-8-1.9-11.71-4.95t-3.71-9.59q0-6.52,4.69-10.07a18.89,18.89,0,0,1,11.71-3.54,28.14,28.14,0,0,1,9.19,1.57,24.79,24.79,0,0,1,8,4.46l-5.19,7.49a20.18,20.18,0,0,0-12.33-4.53A6.16,6.16,0,0,0,148.88,198Z" fill="#fff"/><path d="M208.5,188.88h10.24v45.87H208.5V216.7H190.26v18.05H180V188.88h10.24V208H208.5Z" fill="#fff"/><path d="M230,188.88h10.24v45.87H230Z" fill="#fff"/><path d="M290.14,228.42a25,25,0,0,1-34.26,0,24,24,0,0,1,0-33.8,25,25,0,0,1,34.26,0,24,24,0,0,1,0,33.8Zm-3.48-16.87a15,15,0,0,0-3.94-10.47,13,13,0,0,0-19.36,0,15.83,15.83,0,0,0,0,20.9,13,13,0,0,0,19.36,0A14.9,14.9,0,0,0,286.66,211.55Z" fill="#fff"/><path d="M337.84,188.88h10.24v45.87H337.84L316,206v28.75H305.75V188.88h9.58l22.51,29.53Z" fill="#fff"/><path d="M83.42,256.21v9H62.16v9.91H82.37v9H62.16v18H51.92V256.21Z" fill="none" stroke="#fff" stroke-miterlimit="10" stroke-width="2.46"/><path d="M122.27,302.08,118,292.17H98.77l-4.26,9.91H83.62l19.81-45.87h9.91l19.82,45.87Zm-13.85-32.22-5.77,13.32h11.48Z" fill="none" stroke="#fff" stroke-miterlimit="10" stroke-width="2.46"/><path d="M148.88,265.36a4,4,0,0,0-1.48,3.22,3.63,3.63,0,0,0,1.81,3.18q1.8,1.19,8.33,2.79a23.41,23.41,0,0,1,10.14,4.82q3.62,3.22,3.61,9.39a12.38,12.38,0,0,1-4.63,10q-4.62,3.83-12.17,3.83-10.89,0-19.62-8.07l6.1-7.48q7.42,6.49,13.72,6.5a7.2,7.2,0,0,0,4.43-1.22,3.89,3.89,0,0,0,1.61-3.28,3.82,3.82,0,0,0-1.71-3.28q-1.71-1.22-6.76-2.46-8-1.9-11.71-4.95t-3.71-9.59q0-6.52,4.69-10.07a18.89,18.89,0,0,1,11.71-3.54,28.14,28.14,0,0,1,9.19,1.57,24.62,24.62,0,0,1,8,4.47l-5.19,7.48a20.18,20.18,0,0,0-12.33-4.53A6.16,6.16,0,0,0,148.88,265.36Z" fill="none" stroke="#fff" stroke-miterlimit="10" stroke-width="2.46"/><path d="M208.5,256.21h10.24v45.87H208.5V284H190.26v18.05H180V256.21h10.24v19.16H208.5Z" fill="none" stroke="#fff" stroke-miterlimit="10" stroke-width="2.46"/><path d="M230,256.21h10.24v45.87H230Z" fill="none" stroke="#fff" stroke-miterlimit="10" stroke-width="2.46"/><path d="M290.14,295.75a25,25,0,0,1-34.26,0,24,24,0,0,1,0-33.8,25,25,0,0,1,34.26,0,24,24,0,0,1,0,33.8Zm-3.48-16.87a15,15,0,0,0-3.94-10.47,13,13,0,0,0-19.36,0,15.84,15.84,0,0,0,0,20.91,13.07,13.07,0,0,0,19.36,0A14.94,14.94,0,0,0,286.66,278.88Z" fill="none" stroke="#fff" stroke-miterlimit="10" stroke-width="2.46"/><path d="M337.84,256.21h10.24v45.87H337.84L316,273.34v28.74H305.75V256.21h9.58l22.51,29.53Z" fill="none" stroke="#fff" stroke-miterlimit="10" stroke-width="2.46"/><path d="M83.42,324.76v9H62.16v9.91H82.37v9H62.16v18H51.92V324.76Z" fill="#fff"/><path d="M122.27,370.63,118,360.72H98.77l-4.26,9.91H83.62l19.81-45.87h9.91l19.82,45.87Zm-13.85-32.22-5.77,13.32h11.48Z" fill="#fff"/><path d="M148.88,333.91a4,4,0,0,0-1.48,3.22,3.63,3.63,0,0,0,1.81,3.18q1.8,1.19,8.33,2.79a23.41,23.41,0,0,1,10.14,4.82q3.62,3.22,3.61,9.39a12.38,12.38,0,0,1-4.63,10q-4.62,3.84-12.17,3.84-10.89,0-19.62-8.08l6.1-7.48q7.42,6.5,13.72,6.5a7.2,7.2,0,0,0,4.43-1.22,3.89,3.89,0,0,0,1.61-3.28,3.83,3.83,0,0,0-1.71-3.28q-1.71-1.21-6.76-2.46-8-1.91-11.71-4.95t-3.71-9.58q0-6.54,4.69-10.08a18.89,18.89,0,0,1,11.71-3.54,28.14,28.14,0,0,1,9.19,1.57,24.62,24.62,0,0,1,8,4.47l-5.19,7.48a20.18,20.18,0,0,0-12.33-4.53A6.16,6.16,0,0,0,148.88,333.91Z" fill="#fff"/><path d="M208.5,324.76h10.24v45.87H208.5V352.58H190.26v18.05H180V324.76h10.24v19.16H208.5Z" fill="#fff"/><path d="M230,324.76h10.24v45.87H230Z" fill="#fff"/><path d="M290.14,364.3a25,25,0,0,1-34.26,0,24,24,0,0,1,0-33.8,25,25,0,0,1,34.26,0,24,24,0,0,1,0,33.8Zm-3.48-16.87A15,15,0,0,0,282.72,337a13,13,0,0,0-19.36,0,15.84,15.84,0,0,0,0,20.91,13.07,13.07,0,0,0,19.36,0A14.94,14.94,0,0,0,286.66,347.43Z" fill="#fff"/><path d="M337.84,324.76h10.24v45.87H337.84L316,341.89v28.74H305.75V324.76h9.58l22.51,29.53Z" fill="#fff"/><path d="M83.42,392.09v9H62.16V411H82.37v9H62.16v18H51.92V392.09Z" fill="none" stroke="#fff" stroke-miterlimit="10" stroke-width="2.46"/><path d="M122.27,438,118,428.05H98.77L94.51,438H83.62l19.81-45.87h9.91L133.16,438Zm-13.85-32.22-5.77,13.32h11.48Z" fill="none" stroke="#fff" stroke-miterlimit="10" stroke-width="2.46"/><path d="M148.88,401.24a4,4,0,0,0-1.48,3.22,3.63,3.63,0,0,0,1.81,3.18q1.8,1.19,8.33,2.79a23.3,23.3,0,0,1,10.14,4.83q3.62,3.21,3.61,9.38a12.38,12.38,0,0,1-4.63,10q-4.62,3.84-12.17,3.84-10.89,0-19.62-8.08l6.1-7.48q7.42,6.49,13.72,6.5a7.2,7.2,0,0,0,4.43-1.21,3.92,3.92,0,0,0,1.61-3.29,3.83,3.83,0,0,0-1.71-3.28q-1.71-1.22-6.76-2.46-8-1.9-11.71-4.95t-3.71-9.58c0-4.36,1.56-7.71,4.69-10.08A18.89,18.89,0,0,1,153.24,391a28.14,28.14,0,0,1,9.19,1.57,24.62,24.62,0,0,1,8,4.47l-5.19,7.48A20.18,20.18,0,0,0,152.92,400,6.16,6.16,0,0,0,148.88,401.24Z" fill="none" stroke="#fff" stroke-miterlimit="10" stroke-width="2.46"/><path d="M208.5,392.09h10.24V438H208.5v-18H190.26v18H180V392.09h10.24v19.16H208.5Z" fill="none" stroke="#fff" stroke-miterlimit="10" stroke-width="2.46"/><path d="M230,392.09h10.24V438H230Z" fill="none" stroke="#fff" stroke-miterlimit="10" stroke-width="2.46"/><path d="M290.14,431.63a25,25,0,0,1-34.26,0,24,24,0,0,1,0-33.8,25,25,0,0,1,34.26,0,24,24,0,0,1,0,33.8Zm-3.48-16.87a15,15,0,0,0-3.94-10.46,13,13,0,0,0-19.36,0,15.83,15.83,0,0,0,0,20.9,13,13,0,0,0,19.36,0A14.94,14.94,0,0,0,286.66,414.76Z" fill="none" stroke="#fff" stroke-miterlimit="10" stroke-width="2.46"/><path d="M337.84,392.09h10.24V438H337.84L316,409.22V438H305.75V392.09h9.58l22.51,29.53Z" fill="none" stroke="#fff" stroke-miterlimit="10" stroke-width="2.46"/></g></g></svg>