<svg xmlns="http://www.w3.org/2000/svg" xmlns:xlink="http://www.w3.org/1999/xlink" viewBox="0 0 400 500"><defs><linearGradient id="linear-gradient" x1="-58.62" y1="396.55" x2="458.62" y2="103.45" gradientUnits="userSpaceOnUse"><stop offset="0.1" stop-color="#ff9558"/><stop offset="0.51" stop-color="#ffa06a"/><stop offset="1" stop-color="#ffc67b"/></linearGradient></defs><title>banAsset 13</title><g id="Layer_2" data-name="Layer 2"><g id="Layer_1-2" data-name="Layer 1"><rect width="400" height="500" fill="url(#linear-gradient)"/><circle cx="373.25" cy="344.29" r="23.76" fill="none" stroke="#fff" stroke-miterlimit="10" stroke-width="2.17"/><circle cx="195.26" cy="447.38" r="10.81" fill="none" stroke="#fff" stroke-miterlimit="10" stroke-width="0.99"/><circle cx="386.2" cy="387.39" r="10.81" fill="none" stroke="#fff" stroke-miterlimit="10" stroke-width="0.99"/><circle cx="168.52" cy="472.1" r="15.52" fill="none" stroke="#fff" stroke-miterlimit="10" stroke-width="1.42"/><circle cx="165.85" cy="38.71" r="15.73" fill="none" stroke="#fff" stroke-miterlimit="10" stroke-width="1.44"/><circle cx="146.9" cy="81.32" r="21.62" fill="none" stroke="#fff" stroke-miterlimit="10" stroke-width="1.97"/><circle cx="138.73" cy="16.61" r="9.23" fill="none" stroke="#fff" stroke-miterlimit="10" stroke-width="0.84"/><path d="M122.34,250.53a3.34,3.34,0,0,1-2.06-1.05,20.47,20.47,0,0,1-2.48-2.78c-.87-1.16-1.73-2.41-2.58-3.77s-1.62-2.71-2.33-4.05-1.32-2.54-1.8-3.59L107.18,248a2.3,2.3,0,0,1-.88,1.31,3.11,3.11,0,0,1-1.32.46,13.1,13.1,0,0,1-1.39.08c.35-.75.71-1.61,1.07-2.58s.8-2.14,1.29-3.51,1.08-3,1.76-5,1.47-4.31,2.39-7,2-5.93,3.29-9.61c.08-.22.19-.52.32-.91a3.18,3.18,0,0,0,.2-1.07,1.08,1.08,0,0,0-.2-.7.9.9,0,0,0-.76-.27,2.88,2.88,0,0,0-1.88.79,7.8,7.8,0,0,0-1.61,2,12.08,12.08,0,0,0-1.11,2.5,7.72,7.72,0,0,0-.4,2.29,4.16,4.16,0,0,0,.2,1.37,2.33,2.33,0,0,1-1.88-.66,2.52,2.52,0,0,1-.54-1.63,5.38,5.38,0,0,1,.81-2.75,10.85,10.85,0,0,1,2.07-2.52,12.16,12.16,0,0,1,2.66-1.83,5.92,5.92,0,0,1,2.52-.69,1.6,1.6,0,0,1,1.47.61,2.41,2.41,0,0,1,.39,1.33,4.5,4.5,0,0,1-.1.89c-.07.29-.14.58-.23.84l-3.38,11a6.27,6.27,0,0,1,1.47-1.49c.6-.46,1.27-1,2-1.58,1.2-1,2.5-2.09,3.88-3.38s2.71-2.65,4-4.07a32.46,32.46,0,0,0,3.14-4.12,1.79,1.79,0,0,1,.28.85,6.41,6.41,0,0,1,.08.93,4.91,4.91,0,0,1-1,2.74,19.93,19.93,0,0,1-2.68,3.08,47.84,47.84,0,0,1-3.62,3.15c-1.32,1-2.62,2-3.89,2.92s-2.43,1.71-3.45,2.38c.81,1.37,1.59,2.67,2.36,3.91a43.39,43.39,0,0,0,2.5,3.63,38.34,38.34,0,0,0,3.16,3.62,58,58,0,0,0,4.4,4,2.77,2.77,0,0,1-.89.92A2.27,2.27,0,0,1,122.34,250.53Z" fill="#fff"/><path d="M129.68,250.53a3.44,3.44,0,0,1-1.9-.57,1.67,1.67,0,0,1-.89-1.45,3.72,3.72,0,0,1,.2-1.07c.14-.41.26-.8.37-1.15.86-2.63,1.66-5.09,2.42-7.37s1.5-4.5,2.25-6.65,1.56-4.3,2.4-6.45,1.8-4.4,2.84-6.74a11.91,11.91,0,0,0-2.72.83,19.41,19.41,0,0,0-1.91,1,2.73,2.73,0,0,1-1,.42,1,1,0,0,1-.46-.18,2.87,2.87,0,0,1-.55-.44.75.75,0,0,1-.24-.47c.7-.29,1.53-.61,2.48-1a24.91,24.91,0,0,1,3.08-.88,15.77,15.77,0,0,1,3.35-.37,14.31,14.31,0,0,1,3.61.49A11.52,11.52,0,0,1,146.4,220a8,8,0,0,1,2.46,2.44,6.16,6.16,0,0,1,.93,3.39,6.72,6.72,0,0,1-.93,3.6,8,8,0,0,1-2.46,2.54,14.59,14.59,0,0,1-3.3,1.66,24.71,24.71,0,0,1-3.53,1,27.22,27.22,0,0,1-3.12.45c-.92.06-1.59.1-2,.1H134c-.81,2.77-1.58,5.49-2.32,8.18S130.29,248.38,129.68,250.53Zm4.51-16.09a22.2,22.2,0,0,0,4.49-.72,16.07,16.07,0,0,0,4.18-1.76,9.77,9.77,0,0,0,3.06-2.86,6.93,6.93,0,0,0,1.17-4,5.75,5.75,0,0,0-1-3.55,6.12,6.12,0,0,0-2.7-2,9.44,9.44,0,0,0-3.57-.67,56.47,56.47,0,0,0-2.9,7.06Q135.48,230,134.19,234.44Z" fill="#fff"/><path d="M158.58,250.53a2.56,2.56,0,0,1-1.13-1.11,2.71,2.71,0,0,1-.24-1,8.41,8.41,0,0,1,.82-3.06,45.59,45.59,0,0,1,2.22-4.42q1.4-2.47,3.09-5.14c-1-.08-1.85-.13-2.54-.16s-1.31,0-1.82,0h-1.41a2.74,2.74,0,0,1,1.55-1.63,6.81,6.81,0,0,1,2.64-.47,11.36,11.36,0,0,1,1.41.09c.49.05,1,.12,1.5.2q2.06-3.11,4.21-6c1.43-2,2.78-3.68,4-5.2a38.35,38.35,0,0,1,3.12-3.45A3.25,3.25,0,0,1,178,218a2,2,0,0,1,1,.35,6.5,6.5,0,0,1,1.14.95,5.18,5.18,0,0,0-1,1.71c-.42.93-.86,2.09-1.33,3.49s-.94,2.93-1.39,4.59-.89,3.37-1.27,5.1-.7,3.38-.93,4.94a28.54,28.54,0,0,0-.34,4.11,6.56,6.56,0,0,0,.34,2.38,1.18,1.18,0,0,0,1.15.84,3.58,3.58,0,0,0,2.38-1.45,21.39,21.39,0,0,0,2.9-4.51l.4.4a16.21,16.21,0,0,1-3.08,5.28,5.35,5.35,0,0,1-3.89,2.06,2.5,2.5,0,0,1-2.4-1.47,8.7,8.7,0,0,1-.75-3.93,24.57,24.57,0,0,1,.18-2.83q.18-1.53.51-3.18c-1.18-.19-2.27-.34-3.25-.46l-2.72-.35q-1.89,3.51-3.69,7.22T158.58,250.53Zm13.26-15.12c.4-1.77.87-3.57,1.41-5.38s1.11-3.54,1.71-5.18,1.18-3.08,1.72-4.31a12.6,12.6,0,0,0-2.89,2.72,51.18,51.18,0,0,0-3.44,4.75q-1.82,2.81-3.71,6.15c.91.19,1.82.4,2.72.62Z" fill="#fff"/><path d="M184.14,248.79a4.46,4.46,0,0,1-4.92-4.67,9.39,9.39,0,0,1,.9-3.83,16.12,16.12,0,0,1,2.42-3.79,14,14,0,0,1,3.33-2.88,6.83,6.83,0,0,1,3.59-1.11,3.23,3.23,0,0,1,1.71.48,2.16,2.16,0,0,1,.79,2,5.11,5.11,0,0,1-.91,2.88,9.51,9.51,0,0,1-2.38,2.4,14.17,14.17,0,0,1-3.22,1.71,13.61,13.61,0,0,1-3.49.83,6,6,0,0,0,0,2.66,3,3,0,0,0,.5,1.1,2.44,2.44,0,0,0,1,.79,3.74,3.74,0,0,0,1.55.28,6.81,6.81,0,0,0,3.43-1,13.13,13.13,0,0,0,3.14-2.6,17,17,0,0,0,2.46-3.55l.49.36a15.05,15.05,0,0,1-2.77,4.19,12.77,12.77,0,0,1-3.62,2.76A8.73,8.73,0,0,1,184.14,248.79Zm-2-6.77a17.18,17.18,0,0,0,2.46-1.07,17.69,17.69,0,0,0,2.64-1.67,9.87,9.87,0,0,0,2.1-2.14,4.17,4.17,0,0,0,.82-2.46A1.2,1.2,0,0,0,190,234a.79.79,0,0,0-.68-.24,3.74,3.74,0,0,0-2.06.74,10.58,10.58,0,0,0-2.1,2,17,17,0,0,0-1.81,2.66A13.25,13.25,0,0,0,182.16,242Z" fill="#fff"/><path d="M197.44,249.07a4.88,4.88,0,0,1-3-.82,4.54,4.54,0,0,1-1.58-2,6.64,6.64,0,0,1-.46-2.41,4.35,4.35,0,0,1,.32-1.86,2.61,2.61,0,0,1,.79-1,4.35,4.35,0,0,1,.89-.48,2,2,0,0,0,.58-.32,28,28,0,0,0,2.22-2.79,21,21,0,0,0,1.77-3.06v-.48a3.4,3.4,0,0,1,.51-2.12,1.37,1.37,0,0,1,1.06-.62.66.66,0,0,1,.49.16.54.54,0,0,1,.16.36,2.83,2.83,0,0,1-.12.65,4.35,4.35,0,0,0-.12,1.12,9.07,9.07,0,0,0,.52,2.89c.35,1,.7,2.12,1.05,3.26a12.09,12.09,0,0,1,.52,3.57,8.77,8.77,0,0,1-.06,1,6.53,6.53,0,0,1-.18.94,5.68,5.68,0,0,0,2.66-1.26,10.53,10.53,0,0,0,2.42-3.29l.36.4A6.94,6.94,0,0,1,206,244.3a7.54,7.54,0,0,1-3.35,1.43,4.69,4.69,0,0,1-2,2.54A6.07,6.07,0,0,1,197.44,249.07Zm.08-1.4a3.67,3.67,0,0,0,1.29-.33,2.44,2.44,0,0,0,1.25-1.65,7,7,0,0,1-3-1.33,8,8,0,0,1-2-2c-.59,0-.89.5-.89,1.41a4.52,4.52,0,0,0,.87,2.68A2.82,2.82,0,0,0,197.52,247.67Zm2.74-2.63a7.07,7.07,0,0,0,.12-.84c0-.3,0-.65,0-1a15.62,15.62,0,0,0-.46-3.77c-.31-1.25-.57-2.42-.79-3.53-.62,1-1.27,2-1.95,2.93a20.71,20.71,0,0,1-2,2.31,7.47,7.47,0,0,0,1.88,2.42A6.55,6.55,0,0,0,200.26,245Z" fill="#fff"/><path d="M210.54,248.87a3.43,3.43,0,0,1-2.66-1,4.28,4.28,0,0,1-.93-3,14.87,14.87,0,0,1,.34-2.9c.23-1.13.54-2.33.93-3.61s.81-2.52,1.27-3.73a3,3,0,0,1-.77-.26c-.24-.12-.47-.22-.68-.3v-.73a3.69,3.69,0,0,1,.76.21,4.3,4.3,0,0,0,1,.2,55,55,0,0,1,2.4-5.36,25.94,25.94,0,0,1,2.44-4c.78-1,1.44-1.49,2-1.49a.89.89,0,0,1,.58.23.82.82,0,0,1,.26.66,3.09,3.09,0,0,1-.32,1.15,19.47,19.47,0,0,1-.89,1.75c-.37.68-.79,1.41-1.25,2.22l-1.45,2.58c-.51.91-1,1.87-1.45,2.86.67.11,1.32.2,2,.28a15.45,15.45,0,0,0,2,.13,17.9,17.9,0,0,0,2.34-.17c.83-.1,1.79-.26,2.86-.48q1-2.86,2.36-5.68c.87-1.88,1.76-3.6,2.66-5.14a23.47,23.47,0,0,1,2.58-3.71c.82-.93,1.52-1.39,2.12-1.39a1.07,1.07,0,0,1,1,.86,5.17,5.17,0,0,1,.31,1.68,9.83,9.83,0,0,1-.71,3.32,24.09,24.09,0,0,1-1.91,4,23.1,23.1,0,0,1-2.81,3.79,15.38,15.38,0,0,1-3.36,2.84,25.58,25.58,0,0,0-1.15,3.55,28.86,28.86,0,0,0-.71,4,15.56,15.56,0,0,0,0,3.25,42.34,42.34,0,0,1,2.18-5.16,14.13,14.13,0,0,1,2.72-3.83,4.66,4.66,0,0,1,3.29-1.45,2.56,2.56,0,0,1,2.36,1.15,4.62,4.62,0,0,1,.7,2.47,7.08,7.08,0,0,1-.42,2.42c-.28.78-.57,1.53-.87,2.26a5.5,5.5,0,0,0-.44,2.1,1.69,1.69,0,0,0,.34,1.17,1.15,1.15,0,0,0,.87.36,3.55,3.55,0,0,0,2.07-.89,12.29,12.29,0,0,0,2.28-2.36,17.49,17.49,0,0,0,1.94-3.2l.52.48a16.82,16.82,0,0,1-2.06,3.57,10.32,10.32,0,0,1-2.66,2.52,5.51,5.51,0,0,1-3,.93,2.76,2.76,0,0,1-2.08-.73,2.49,2.49,0,0,1-.7-1.81,6.35,6.35,0,0,1,.32-1.9c.22-.7.42-1.41.62-2.13a7.47,7.47,0,0,0,.31-2.06,2,2,0,0,0-.45-1.49,1.44,1.44,0,0,0-1.09-.44,2.49,2.49,0,0,0-1.81.8,8.32,8.32,0,0,0-1.47,2.08c-.44.84-.86,1.74-1.25,2.68l-1.11,2.68a12.88,12.88,0,0,1-1,2.08c-.35.53-.71.8-1.08.8a1,1,0,0,1-.81-.44,3.47,3.47,0,0,1-.59-1.25,9,9,0,0,1-.26-1.88,15,15,0,0,1,.12-2.27,14.59,14.59,0,0,1-3.76,4.43A7.62,7.62,0,0,1,210.54,248.87Zm1.17-1.49a6.11,6.11,0,0,0,4.11-1.85,16.56,16.56,0,0,0,3.55-5c.18-.89.38-1.73.58-2.54s.48-1.71.83-2.7a20.79,20.79,0,0,1-2.6.44c-.82.08-1.61.12-2.36.12a14.61,14.61,0,0,1-2.14-.14q-1-.13-2-.3a35.24,35.24,0,0,0-1.57,4.39,16,16,0,0,0-.65,4.4,4.47,4.47,0,0,0,.52,2.48A2,2,0,0,0,211.71,247.38ZM224,233.11a15.9,15.9,0,0,0,2.64-2.72,30.56,30.56,0,0,0,2.2-3.26,21.85,21.85,0,0,0,1.51-3.11,6.87,6.87,0,0,0,.55-2.19c0-.22-.06-.33-.17-.33s-.55.3-1.08.89a20,20,0,0,0-1.84,2.46,32.37,32.37,0,0,0-2,3.69A33.17,33.17,0,0,0,224,233.11Z" fill="#fff"/><path d="M242.18,248.79a4.75,4.75,0,0,1-3.69-1.35,4.8,4.8,0,0,1-1.23-3.32,9.41,9.41,0,0,1,.91-3.83,15.8,15.8,0,0,1,2.42-3.79,14,14,0,0,1,3.33-2.88,6.82,6.82,0,0,1,3.58-1.11,3.26,3.26,0,0,1,1.72.48,2.15,2.15,0,0,1,.78,2,5.1,5.1,0,0,1-.9,2.88,9.51,9.51,0,0,1-2.38,2.4,14,14,0,0,1-3.23,1.71,13.44,13.44,0,0,1-3.48.83c-.06.27-.1.52-.13.76s0,.47,0,.69a5.05,5.05,0,0,0,.14,1.21,3,3,0,0,0,.5,1.1,2.37,2.37,0,0,0,1,.79,3.7,3.7,0,0,0,1.55.28,6.81,6.81,0,0,0,3.43-1,13.53,13.53,0,0,0,3.14-2.6,17,17,0,0,0,2.46-3.55l.48.36a14.81,14.81,0,0,1-2.76,4.19,12.68,12.68,0,0,1-3.63,2.76A8.67,8.67,0,0,1,242.18,248.79Zm-2-6.77a18.21,18.21,0,0,0,2.46-1.07,17.69,17.69,0,0,0,2.64-1.67,10,10,0,0,0,2.09-2.14,4.19,4.19,0,0,0,.83-2.46,1.29,1.29,0,0,0-.16-.68.79.79,0,0,0-.69-.24,3.71,3.71,0,0,0-2,.74,10.31,10.31,0,0,0-2.1,2,17,17,0,0,0-1.81,2.66A13.25,13.25,0,0,0,240.21,242Z" fill="#fff"/><path d="M254.68,248.87a3.43,3.43,0,0,1-2.66-1,4.28,4.28,0,0,1-.93-3,17.9,17.9,0,0,1,.67-4.37,55,55,0,0,1,1.67-5.34l-.77-.14a3.57,3.57,0,0,1-.68-.18v-.73l.77.08,1,.08c.57-1.45,1.17-2.85,1.82-4.21s1.28-2.57,1.91-3.63a15.42,15.42,0,0,1,1.82-2.54c.57-.63,1.06-1,1.47-1a.87.87,0,0,1,.58.23.79.79,0,0,1,.26.66,5.7,5.7,0,0,1-.84,2.24q-.86,1.54-2.1,3.69c-.83,1.42-1.64,3-2.42,4.63h1.49c.89,0,1.82,0,2.81,0s2-.09,3-.2v.73c-1.48.16-2.8.28-4,.36s-2.21.12-3.13.12h-.6a35.24,35.24,0,0,0-1.57,4.39,16,16,0,0,0-.65,4.4,4.37,4.37,0,0,0,.53,2.48,2,2,0,0,0,1.73.74,6.11,6.11,0,0,0,4.11-1.85,16.56,16.56,0,0,0,3.55-5l.52.4a16.92,16.92,0,0,1-2.44,4.07,12.22,12.22,0,0,1-3.24,2.87A7.2,7.2,0,0,1,254.68,248.87Z" fill="#fff"/><path d="M265.65,248.07a2.77,2.77,0,0,1-2.34-1,3.81,3.81,0,0,1-.77-2.4,10.76,10.76,0,0,1,.34-2.34,28,28,0,0,1,.91-3,21.55,21.55,0,0,1,1.31-2.92,10.24,10.24,0,0,1,1.59-2.24,2.41,2.41,0,0,1,1.66-.87.93.93,0,0,1,.62.23.79.79,0,0,1,.26.66,3.88,3.88,0,0,1-.62,1.57c-.42.73-.91,1.56-1.47,2.5a19.53,19.53,0,0,0-1.47,3,7.85,7.85,0,0,0-.63,3,2.81,2.81,0,0,0,.48,1.93,2,2,0,0,0,1.5.49,4.6,4.6,0,0,0,2.92-1.37,16.59,16.59,0,0,0,3.28-4.8l.37.4a11.64,11.64,0,0,1-3.37,5.32A7,7,0,0,1,265.65,248.07Zm4.83-18.46a2.06,2.06,0,0,1-1.15-.33,1.11,1.11,0,0,1-.5-1,1.78,1.78,0,0,1,1-1.48,3.69,3.69,0,0,1,1.95-.62,1.53,1.53,0,0,1,1,.28,1.16,1.16,0,0,1,.36,1,2,2,0,0,1-.82,1.47A2.72,2.72,0,0,1,270.48,229.61Z" fill="#fff"/><path d="M276.77,249.28a4.36,4.36,0,0,1-3.22-1.29,5.26,5.26,0,0,1-1.29-3.87,10.28,10.28,0,0,1,.78-3.93,13.05,13.05,0,0,1,2.08-3.45A10.9,10.9,0,0,1,278,234.3a6.23,6.23,0,0,1,3.1-.91,2.46,2.46,0,0,1,2.26,1,3.81,3.81,0,0,1,.61,2,3.77,3.77,0,0,1-.55,2.05,1.66,1.66,0,0,1-1.47.89,1.45,1.45,0,0,1-1.17-.6,2.68,2.68,0,0,0,1.05-1.31,4.7,4.7,0,0,0,.44-1.88,1.34,1.34,0,0,0-.18-.75.82.82,0,0,0-.7-.26,3.56,3.56,0,0,0-2.24,1A11,11,0,0,0,277,238a16.7,16.7,0,0,0-1.61,3.22,9.21,9.21,0,0,0-.63,3.19,4.57,4.57,0,0,0,.61,2.3,2.46,2.46,0,0,0,2.34,1.05,6.77,6.77,0,0,0,3.24-.89,10.84,10.84,0,0,0,3.05-2.54,13,13,0,0,0,2.25-3.87l.53.4a15.1,15.1,0,0,1-2.54,4.33,13.09,13.09,0,0,1-3.55,3A8,8,0,0,1,276.77,249.28Z" fill="#fff"/><path d="M289.71,249.07a4.92,4.92,0,0,1-3-.82,4.45,4.45,0,0,1-1.57-2,6.66,6.66,0,0,1-.47-2.41,4.35,4.35,0,0,1,.32-1.86,2.61,2.61,0,0,1,.79-1,4.62,4.62,0,0,1,.89-.48,2,2,0,0,0,.58-.32,26.62,26.62,0,0,0,2.22-2.79,21,21,0,0,0,1.77-3.06v-.48a3.4,3.4,0,0,1,.51-2.12,1.37,1.37,0,0,1,1.06-.62.66.66,0,0,1,.49.16.5.5,0,0,1,.16.36,2.83,2.83,0,0,1-.12.65,4.35,4.35,0,0,0-.12,1.12,9.07,9.07,0,0,0,.52,2.89c.35,1,.7,2.12,1.05,3.26a12.09,12.09,0,0,1,.52,3.57,8.77,8.77,0,0,1-.06,1,6.53,6.53,0,0,1-.18.94,5.68,5.68,0,0,0,2.66-1.26,10.37,10.37,0,0,0,2.42-3.29l.36.4a6.88,6.88,0,0,1-2.29,3.37,7.5,7.5,0,0,1-3.35,1.43,4.71,4.71,0,0,1-2,2.54A6.1,6.1,0,0,1,289.71,249.07Zm.08-1.4a3.67,3.67,0,0,0,1.29-.33,2.44,2.44,0,0,0,1.25-1.65,7,7,0,0,1-3-1.33,8,8,0,0,1-2-2c-.59,0-.88.5-.88,1.41a4.57,4.57,0,0,0,.86,2.68A2.82,2.82,0,0,0,289.79,247.67Zm2.74-2.63a5.48,5.48,0,0,0,.12-.84c0-.3,0-.65,0-1a15.62,15.62,0,0,0-.46-3.77c-.31-1.25-.57-2.42-.79-3.53-.61,1-1.27,2-1.95,2.93a20.71,20.71,0,0,1-2,2.31,7.61,7.61,0,0,0,1.88,2.42A6.64,6.64,0,0,0,292.53,245Z" fill="#fff"/><rect x="50.51" y="191.27" width="298.98" height="88.24" fill="none" stroke="#fff" stroke-miterlimit="10" stroke-width="1.8"/><path d="M101.77,302.09A3.47,3.47,0,0,1,99.14,301a4,4,0,0,1-1-2.83V298a4.77,4.77,0,0,1,.45-2.11,3.56,3.56,0,0,1,1.26-1.45,3.26,3.26,0,0,1,1.76-.52,3,3,0,0,1,2.4,1,4.41,4.41,0,0,1,.86,2.91v.57H99.49a2.84,2.84,0,0,0,.68,1.89,2.17,2.17,0,0,0,1.67.72,2.35,2.35,0,0,0,1.22-.29,3.21,3.21,0,0,0,.87-.78l.82.65A3.32,3.32,0,0,1,101.77,302.09ZM101.6,295a1.8,1.8,0,0,0-1.38.6,2.94,2.94,0,0,0-.69,1.67h4v-.1a2.6,2.6,0,0,0-.55-1.6A1.72,1.72,0,0,0,101.6,295Z" fill="#fff"/><path d="M109.08,296.91l1.76-2.89h1.58l-2.59,3.92,2.67,4h-1.56l-1.84-3-1.83,3H105.7l2.67-4L105.78,294h1.57Z" fill="#fff"/><path d="M120.55,298.07a4.67,4.67,0,0,1-.83,2.91,2.64,2.64,0,0,1-2.24,1.11,2.91,2.91,0,0,1-2.27-.92V305h-1.35V294h1.24l.06.88a2.78,2.78,0,0,1,2.3-1,2.7,2.7,0,0,1,2.26,1.08,4.73,4.73,0,0,1,.83,3Zm-1.35-.16a3.48,3.48,0,0,0-.57-2.11,1.85,1.85,0,0,0-1.57-.78,2,2,0,0,0-1.85,1.09v3.79a2,2,0,0,0,1.86,1.08,1.81,1.81,0,0,0,1.55-.77A3.79,3.79,0,0,0,119.2,297.91Z" fill="#fff"/><path d="M123.75,301.94h-1.36V290.69h1.36Z" fill="#fff"/><path d="M125.56,297.91a4.76,4.76,0,0,1,.45-2.1,3.37,3.37,0,0,1,1.28-1.43,3.42,3.42,0,0,1,1.86-.51,3.34,3.34,0,0,1,2.62,1.12,4.3,4.3,0,0,1,1,3v.1a4.76,4.76,0,0,1-.44,2.07,3.42,3.42,0,0,1-1.27,1.44,3.52,3.52,0,0,1-1.89.51,3.34,3.34,0,0,1-2.62-1.12,4.33,4.33,0,0,1-1-3Zm1.36.16a3.35,3.35,0,0,0,.61,2.11,1.94,1.94,0,0,0,1.64.8,2,2,0,0,0,1.64-.81,3.73,3.73,0,0,0,.6-2.26,3.42,3.42,0,0,0-.61-2.12,2,2,0,0,0-1.65-.81,2,2,0,0,0-1.62.8A3.69,3.69,0,0,0,126.92,298.07Z" fill="#fff"/><path d="M138.3,295.23a4.68,4.68,0,0,0-.67-.05,1.79,1.79,0,0,0-1.81,1.14v5.62h-1.35V294h1.32l0,.91a2.11,2.11,0,0,1,1.89-1.06,1.38,1.38,0,0,1,.6.1Z" fill="#fff"/><path d="M142.69,302.09a3.46,3.46,0,0,1-2.62-1.06,4,4,0,0,1-1-2.83V298a4.77,4.77,0,0,1,.45-2.11,3.56,3.56,0,0,1,1.26-1.45,3.26,3.26,0,0,1,1.76-.52,3,3,0,0,1,2.4,1,4.41,4.41,0,0,1,.85,2.91v.57h-5.36a2.79,2.79,0,0,0,.68,1.89,2.16,2.16,0,0,0,1.67.72,2.28,2.28,0,0,0,1.21-.29,3.07,3.07,0,0,0,.87-.78l.83.65A3.32,3.32,0,0,1,142.69,302.09Zm-.16-7.11a1.8,1.8,0,0,0-1.38.6,2.94,2.94,0,0,0-.69,1.67h4v-.1a2.6,2.6,0,0,0-.56-1.6A1.69,1.69,0,0,0,142.53,295Z" fill="#fff"/><path d="M156,301.94a2.74,2.74,0,0,1-.19-.83,3,3,0,0,1-2.26,1,2.8,2.8,0,0,1-1.92-.66,2.17,2.17,0,0,1-.75-1.69,2.24,2.24,0,0,1,.94-1.92,4.49,4.49,0,0,1,2.65-.68h1.32v-.63a1.54,1.54,0,0,0-.43-1.13,1.7,1.7,0,0,0-1.25-.42,2,2,0,0,0-1.22.37,1.09,1.09,0,0,0-.49.88H151a1.87,1.87,0,0,1,.42-1.14,2.91,2.91,0,0,1,1.14-.88,3.93,3.93,0,0,1,1.59-.32,3.09,3.09,0,0,1,2.14.69,2.44,2.44,0,0,1,.81,1.88v3.65a4.3,4.3,0,0,0,.28,1.73v.12Zm-2.25-1a2.4,2.4,0,0,0,1.21-.33,2.08,2.08,0,0,0,.83-.86V298.1h-1.07c-1.66,0-2.49.48-2.49,1.45a1.22,1.22,0,0,0,.43,1A1.61,1.61,0,0,0,153.71,300.91Z" fill="#fff"/><path d="M164.22,294l0,1a2.9,2.9,0,0,1,2.38-1.14c1.67,0,2.52.94,2.53,2.84v5.23h-1.35V296.7a1.84,1.84,0,0,0-.4-1.27,1.56,1.56,0,0,0-1.19-.41,2,2,0,0,0-1.16.35,2.45,2.45,0,0,0-.78.93v5.64h-1.35V294Z" fill="#fff"/><path d="M174.5,302.09a3.44,3.44,0,0,1-2.62-1.06,4,4,0,0,1-1-2.83V298a4.77,4.77,0,0,1,.45-2.11,3.56,3.56,0,0,1,1.26-1.45,3.23,3.23,0,0,1,1.75-.52,3,3,0,0,1,2.41,1,4.41,4.41,0,0,1,.85,2.91v.57h-5.37a2.8,2.8,0,0,0,.69,1.89,2.16,2.16,0,0,0,1.67.72,2.31,2.31,0,0,0,1.21-.29,3.21,3.21,0,0,0,.87-.78l.83.65A3.32,3.32,0,0,1,174.5,302.09Zm-.17-7.11a1.8,1.8,0,0,0-1.37.6,2.94,2.94,0,0,0-.69,1.67h4v-.1a2.6,2.6,0,0,0-.56-1.6A1.7,1.7,0,0,0,174.33,295Z" fill="#fff"/><path d="M186.18,300.07,187.7,294h1.36l-2.31,7.92h-1.1l-1.93-6-1.87,6h-1.1l-2.3-7.92h1.35l1.56,5.93L183.2,294h1.1Z" fill="#fff"/><path d="M198.76,299.84a1,1,0,0,0-.41-.85,3.94,3.94,0,0,0-1.45-.53,6.8,6.8,0,0,1-1.63-.52,2.31,2.31,0,0,1-.89-.74,1.69,1.69,0,0,1-.29-1,2.05,2.05,0,0,1,.82-1.65,3.7,3.7,0,0,1,4.29,0,2.19,2.19,0,0,1,.84,1.78h-1.36a1.24,1.24,0,0,0-.47-1A1.77,1.77,0,0,0,197,295a1.82,1.82,0,0,0-1.16.33,1,1,0,0,0-.42.84.82.82,0,0,0,.39.74,5,5,0,0,0,1.4.47,7.72,7.72,0,0,1,1.65.55,2.4,2.4,0,0,1,.93.75,1.91,1.91,0,0,1,.31,1.08,2.06,2.06,0,0,1-.85,1.71,3.64,3.64,0,0,1-2.21.64,3.91,3.91,0,0,1-1.68-.34,2.75,2.75,0,0,1-1.15-.94,2.23,2.23,0,0,1-.41-1.31h1.35a1.4,1.4,0,0,0,.55,1.08,2.08,2.08,0,0,0,1.34.4,2.19,2.19,0,0,0,1.24-.31A1,1,0,0,0,198.76,299.84Z" fill="#fff"/><path d="M205.17,302.09a3.43,3.43,0,0,1-2.62-1.06,3.91,3.91,0,0,1-1-2.83V298a4.77,4.77,0,0,1,.45-2.11,3.56,3.56,0,0,1,1.26-1.45,3.23,3.23,0,0,1,1.75-.52,3,3,0,0,1,2.4,1,4.41,4.41,0,0,1,.86,2.91v.57h-5.37a2.8,2.8,0,0,0,.69,1.89,2.14,2.14,0,0,0,1.66.72,2.32,2.32,0,0,0,1.22-.29,3.21,3.21,0,0,0,.87-.78l.83.65A3.34,3.34,0,0,1,205.17,302.09ZM205,295a1.8,1.8,0,0,0-1.38.6,2.87,2.87,0,0,0-.68,1.67h4v-.1a2.6,2.6,0,0,0-.56-1.6A1.7,1.7,0,0,0,205,295Z" fill="#fff"/><path d="M211.11,294l0,1a2.9,2.9,0,0,1,2.38-1.14c1.67,0,2.52.94,2.53,2.84v5.23h-1.35V296.7a1.84,1.84,0,0,0-.4-1.27,1.56,1.56,0,0,0-1.19-.41,2,2,0,0,0-1.16.35,2.45,2.45,0,0,0-.78.93v5.64h-1.35V294Z" fill="#fff"/><path d="M222.72,299.84a1,1,0,0,0-.42-.85,3.81,3.81,0,0,0-1.44-.53,6.66,6.66,0,0,1-1.63-.52,2.42,2.42,0,0,1-.9-.74,1.77,1.77,0,0,1-.29-1,2.06,2.06,0,0,1,.83-1.65,3.7,3.7,0,0,1,4.29,0,2.19,2.19,0,0,1,.84,1.78h-1.36a1.22,1.22,0,0,0-.48-1A1.76,1.76,0,0,0,221,295a1.81,1.81,0,0,0-1.15.33,1,1,0,0,0-.42.84.82.82,0,0,0,.39.74,4.9,4.9,0,0,0,1.4.47,7.62,7.62,0,0,1,1.64.55,2.44,2.44,0,0,1,.94.75,1.9,1.9,0,0,1,.3,1.08,2,2,0,0,1-.85,1.71,3.59,3.59,0,0,1-2.2.64,3.92,3.92,0,0,1-1.69-.34,2.72,2.72,0,0,1-1.14-.94,2.24,2.24,0,0,1-.42-1.31h1.36a1.36,1.36,0,0,0,.54,1.08,2.11,2.11,0,0,0,1.35.4,2.16,2.16,0,0,0,1.23-.31A1,1,0,0,0,222.72,299.84Z" fill="#fff"/><path d="M229.13,302.09A3.47,3.47,0,0,1,226.5,301a4,4,0,0,1-1-2.83V298a4.77,4.77,0,0,1,.45-2.11,3.56,3.56,0,0,1,1.26-1.45,3.26,3.26,0,0,1,1.76-.52,3,3,0,0,1,2.4,1,4.41,4.41,0,0,1,.86,2.91v.57h-5.37a2.84,2.84,0,0,0,.68,1.89,2.17,2.17,0,0,0,1.67.72,2.35,2.35,0,0,0,1.22-.29,3.21,3.21,0,0,0,.87-.78l.83.65A3.35,3.35,0,0,1,229.13,302.09ZM229,295a1.8,1.8,0,0,0-1.38.6,2.94,2.94,0,0,0-.69,1.67h4v-.1a2.6,2.6,0,0,0-.55-1.6A1.72,1.72,0,0,0,229,295Z" fill="#fff"/><path d="M237.14,297.91a4.63,4.63,0,0,1,.46-2.1,3.35,3.35,0,0,1,1.27-1.43,3.48,3.48,0,0,1,1.87-.51,3.32,3.32,0,0,1,2.61,1.12,4.3,4.3,0,0,1,1,3v.1a4.63,4.63,0,0,1-.44,2.07,3.36,3.36,0,0,1-1.27,1.44,3.52,3.52,0,0,1-1.89.51,3.33,3.33,0,0,1-2.61-1.12,4.29,4.29,0,0,1-1-3Zm1.36.16a3.35,3.35,0,0,0,.61,2.11,2.07,2.07,0,0,0,3.28,0,3.66,3.66,0,0,0,.61-2.26,3.42,3.42,0,0,0-.62-2.12,2.05,2.05,0,0,0-3.26,0A3.69,3.69,0,0,0,238.5,298.07Z" fill="#fff"/><path d="M246.72,301.94v-6.88h-1.25v-1h1.25v-.82a2.72,2.72,0,0,1,.68-2,2.59,2.59,0,0,1,1.93-.69,3.71,3.71,0,0,1,.93.12l-.08,1.09a4.23,4.23,0,0,0-.73-.06,1.35,1.35,0,0,0-1,.38,1.58,1.58,0,0,0-.36,1.11V294h1.7v1h-1.7v6.88Z" fill="#fff"/><path d="M255.64,301.94v-6.88h-1.25v-1h1.25v-.82a2.72,2.72,0,0,1,.68-2,2.59,2.59,0,0,1,1.93-.69,3.71,3.71,0,0,1,.93.12l-.08,1.09a4.23,4.23,0,0,0-.73-.06,1.35,1.35,0,0,0-1,.38,1.58,1.58,0,0,0-.36,1.11V294h1.7v1H257v6.88Z" fill="#fff"/><path d="M265.07,301.94a2.74,2.74,0,0,1-.19-.83,3,3,0,0,1-2.25,1,2.81,2.81,0,0,1-1.93-.66,2.17,2.17,0,0,1-.75-1.69,2.26,2.26,0,0,1,.94-1.92,4.49,4.49,0,0,1,2.65-.68h1.32v-.63a1.53,1.53,0,0,0-.42-1.13,1.74,1.74,0,0,0-1.26-.42,1.92,1.92,0,0,0-1.21.37,1.06,1.06,0,0,0-.49.88h-1.37a1.83,1.83,0,0,1,.43-1.14,2.91,2.91,0,0,1,1.14-.88,3.91,3.91,0,0,1,1.58-.32,3.12,3.12,0,0,1,2.15.69,2.4,2.4,0,0,1,.8,1.88v3.65a4.49,4.49,0,0,0,.28,1.73v.12Zm-2.25-1a2.37,2.37,0,0,0,1.21-.33,2,2,0,0,0,.83-.86V298.1H263.8c-1.66,0-2.49.48-2.49,1.45a1.24,1.24,0,0,0,.42,1A1.65,1.65,0,0,0,262.82,300.91Z" fill="#fff"/><path d="M273,299.84a1,1,0,0,0-.41-.85,4,4,0,0,0-1.44-.53,6.9,6.9,0,0,1-1.64-.52,2.31,2.31,0,0,1-.89-.74,1.77,1.77,0,0,1-.29-1,2.05,2.05,0,0,1,.82-1.65,3.72,3.72,0,0,1,4.3,0,2.21,2.21,0,0,1,.83,1.78h-1.36a1.24,1.24,0,0,0-.47-1,1.77,1.77,0,0,0-1.19-.41,1.84,1.84,0,0,0-1.16.33,1,1,0,0,0-.42.84.82.82,0,0,0,.39.74,5,5,0,0,0,1.4.47,7.72,7.72,0,0,1,1.65.55,2.4,2.4,0,0,1,.93.75,1.83,1.83,0,0,1,.31,1.08,2.06,2.06,0,0,1-.85,1.71,3.62,3.62,0,0,1-2.21.64,3.91,3.91,0,0,1-1.68-.34,2.75,2.75,0,0,1-1.15-.94,2.31,2.31,0,0,1-.41-1.31h1.35a1.4,1.4,0,0,0,.55,1.08,2.1,2.1,0,0,0,1.34.4,2.17,2.17,0,0,0,1.24-.31A1,1,0,0,0,273,299.84Z" fill="#fff"/><path d="M277.43,295a2.87,2.87,0,0,1,2.34-1.11c1.68,0,2.52.94,2.53,2.84v5.23H281V296.7a1.84,1.84,0,0,0-.39-1.27,1.6,1.6,0,0,0-1.2-.41,2,2,0,0,0-1.16.35,2.34,2.34,0,0,0-.77.93v5.64h-1.36V290.69h1.36Z" fill="#fff"/><path d="M284.34,291.91a.83.83,0,0,1,.2-.55.81.81,0,0,1,1.41.55.74.74,0,0,1-.21.55.8.8,0,0,1-1.4-.55Zm1.47,10h-1.36V294h1.36Z" fill="#fff"/><path d="M287.62,297.91a4.76,4.76,0,0,1,.45-2.1,3.37,3.37,0,0,1,1.28-1.43,3.42,3.42,0,0,1,1.86-.51,3.34,3.34,0,0,1,2.62,1.12,4.3,4.3,0,0,1,1,3v.1a4.76,4.76,0,0,1-.44,2.07,3.42,3.42,0,0,1-1.27,1.44,3.52,3.52,0,0,1-1.89.51,3.3,3.3,0,0,1-2.61-1.12,4.29,4.29,0,0,1-1-3Zm1.36.16a3.35,3.35,0,0,0,.61,2.11,1.94,1.94,0,0,0,1.64.8,2,2,0,0,0,1.64-.81,3.73,3.73,0,0,0,.6-2.26,3.42,3.42,0,0,0-.61-2.12,2,2,0,0,0-1.65-.81,2,2,0,0,0-1.62.8A3.69,3.69,0,0,0,289,298.07Z" fill="#fff"/><path d="M297.81,294l.05,1a2.87,2.87,0,0,1,2.37-1.14c1.67,0,2.52.94,2.53,2.84v5.23h-1.35V296.7a1.89,1.89,0,0,0-.39-1.27,1.6,1.6,0,0,0-1.2-.41,2,2,0,0,0-1.16.35,2.45,2.45,0,0,0-.78.93v5.64h-1.35V294Z" fill="#fff"/><path d="M16,490.27a6.48,6.48,0,0,0,5.28-2.55l2.81,2.89a10.23,10.23,0,0,1-7.88,3.76,10.26,10.26,0,0,1-7.47-2.86,10.37,10.37,0,0,1,0-14.52,10.1,10.1,0,0,1,7.32-2.93,10.38,10.38,0,0,1,8.09,3.68l-2.72,3.09a6.4,6.4,0,0,0-5.17-2.58,6.05,6.05,0,0,0-4.23,1.61,5.64,5.64,0,0,0-1.75,4.36A5.94,5.94,0,0,0,12,488.61,5.47,5.47,0,0,0,16,490.27Z" fill="none" stroke="#fff" stroke-miterlimit="10" stroke-width="1.12"/><path d="M27.52,494.15V474.51h4.39v15.73h8.37v3.91Z" fill="none" stroke="#fff" stroke-miterlimit="10" stroke-width="1.12"/><path d="M59.46,491.44a10.71,10.71,0,0,1-14.66,0,10.27,10.27,0,0,1,0-14.47,10.69,10.69,0,0,1,14.66,0,10.27,10.27,0,0,1,0,14.47ZM58,484.22a6.43,6.43,0,0,0-1.68-4.48,5.55,5.55,0,0,0-8.29,0,6.8,6.8,0,0,0,0,8.95,5.61,5.61,0,0,0,8.29,0A6.4,6.4,0,0,0,58,484.22Z" fill="none" stroke="#fff" stroke-miterlimit="10" stroke-width="1.12"/><path d="M73.93,478.31v15.84H69.55V478.31H64v-3.8h15.5v3.8Z" fill="none" stroke="#fff" stroke-miterlimit="10" stroke-width="1.12"/><path d="M94.88,474.51h4.39v19.64H94.88v-7.73H87.07v7.73H82.69V474.51h4.38v8.21h7.81Z" fill="none" stroke="#fff" stroke-miterlimit="10" stroke-width="1.12"/><path d="M118.25,474.51v3.91h-9.77v4h8.79v3.74h-8.79v4.07h10.08v3.88H104.1V474.51Z" fill="none" stroke="#fff" stroke-miterlimit="10" stroke-width="1.12"/><path d="M127.06,478.43a1.71,1.71,0,0,0-.63,1.38,1.57,1.57,0,0,0,.77,1.36,13.7,13.7,0,0,0,3.57,1.19,10,10,0,0,1,4.34,2.07,5.11,5.11,0,0,1,1.54,4,5.3,5.3,0,0,1-2,4.28,7.86,7.86,0,0,1-5.21,1.64,12.07,12.07,0,0,1-8.4-3.45l2.62-3.2q3.16,2.77,5.87,2.78a3.12,3.12,0,0,0,1.89-.52,1.68,1.68,0,0,0,.69-1.41,1.61,1.61,0,0,0-.73-1.4,9.53,9.53,0,0,0-2.89-1.06,12.56,12.56,0,0,1-5-2.12,5,5,0,0,1-1.58-4.1,5.1,5.1,0,0,1,2-4.31,8.1,8.1,0,0,1,5-1.52,12,12,0,0,1,3.93.68,10.52,10.52,0,0,1,3.43,1.91l-2.22,3.2a8.69,8.69,0,0,0-5.28-1.94A2.68,2.68,0,0,0,127.06,478.43Z" fill="none" stroke="#fff" stroke-miterlimit="10" stroke-width="1.12"/><path d="M16,462.36a6.48,6.48,0,0,0,5.28-2.55l2.81,2.89a10.23,10.23,0,0,1-7.88,3.76,10.26,10.26,0,0,1-7.47-2.86,10.37,10.37,0,0,1,0-14.52,10.1,10.1,0,0,1,7.32-2.93,10.38,10.38,0,0,1,8.09,3.68l-2.72,3.09a6.4,6.4,0,0,0-5.17-2.58A6.05,6.05,0,0,0,12.06,452a5.64,5.64,0,0,0-1.75,4.36A5.94,5.94,0,0,0,12,460.7,5.47,5.47,0,0,0,16,462.36Z" fill="#fff"/><path d="M27.52,466.24V446.6h4.39v15.73h8.37v3.91Z" fill="#fff"/><path d="M59.46,463.53a10.71,10.71,0,0,1-14.66,0,10.27,10.27,0,0,1,0-14.47,10.69,10.69,0,0,1,14.66,0,10.27,10.27,0,0,1,0,14.47ZM58,456.31a6.43,6.43,0,0,0-1.68-4.48,5.55,5.55,0,0,0-8.29,0,6.43,6.43,0,0,0-1.68,4.48A6.36,6.36,0,0,0,48,460.77a5.59,5.59,0,0,0,8.29,0A6.36,6.36,0,0,0,58,456.31Z" fill="#fff"/><path d="M73.93,450.4v15.84H69.55V450.4H64v-3.8h15.5v3.8Z" fill="#fff"/><path d="M94.88,446.6h4.39v19.64H94.88v-7.73H87.07v7.73H82.69V446.6h4.38v8.21h7.81Z" fill="#fff"/><path d="M118.25,446.6v3.91h-9.77v4h8.79v3.74h-8.79v4.07h10.08v3.88H104.1V446.6Z" fill="#fff"/><path d="M127.06,450.52a1.71,1.71,0,0,0-.63,1.38,1.57,1.57,0,0,0,.77,1.36,13.7,13.7,0,0,0,3.57,1.19,10,10,0,0,1,4.34,2.07,5.11,5.11,0,0,1,1.54,4,5.3,5.3,0,0,1-2,4.28,7.91,7.91,0,0,1-5.21,1.64,12.07,12.07,0,0,1-8.4-3.45l2.62-3.2q3.16,2.78,5.87,2.78a3.12,3.12,0,0,0,1.89-.52,1.68,1.68,0,0,0,.69-1.41,1.61,1.61,0,0,0-.73-1.4,9.53,9.53,0,0,0-2.89-1.06,12.56,12.56,0,0,1-5-2.12,5,5,0,0,1-1.58-4.1,5.1,5.1,0,0,1,2-4.31,8.1,8.1,0,0,1,5-1.52,12,12,0,0,1,3.93.68,10.52,10.52,0,0,1,3.43,1.91l-2.22,3.2a8.69,8.69,0,0,0-5.28-1.94A2.68,2.68,0,0,0,127.06,450.52Z" fill="#fff"/><path d="M16,438.5a6.49,6.49,0,0,0,5.28-2.56l2.81,2.89a10.24,10.24,0,0,1-7.88,3.77,10.27,10.27,0,0,1-7.47-2.87,9.67,9.67,0,0,1-2.94-7.23,9.8,9.8,0,0,1,3-7.29,10.09,10.09,0,0,1,7.32-2.92A10.38,10.38,0,0,1,24.18,426l-2.72,3.09a6.41,6.41,0,0,0-5.17-2.59,6,6,0,0,0-4.23,1.62,5.63,5.63,0,0,0-1.75,4.35,6,6,0,0,0,1.65,4.4A5.51,5.51,0,0,0,16,438.5Z" fill="none" stroke="#fff" stroke-miterlimit="10" stroke-width="1.12"/><path d="M27.52,442.37V422.74h4.39v15.73h8.37v3.9Z" fill="none" stroke="#fff" stroke-miterlimit="10" stroke-width="1.12"/><path d="M59.46,439.66a10.69,10.69,0,0,1-14.66,0,10.26,10.26,0,0,1,0-14.46,10.69,10.69,0,0,1,14.66,0,10.26,10.26,0,0,1,0,14.46ZM58,432.44A6.44,6.44,0,0,0,56.29,428,5.57,5.57,0,0,0,48,428a6.8,6.8,0,0,0,0,9,5.59,5.59,0,0,0,8.29,0A6.4,6.4,0,0,0,58,432.44Z" fill="none" stroke="#fff" stroke-miterlimit="10" stroke-width="1.12"/><path d="M73.93,426.53v15.84H69.55V426.53H64v-3.79h15.5v3.79Z" fill="none" stroke="#fff" stroke-miterlimit="10" stroke-width="1.12"/><path d="M94.88,422.74h4.39v19.63H94.88v-7.72H87.07v7.72H82.69V422.74h4.38v8.2h7.81Z" fill="none" stroke="#fff" stroke-miterlimit="10" stroke-width="1.12"/><path d="M118.25,422.74v3.9h-9.77v4.05h8.79v3.73h-8.79v4.08h10.08v3.87H104.1V422.74Z" fill="none" stroke="#fff" stroke-miterlimit="10" stroke-width="1.12"/><path d="M127.06,426.66a1.68,1.68,0,0,0-.63,1.37,1.58,1.58,0,0,0,.77,1.37,14.54,14.54,0,0,0,3.57,1.19,10.16,10.16,0,0,1,4.34,2.06,5.11,5.11,0,0,1,1.54,4,5.29,5.29,0,0,1-2,4.28,7.86,7.86,0,0,1-5.21,1.65,12,12,0,0,1-8.4-3.46l2.62-3.2q3.16,2.78,5.87,2.78a3.05,3.05,0,0,0,1.89-.52,1.75,1.75,0,0,0,0-2.81,9.88,9.88,0,0,0-2.89-1.05,12.56,12.56,0,0,1-5-2.12,5,5,0,0,1-1.58-4.1,5.09,5.09,0,0,1,2-4.31,8,8,0,0,1,5-1.52,12,12,0,0,1,3.93.67,10.71,10.71,0,0,1,3.43,1.91l-2.22,3.2a8.67,8.67,0,0,0-5.28-1.93A2.63,2.63,0,0,0,127.06,426.66Z" fill="none" stroke="#fff" stroke-miterlimit="10" stroke-width="1.12"/><path d="M16,410.59A6.49,6.49,0,0,0,21.26,408l2.81,2.89a10.24,10.24,0,0,1-7.88,3.77,10.27,10.27,0,0,1-7.47-2.87,9.67,9.67,0,0,1-2.94-7.23,9.8,9.8,0,0,1,3-7.29,10.09,10.09,0,0,1,7.32-2.92,10.35,10.35,0,0,1,8.09,3.68l-2.72,3.09a6.38,6.38,0,0,0-5.17-2.59,6,6,0,0,0-4.23,1.62,5.63,5.63,0,0,0-1.75,4.35,6,6,0,0,0,1.65,4.4A5.51,5.51,0,0,0,16,410.59Z" fill="#fff"/><path d="M27.52,414.46V394.83h4.39v15.73h8.37v3.9Z" fill="#fff"/><path d="M59.46,411.75a10.69,10.69,0,0,1-14.66,0,10.26,10.26,0,0,1,0-14.46,10.69,10.69,0,0,1,14.66,0,10.26,10.26,0,0,1,0,14.46ZM58,404.53a6.44,6.44,0,0,0-1.68-4.48,5.57,5.57,0,0,0-8.29,0A6.8,6.8,0,0,0,48,409a5.59,5.59,0,0,0,8.29,0A6.4,6.4,0,0,0,58,404.53Z" fill="#fff"/><path d="M73.93,398.62v15.84H69.55V398.62H64v-3.79h15.5v3.79Z" fill="#fff"/><path d="M94.88,394.83h4.39v19.63H94.88v-7.72H87.07v7.72H82.69V394.83h4.38V403h7.81Z" fill="#fff"/><path d="M118.25,394.83v3.9h-9.77v4h8.79v3.73h-8.79v4.08h10.08v3.87H104.1V394.83Z" fill="#fff"/><path d="M127.06,398.75a1.68,1.68,0,0,0-.63,1.37,1.55,1.55,0,0,0,.77,1.36,14,14,0,0,0,3.57,1.2,10.16,10.16,0,0,1,4.34,2.06,5.11,5.11,0,0,1,1.54,4,5.29,5.29,0,0,1-2,4.28,7.86,7.86,0,0,1-5.21,1.65,12,12,0,0,1-8.4-3.46l2.62-3.2q3.16,2.78,5.87,2.78a3.05,3.05,0,0,0,1.89-.52,1.66,1.66,0,0,0,.69-1.4,1.64,1.64,0,0,0-.73-1.41,9.59,9.59,0,0,0-2.89-1.05,12.56,12.56,0,0,1-5-2.12,5,5,0,0,1-1.58-4.1,5.12,5.12,0,0,1,2-4.32,8.09,8.09,0,0,1,5-1.51,12,12,0,0,1,3.93.67,10.71,10.71,0,0,1,3.43,1.91l-2.22,3.2a8.67,8.67,0,0,0-5.28-1.93A2.63,2.63,0,0,0,127.06,398.75Z" fill="#fff"/><path d="M42.56,27.07H33.41V6.15h8.13a11.74,11.74,0,0,1,3.67.51A5.25,5.25,0,0,1,47.53,8a5.38,5.38,0,0,1,1.41,3.65,4.28,4.28,0,0,1-1.59,3.65,5.53,5.53,0,0,1-.75.52l-.75.35A5.48,5.48,0,0,1,49,18a4.84,4.84,0,0,1,1.15,3.3,5.63,5.63,0,0,1-1.49,3.86Q46.87,27.07,42.56,27.07ZM38.07,14.62h2.22a7.53,7.53,0,0,0,2.89-.42,1.78,1.78,0,0,0,.94-1.81,1.87,1.87,0,0,0-.87-1.84,6.87,6.87,0,0,0-2.93-.45H38.07Zm0,8.5h3.21a7,7,0,0,0,3-.5,2,2,0,0,0,1-1.94,1.88,1.88,0,0,0-1.07-1.92,9.09,9.09,0,0,0-3.39-.46H38.07Z" fill="#fff"/><path d="M68.68,27.07l-1.94-4.52H58L56,27.07h-5l9-20.92h4.51l9,20.92ZM62.37,12.38l-2.63,6.07H65Z" fill="#fff"/><path d="M89.66,16.42h4.69v7.42a11,11,0,0,1-8.61,3.47A10.65,10.65,0,0,1,78,24.25a10.31,10.31,0,0,1-3.12-7.7,10.41,10.41,0,0,1,3.18-7.76,10.61,10.61,0,0,1,7.69-3.12,11.38,11.38,0,0,1,7.83,3l-2.43,3.5a9.18,9.18,0,0,0-2.58-1.69A7,7,0,0,0,86,10a6.16,6.16,0,0,0-4.49,1.81,6.42,6.42,0,0,0-1.83,4.77,6.51,6.51,0,0,0,1.75,4.75,5.69,5.69,0,0,0,4.18,1.78,8,8,0,0,0,4-.93Z" fill="#fff"/><path d="M103.41,10.33a1.79,1.79,0,0,0-.68,1.46,1.66,1.66,0,0,0,.83,1.45,14.75,14.75,0,0,0,3.8,1.28A10.71,10.71,0,0,1,112,16.71,5.47,5.47,0,0,1,113.62,21a5.65,5.65,0,0,1-2.11,4.57A8.42,8.42,0,0,1,106,27.31,12.84,12.84,0,0,1,97,23.63l2.78-3.42c2.25,2,4.34,3,6.25,3a3.28,3.28,0,0,0,2-.56,1.77,1.77,0,0,0,.74-1.49,1.75,1.75,0,0,0-.78-1.5A10.23,10.23,0,0,0,105,18.51a13.3,13.3,0,0,1-5.34-2.26,5.32,5.32,0,0,1-1.69-4.37,5.43,5.43,0,0,1,2.13-4.59,8.62,8.62,0,0,1,5.35-1.62,12.76,12.76,0,0,1,4.18.72,11.25,11.25,0,0,1,3.66,2l-2.37,3.41a9.18,9.18,0,0,0-5.62-2.07A2.79,2.79,0,0,0,103.41,10.33Z" fill="#fff"/><path d="M42.56,55.67H33.41V34.76h8.13a11.74,11.74,0,0,1,3.67.51,5.34,5.34,0,0,1,2.32,1.37,5.42,5.42,0,0,1,1.41,3.65A4.29,4.29,0,0,1,47.35,44a6.71,6.71,0,0,1-.75.52l-.75.34A5.54,5.54,0,0,1,49,46.56a4.87,4.87,0,0,1,1.15,3.31,5.65,5.65,0,0,1-1.49,3.86C47.45,55,45.43,55.67,42.56,55.67ZM38.07,43.23h2.22a7.53,7.53,0,0,0,2.89-.42A1.78,1.78,0,0,0,44.12,41a1.87,1.87,0,0,0-.87-1.84,6.87,6.87,0,0,0-2.93-.45H38.07Zm0,8.49h3.21a7.06,7.06,0,0,0,3-.49,2,2,0,0,0,1-1.94,1.88,1.88,0,0,0-1.07-1.92,9.09,9.09,0,0,0-3.39-.46H38.07Z" fill="none" stroke="#fff" stroke-miterlimit="10" stroke-width="1.2"/><path d="M68.68,55.67l-1.94-4.51H58L56,55.67h-5l9-20.91h4.51l9,20.91ZM62.37,41l-2.63,6.08H65Z" fill="none" stroke="#fff" stroke-miterlimit="10" stroke-width="1.2"/><path d="M89.66,45h4.69v7.42q-3.1,3.48-8.61,3.47a10.64,10.64,0,0,1-7.74-3,10.31,10.31,0,0,1-3.12-7.7,10.44,10.44,0,0,1,3.18-7.77,10.64,10.64,0,0,1,7.69-3.11,11.42,11.42,0,0,1,7.83,3l-2.43,3.5a9.41,9.41,0,0,0-2.58-1.69A7,7,0,0,0,86,38.59a6.12,6.12,0,0,0-4.49,1.81,6.42,6.42,0,0,0-1.83,4.77,6.47,6.47,0,0,0,1.75,4.74,5.65,5.65,0,0,0,4.18,1.78,8,8,0,0,0,4-.92Z" fill="none" stroke="#fff" stroke-miterlimit="10" stroke-width="1.2"/><path d="M103.41,38.93a1.81,1.81,0,0,0-.68,1.47,1.66,1.66,0,0,0,.83,1.45,14.86,14.86,0,0,0,3.8,1.27,10.71,10.71,0,0,1,4.62,2.2,5.47,5.47,0,0,1,1.64,4.28,5.62,5.62,0,0,1-2.11,4.56A8.37,8.37,0,0,1,106,55.91,12.8,12.8,0,0,1,97,52.23l2.78-3.41c2.25,2,4.34,3,6.25,3a3.28,3.28,0,0,0,2-.55,1.79,1.79,0,0,0,.74-1.5,1.74,1.74,0,0,0-.78-1.49A10.23,10.23,0,0,0,105,47.12a13.3,13.3,0,0,1-5.34-2.26,5.34,5.34,0,0,1-1.69-4.37,5.4,5.4,0,0,1,2.13-4.59,8.62,8.62,0,0,1,5.35-1.62,12.76,12.76,0,0,1,4.18.72,11.41,11.41,0,0,1,3.66,2l-2.37,3.41a9.23,9.23,0,0,0-5.62-2.06A2.79,2.79,0,0,0,103.41,38.93Z" fill="none" stroke="#fff" stroke-miterlimit="10" stroke-width="1.2"/><path d="M42.56,84.28H33.41V63.37h8.13a11.74,11.74,0,0,1,3.67.51,5.15,5.15,0,0,1,2.32,1.37,5.42,5.42,0,0,1,1.41,3.65,4.26,4.26,0,0,1-1.59,3.65,5.94,5.94,0,0,1-.75.53l-.75.34A5.48,5.48,0,0,1,49,75.17a4.87,4.87,0,0,1,1.15,3.31,5.67,5.67,0,0,1-1.49,3.86Q46.87,84.28,42.56,84.28ZM38.07,71.83h2.22a7.76,7.76,0,0,0,2.89-.41,1.78,1.78,0,0,0,.94-1.81,1.86,1.86,0,0,0-.87-1.84,6.87,6.87,0,0,0-2.93-.45H38.07Zm0,8.5h3.21a7.06,7.06,0,0,0,3-.49,2,2,0,0,0,1-2A1.87,1.87,0,0,0,44.22,76a9.05,9.05,0,0,0-3.39-.47H38.07Z" fill="#fff"/><path d="M68.68,84.28l-1.94-4.52H58L56,84.28h-5l9-20.91h4.51l9,20.91ZM62.37,69.59l-2.63,6.07H65Z" fill="#fff"/><path d="M89.66,73.63h4.69v7.42a11,11,0,0,1-8.61,3.47,10.68,10.68,0,0,1-7.74-3A11.07,11.07,0,0,1,78.06,66a10.64,10.64,0,0,1,7.69-3.11,11.42,11.42,0,0,1,7.83,3l-2.43,3.5a9.18,9.18,0,0,0-2.58-1.69A7,7,0,0,0,86,67.2,6.12,6.12,0,0,0,81.52,69a6.39,6.39,0,0,0-1.83,4.77,6.49,6.49,0,0,0,1.75,4.74,5.65,5.65,0,0,0,4.18,1.78,8,8,0,0,0,4-.93Z" fill="#fff"/><path d="M103.41,67.54a1.81,1.81,0,0,0-.68,1.47,1.66,1.66,0,0,0,.83,1.45,14.86,14.86,0,0,0,3.8,1.27,10.71,10.71,0,0,1,4.62,2.2,5.45,5.45,0,0,1,1.64,4.28,5.64,5.64,0,0,1-2.11,4.56A8.37,8.37,0,0,1,106,84.52,12.84,12.84,0,0,1,97,80.84l2.78-3.41c2.25,2,4.34,3,6.25,3a3.28,3.28,0,0,0,2-.55,1.79,1.79,0,0,0,.74-1.5,1.73,1.73,0,0,0-.78-1.49A10.17,10.17,0,0,0,105,75.72a13.3,13.3,0,0,1-5.34-2.25,5.34,5.34,0,0,1-1.69-4.37,5.43,5.43,0,0,1,2.13-4.6,8.68,8.68,0,0,1,5.35-1.61,12.76,12.76,0,0,1,4.18.72,11.23,11.23,0,0,1,3.66,2l-2.37,3.41A9.23,9.23,0,0,0,105.25,67,2.79,2.79,0,0,0,103.41,67.54Z" fill="#fff"/><path d="M42.56,112.89H33.41V92h8.13a11.74,11.74,0,0,1,3.67.51,5.25,5.25,0,0,1,2.32,1.38,5.4,5.4,0,0,1,1.41,3.65,4.27,4.27,0,0,1-1.59,3.65,5.53,5.53,0,0,1-.75.52l-.75.35a5.48,5.48,0,0,1,3.1,1.75,4.86,4.86,0,0,1,1.15,3.3,5.63,5.63,0,0,1-1.49,3.86Q46.87,112.89,42.56,112.89Zm-4.49-12.45h2.22a7.53,7.53,0,0,0,2.89-.42,1.78,1.78,0,0,0,.94-1.81,1.88,1.88,0,0,0-.87-1.84,6.87,6.87,0,0,0-2.93-.45H38.07Zm0,8.5h3.21a7.22,7.22,0,0,0,3-.49,2,2,0,0,0,1-2,1.86,1.86,0,0,0-1.07-1.91,9.05,9.05,0,0,0-3.39-.47H38.07Z" fill="none" stroke="#fff" stroke-miterlimit="10" stroke-width="1.2"/><path d="M68.68,112.89l-1.94-4.52H58L56,112.89h-5L60.1,92h4.51l9,20.92ZM62.37,98.2l-2.63,6.07H65Z" fill="none" stroke="#fff" stroke-miterlimit="10" stroke-width="1.2"/><path d="M89.66,102.24h4.69v7.42a11,11,0,0,1-8.61,3.47,10.68,10.68,0,0,1-7.74-3,11.07,11.07,0,0,1,.06-15.47,10.6,10.6,0,0,1,7.69-3.11,11.38,11.38,0,0,1,7.83,3L91.15,98a9.18,9.18,0,0,0-2.58-1.69A7,7,0,0,0,86,95.8a6.16,6.16,0,0,0-4.49,1.81,6.43,6.43,0,0,0-1.83,4.78,6.51,6.51,0,0,0,1.75,4.74,5.65,5.65,0,0,0,4.18,1.78,8,8,0,0,0,4-.93Z" fill="none" stroke="#fff" stroke-miterlimit="10" stroke-width="1.2"/><path d="M103.41,96.15a1.81,1.81,0,0,0-.68,1.46,1.67,1.67,0,0,0,.83,1.46,15.29,15.29,0,0,0,3.8,1.27,10.71,10.71,0,0,1,4.62,2.2,5.43,5.43,0,0,1,1.64,4.27,5.65,5.65,0,0,1-2.11,4.57,8.42,8.42,0,0,1-5.55,1.75A12.84,12.84,0,0,1,97,109.45L99.8,106c2.25,2,4.34,3,6.25,3a3.28,3.28,0,0,0,2-.55,1.79,1.79,0,0,0,.74-1.5,1.75,1.75,0,0,0-.78-1.5,10.23,10.23,0,0,0-3.08-1.12,13.3,13.3,0,0,1-5.34-2.26,5.31,5.31,0,0,1-1.69-4.37,5.43,5.43,0,0,1,2.13-4.59,8.61,8.61,0,0,1,5.35-1.61,13,13,0,0,1,4.18.71,11.25,11.25,0,0,1,3.66,2l-2.37,3.41a9.18,9.18,0,0,0-5.62-2.07A2.79,2.79,0,0,0,103.41,96.15Z" fill="none" stroke="#fff" stroke-miterlimit="10" stroke-width="1.2"/><path d="M292.36,112.29h16.9V117h-16.9v5.94h-4V106.35h4Z" fill="#fff"/><path d="M288.32,89.93V85.26h20.94v4.67H301v8.33h8.24v4.68H288.32V98.26h8.75V89.93Z" fill="#fff"/><path d="M295.27,63.11c3.36,0,5.52,1.33,6.5,4l7.49-5.31v5.75l-6.68,4.65v3.24h6.68V80.1H288.32V72.16q0-4.89,1.64-7T295.27,63.11Zm2.49,5.63a3.18,3.18,0,0,0-2.48-.87,2.64,2.64,0,0,0-2.32.9,5.76,5.76,0,0,0-.63,3.15v3.51h6.2V72A5,5,0,0,0,297.76,68.74Z" fill="#fff"/><path d="M288.32,58.31V53.64h20.94v4.67Z" fill="#fff"/><path d="M288.32,34.1h4.1v9.71H297V34.58h4.1v9.23h8.21v4.68H288.32Z" fill="#fff"/><path d="M292.36,21.27h16.9V26h-16.9v5.93h-4V15.34h4Z" fill="#fff"/><path d="M322.14,112.29H339V117h-16.9v5.94h-4.05V106.35h4.05Z" fill="none" stroke="#fff" stroke-miterlimit="10" stroke-width="1.2"/><path d="M318.09,89.93V85.26h21v4.67H330.8v8.33H339v4.68h-21V98.26h8.75V89.93Z" fill="none" stroke="#fff" stroke-miterlimit="10" stroke-width="1.2"/><path d="M325.05,63.11q5,0,6.5,4L339,61.79v5.75l-6.68,4.65v3.24H339V80.1h-21V72.16q0-4.89,1.65-7T325.05,63.11Zm2.48,5.63a3.16,3.16,0,0,0-2.47-.87,2.64,2.64,0,0,0-2.32.9,5.76,5.76,0,0,0-.63,3.15v3.51h6.2V72A5,5,0,0,0,327.53,68.74Z" fill="none" stroke="#fff" stroke-miterlimit="10" stroke-width="1.2"/><path d="M318.09,58.31V53.64h21v4.67Z" fill="none" stroke="#fff" stroke-miterlimit="10" stroke-width="1.2"/><path d="M318.09,34.1h4.11v9.71h4.52V34.58h4.11v9.23H339v4.68h-21Z" fill="none" stroke="#fff" stroke-miterlimit="10" stroke-width="1.2"/><path d="M322.14,21.27H339V26h-16.9v5.93h-4.05V15.34h4.05Z" fill="none" stroke="#fff" stroke-miterlimit="10" stroke-width="1.2"/><path d="M349,112.29h16.9V117H349v5.94H345V106.35H349Z" fill="#fff"/><path d="M345,89.93V85.26h20.95v4.67H357.7v8.33h8.24v4.68H345V98.26h8.75V89.93Z" fill="#fff"/><path d="M352,63.11q5,0,6.5,4l7.49-5.31v5.75l-6.68,4.65v3.24h6.68V80.1H345V72.16q0-4.89,1.65-7T352,63.11Zm2.48,5.63a3.16,3.16,0,0,0-2.47-.87,2.64,2.64,0,0,0-2.32.9,5.76,5.76,0,0,0-.63,3.15v3.51h6.2V72A5,5,0,0,0,354.43,68.74Z" fill="#fff"/><path d="M345,58.31V53.64h20.95v4.67Z" fill="#fff"/><path d="M345,34.1h4.11v9.71h4.52V34.58h4.11v9.23h8.21v4.68H345Z" fill="#fff"/><path d="M349,21.27h16.9V26H349v5.93H345V15.34H349Z" fill="#fff"/><path d="M378.82,112.29h16.9V117h-16.9v5.94h-4.05V106.35h4.05Z" fill="none" stroke="#fff" stroke-miterlimit="10" stroke-width="1.2"/><path d="M374.77,89.93V85.26h21v4.67h-8.24v8.33h8.24v4.68h-21V98.26h8.75V89.93Z" fill="none" stroke="#fff" stroke-miterlimit="10" stroke-width="1.2"/><path d="M381.72,63.11q5,0,6.51,4l7.49-5.31v5.75L389,72.19v3.24h6.69V80.1h-21V72.16q0-4.89,1.65-7T381.72,63.11Zm2.49,5.63a3.16,3.16,0,0,0-2.47-.87,2.63,2.63,0,0,0-2.32.9,5.76,5.76,0,0,0-.63,3.15v3.51H385V72A5,5,0,0,0,384.21,68.74Z" fill="none" stroke="#fff" stroke-miterlimit="10" stroke-width="1.2"/><path d="M374.77,58.31V53.64h21v4.67Z" fill="none" stroke="#fff" stroke-miterlimit="10" stroke-width="1.2"/><path d="M374.77,34.1h4.11v9.71h4.52V34.58h4.11v9.23h8.21v4.68h-21Z" fill="none" stroke="#fff" stroke-miterlimit="10" stroke-width="1.2"/><path d="M378.82,21.27h16.9V26h-16.9v5.93h-4.05V15.34h4.05Z" fill="none" stroke="#fff" stroke-miterlimit="10" stroke-width="1.2"/><circle cx="6.41" cy="129.32" r="2.7" fill="#fff"/><circle cx="6.41" cy="138.44" r="2.7" fill="#fff"/><circle cx="6.41" cy="147.56" r="2.7" fill="#fff"/><circle cx="13.85" cy="129.32" r="2.7" fill="#fff"/><circle cx="13.85" cy="138.44" r="2.7" fill="#fff"/><circle cx="13.85" cy="147.56" r="2.7" fill="#fff"/><circle cx="21.23" cy="129.32" r="2.7" fill="#fff"/><circle cx="21.23" cy="138.44" r="2.7" fill="#fff"/><circle cx="21.23" cy="147.56" r="2.7" fill="#fff"/><circle cx="28.67" cy="129.32" r="2.7" fill="#fff"/><circle cx="28.67" cy="138.44" r="2.7" fill="#fff"/><circle cx="28.67" cy="147.56" r="2.7" fill="#fff"/><circle cx="37.18" cy="129.32" r="2.7" fill="#fff"/><circle cx="37.18" cy="138.44" r="2.7" fill="#fff"/><circle cx="37.18" cy="147.56" r="2.7" fill="#fff"/><circle cx="44.62" cy="129.32" r="2.7" fill="#fff"/><circle cx="44.62" cy="138.44" r="2.7" fill="#fff"/><circle cx="44.62" cy="147.56" r="2.7" fill="#fff"/><circle cx="52" cy="129.32" r="2.7" fill="#fff"/><circle cx="52" cy="138.44" r="2.7" fill="#fff"/><circle cx="52" cy="147.56" r="2.7" fill="#fff"/><circle cx="59.44" cy="129.32" r="2.7" fill="#fff"/><circle cx="59.44" cy="138.44" r="2.7" fill="#fff"/><circle cx="59.44" cy="147.56" r="2.7" fill="#fff"/><circle cx="375.06" cy="439.94" r="2.7" fill="#fff"/><circle cx="365.94" cy="439.94" r="2.7" fill="#fff"/><circle cx="356.82" cy="439.94" r="2.7" fill="#fff"/><circle cx="375.06" cy="447.38" r="2.7" fill="#fff"/><circle cx="365.94" cy="447.38" r="2.7" fill="#fff"/><circle cx="356.82" cy="447.38" r="2.7" fill="#fff"/><circle cx="375.06" cy="454.76" r="2.7" fill="#fff"/><circle cx="365.94" cy="454.76" r="2.7" fill="#fff"/><circle cx="356.82" cy="454.76" r="2.7" fill="#fff"/><circle cx="375.06" cy="462.2" r="2.7" fill="#fff"/><circle cx="365.94" cy="462.2" r="2.7" fill="#fff"/><circle cx="356.82" cy="462.2" r="2.7" fill="#fff"/><circle cx="375.06" cy="470.72" r="2.7" fill="#fff"/><circle cx="365.94" cy="470.72" r="2.7" fill="#fff"/><circle cx="356.82" cy="470.72" r="2.7" fill="#fff"/><circle cx="375.06" cy="478.16" r="2.7" fill="#fff"/><circle cx="365.94" cy="478.16" r="2.7" fill="#fff"/><circle cx="356.82" cy="478.16" r="2.7" fill="#fff"/><circle cx="375.06" cy="485.54" r="2.7" fill="#fff"/><circle cx="365.94" cy="485.54" r="2.7" fill="#fff"/><circle cx="356.82" cy="485.54" r="2.7" fill="#fff"/><circle cx="375.06" cy="492.98" r="2.7" fill="#fff"/><circle cx="365.94" cy="492.98" r="2.7" fill="#fff"/><circle cx="356.82" cy="492.98" r="2.7" fill="#fff"/><rect x="231.47" y="136.9" width="168.53" height="7.2" fill="#fff"/></g></g></svg>