<svg xmlns="http://www.w3.org/2000/svg" xmlns:xlink="http://www.w3.org/1999/xlink" viewBox="0 0 1500 600"><defs><linearGradient id="linear-gradient" x1="81.89" y1="678.59" x2="971.69" y2="174.38" gradientUnits="userSpaceOnUse"><stop offset="0.1" stop-color="#ff9558"/><stop offset="0.51" stop-color="#ffa06a"/><stop offset="1" stop-color="#ffc67b"/></linearGradient></defs><title>banAsset 13</title><g id="Layer_2" data-name="Layer 2"><g id="Layer_1-2" data-name="Layer 1"><rect width="1500" height="600" fill="url(#linear-gradient)"/><path d="M169.49,532.48c-3.92-2.14-7.09-5.45-7.09-7.41s3.18-2.91,7.09-3.12,7.1,3,7.1,7.45S173.41,534.66,169.49,532.48Z" fill="#fff"/><path d="M169.49,555.05c-3.92-2.49-7.09-7.81-7.09-12s3.18-5.59,7.09-3,7.1,8.91,7.1,13.06S173.41,557.5,169.49,555.05Z" fill="#fff"/><path d="M169.49,582.65c-3.92.21-7.09-5.47-7.09-11.78s3.18-9.63,7.09-7.49,7.1,7.92,7.1,11.82A7.73,7.73,0,0,1,169.49,582.65Z" fill="#fff"/><path d="M149.88,526.7c-3.92-.35-7.1-2.06-7.1-3.33s3.18-1.4,7.1-1.42,7.09.46,7.09,2.21S153.8,527.1,149.88,526.7Z" fill="#fff"/><path d="M149.88,547.82c-3.92-.44-7.1-4.53-7.1-8.73a6.22,6.22,0,0,1,7.1-6.51A8.34,8.34,0,0,1,157,540.9C157,545.08,153.8,548.24,149.88,547.82Z" fill="#fff"/><path d="M149.88,582.65c-3.92,0-7.1-6.53-7.1-13.48s3.18-11.92,7.1-11.57S157,563.41,157,570,153.8,582.57,149.88,582.65Z" fill="#fff"/><path d="M130.26,528c-3.91.83-7.09-.59-7.09-2.78s3.17-3.33,7.09-3.22,7.1.31,7.1,1.64S134.18,527.15,130.26,528Z" fill="#fff"/><path d="M130.26,549.38c-3.91.93-7.09-2-7.09-6.11a9.68,9.68,0,0,1,7.09-9.09c3.92-1,7.1,1.21,7.1,5.41S134.18,548.45,130.26,549.38Z" fill="#fff"/><path d="M130.26,582.65c-3.91-.11-7.09-5.68-7.09-11.68s3.17-11.29,7.09-12.12,7.1,3.63,7.1,10.54S134.18,582.73,130.26,582.65Z" fill="#fff"/><path d="M110.65,533.41c-3.92,1.42-7.1-.62-7.1-4.57a6.76,6.76,0,0,1,7.1-6.89c3.92.16,7.09,1.71,7.09,4.12S114.57,532,110.65,533.41Z" fill="#fff"/><path d="M110.65,556.22c-3.92,1.61-7.1-.36-7.1-4.46a12.52,12.52,0,0,1,7.1-10.56c3.92-1.66,7.09,0,7.09,4.15S114.57,554.6,110.65,556.22Z" fill="#fff"/><path d="M110.65,582.65c-3.92-.18-7.1-3.79-7.1-8a11.71,11.71,0,0,1,7.1-10.33c3.92-1.4,7.09,1.77,7.09,7.56S114.57,582.81,110.65,582.65Z" fill="#fff"/><path d="M91,540.28c-3.92,1.4-7.09-1.77-7.09-7.56S87.12,521.78,91,522s7.1,3.78,7.1,8A11.69,11.69,0,0,1,91,540.28Z" fill="#fff"/><path d="M91,564.81c-3.92,1.62-7.09,0-7.09-4S87.12,551.69,91,550s7.1.26,7.1,4.35A12.28,12.28,0,0,1,91,564.81Z" fill="#fff"/><path d="M91,582.65c-3.92-.17-7.09-1.72-7.09-4.13s3.18-5.94,7.09-7.34,7.1.62,7.1,4.58A6.77,6.77,0,0,1,91,582.65Z" fill="#fff"/><path d="M71.42,545.75c-3.92.79-7.1-3.63-7.1-10.55s3.18-13.34,7.1-13.25,7.09,5.68,7.09,11.67S75.33,544.91,71.42,545.75Z" fill="#fff"/><path d="M71.42,571.65c-3.92.93-7.1-1.09-7.1-5.12S67.5,558,71.42,557s7.09,1.79,7.09,5.82A9.43,9.43,0,0,1,71.42,571.65Z" fill="#fff"/><path d="M71.42,582.65c-3.92-.08-7.1-.32-7.1-1.65s3.18-3.56,7.1-4.35,7.09.59,7.09,2.77S75.33,582.76,71.42,582.65Z" fill="#fff"/><path d="M51.8,547c-3.92-.41-7.09-5.82-7.09-12.36S47.88,522,51.8,522s7.1,6.52,7.1,13.47S55.72,547.35,51.8,547Z" fill="#fff"/><path d="M51.8,573.21a8.11,8.11,0,0,1-7.09-8,6.36,6.36,0,0,1,7.09-6.57c3.92.44,7.1,4.37,7.1,8.39S55.72,573.64,51.8,573.21Z" fill="#fff"/><path d="M51.8,582.65c-3.92.07-7.09-.47-7.09-2.21s3.17-3,7.09-2.55,7.1,2.07,7.1,3.33S55.72,582.63,51.8,582.65Z" fill="#fff"/><path d="M32.19,541.21c-3.92-2.18-7.1-7.92-7.1-11.81a7.71,7.71,0,0,1,7.1-7.45c3.91-.21,7.09,5.46,7.09,11.78S36.11,543.35,32.19,541.21Z" fill="#fff"/><path d="M32.19,566c-3.92-2.45-7.1-8.75-7.1-12.92s3.18-4.37,7.1-1.84,7.09,7.81,7.09,11.89S36.11,568.47,32.19,566Z" fill="#fff"/><path d="M32.19,582.65c-3.92.31-7.1-3-7.1-7.45s3.18-5.27,7.1-3.09,7.09,5.46,7.09,7.42S36.11,582.44,32.19,582.65Z" fill="#fff"/><rect x="469.92" y="21.36" width="557.28" height="557.28" fill="none" stroke="#fff" stroke-miterlimit="10" stroke-width="3.44"/><path d="M717.71,259.08a15,15,0,0,1,17.32,0,8.39,8.39,0,0,1,3.45,6.78,9.14,9.14,0,0,1-3.1,6.92,10.59,10.59,0,0,1,4.35,8.8,9.78,9.78,0,0,1-3.7,7.75,16.36,16.36,0,0,1-19.3,0,9.78,9.78,0,0,1-3.7-7.75,10.59,10.59,0,0,1,4.35-8.8,9.21,9.21,0,0,1-3.15-6.95A8.34,8.34,0,0,1,717.71,259.08Zm4.87,25.73a6.76,6.76,0,0,0,7.6,0,3.86,3.86,0,0,0,1.75-3.43,4,4,0,0,0-1.7-3.45,6.78,6.78,0,0,0-7.7,0,4,4,0,0,0-1.7,3.45A3.86,3.86,0,0,0,722.58,284.81Zm.48-15.28a5.21,5.21,0,0,0,6.65,0,3.73,3.73,0,0,0,1.42-3,3.79,3.79,0,0,0-1.4-3,5.28,5.28,0,0,0-6.7,0,3.79,3.79,0,0,0-1.4,3A3.74,3.74,0,0,0,723.06,269.53Z" fill="#fff"/><path d="M754.93,270.58v12.05a3.47,3.47,0,0,0,.8,2.43,2.5,2.5,0,0,0,1.9.87,4.33,4.33,0,0,0,3.55-1.9l2.8,5.25a10.79,10.79,0,0,1-7.37,3.2,9,9,0,0,1-9.23-9.5v-12.4h-3.15v-5.4h3.15v-8.05h7.55v8.05h6.5v5.4Z" fill="#fff"/><path d="M775.48,277.58v14.5H768V255h7.5v13.2a10.48,10.48,0,0,1,7.62-3.45,9.52,9.52,0,0,1,7.13,3,11,11,0,0,1,2.9,8v16.35h-7.5v-14.7q0-6.19-4.55-6.2a5.49,5.49,0,0,0-3.93,1.63A6.36,6.36,0,0,0,775.48,277.58Z" fill="#fff"/><path d="M617.78,324.11a3,3,0,0,0-1.12,2.45A2.77,2.77,0,0,0,618,329a25.38,25.38,0,0,0,6.35,2.13,18,18,0,0,1,7.73,3.67q2.75,2.46,2.75,7.15a9.44,9.44,0,0,1-3.53,7.63,14,14,0,0,1-9.27,2.92,21.45,21.45,0,0,1-14.95-6.15l4.65-5.7q5.64,5,10.45,4.95a5.44,5.44,0,0,0,3.37-.92,3,3,0,0,0,1.23-2.5,2.93,2.93,0,0,0-1.3-2.5,17.13,17.13,0,0,0-5.15-1.88q-6.11-1.44-8.93-3.77t-2.82-7.3a9.06,9.06,0,0,1,3.57-7.68,14.41,14.41,0,0,1,8.93-2.7,21.51,21.51,0,0,1,7,1.2,19,19,0,0,1,6.1,3.4l-4,5.7a15.41,15.41,0,0,0-9.4-3.45A4.7,4.7,0,0,0,617.78,324.11Z" fill="#fff"/><path d="M657.76,339.68v-14.5h7.55v26.9h-7.55v-3.55a8.51,8.51,0,0,1-7.23,4,10.51,10.51,0,0,1-7.42-2.77q-3-2.77-3-8.23v-16.3h7.55v14.65c0,4.14,1.51,6.2,4.55,6.2a5.38,5.38,0,0,0,3.9-1.62A6.34,6.34,0,0,0,657.76,339.68Z" fill="#fff"/><path d="M692.66,343.71a7.83,7.83,0,0,1-2.93,6.37,11.31,11.31,0,0,1-7.42,2.4,19.74,19.74,0,0,1-6.25-1.07,18.45,18.45,0,0,1-5.85-3.18l3.3-4.7a14.35,14.35,0,0,0,9,3.25,4.1,4.1,0,0,0,2.3-.57,1.77,1.77,0,0,0,.85-1.53,2.21,2.21,0,0,0-1.18-1.75,13.33,13.33,0,0,0-3.4-1.5c-1.48-.46-2.61-.86-3.4-1.2a18.28,18.28,0,0,1-2.67-1.45,6.18,6.18,0,0,1-3.05-5.62,7.39,7.39,0,0,1,3-6.08,12.23,12.23,0,0,1,7.75-2.35,17,17,0,0,1,9.5,3.2l-2.8,5a12.3,12.3,0,0,0-7-2.4c-2.31,0-3.47.64-3.47,1.9a1.82,1.82,0,0,0,1.1,1.65,21.83,21.83,0,0,0,3.65,1.4c1.7.54,2.91.95,3.62,1.23a17.64,17.64,0,0,1,2.58,1.32C691.72,339.17,692.66,341.06,692.66,343.71Z" fill="#fff"/><path d="M707.16,330.58v12.05a3.43,3.43,0,0,0,.8,2.43,2.48,2.48,0,0,0,1.9.87,4.33,4.33,0,0,0,3.55-1.9l2.8,5.25a10.81,10.81,0,0,1-7.38,3.2,8.95,8.95,0,0,1-9.22-9.5v-12.4h-3.15v-5.4h3.15v-8.05h7.55v8.05h6.5v5.4Z" fill="#fff"/><path d="M743.06,352.08h-7v-3.25a8.84,8.84,0,0,1-7.18,3.65,10.65,10.65,0,0,1-7.17-2.47,8.22,8.22,0,0,1-2.9-6.6,7,7,0,0,1,3-6.18,14.4,14.4,0,0,1,8.2-2.05h5.6V335c0-2.86-1.52-4.3-4.55-4.3a12.26,12.26,0,0,0-4.13.78,13.62,13.62,0,0,0-3.67,1.92l-3.35-4.85a20.09,20.09,0,0,1,12.1-3.85,12.55,12.55,0,0,1,8,2.45c2.06,1.64,3.1,4.22,3.1,7.75Zm-7.55-10.25v-1.3h-4.7c-3,0-4.5.94-4.5,2.8a2.57,2.57,0,0,0,1.07,2.23,5.19,5.19,0,0,0,3.08.77,5.44,5.44,0,0,0,3.52-1.22A4,4,0,0,0,735.51,341.83Z" fill="#fff"/><path d="M750.53,321.76a4.48,4.48,0,1,1,3.13,1.27A4.25,4.25,0,0,1,750.53,321.76Zm6.88,30.32h-7.5v-26.9h7.5Z" fill="#fff"/><path d="M772,337.08v15h-7.5v-26.9H772v3a10.48,10.48,0,0,1,7.65-3.45,9.47,9.47,0,0,1,7.12,3,11.07,11.07,0,0,1,2.88,8v16.35h-7.5v-15.2q0-6.19-4.55-6.2a5.49,5.49,0,0,0-3.93,1.63A6.33,6.33,0,0,0,772,337.08Z" fill="#fff"/><path d="M819.31,352.08h-7v-3.25a8.84,8.84,0,0,1-7.18,3.65,10.65,10.65,0,0,1-7.17-2.47,8.22,8.22,0,0,1-2.9-6.6,7,7,0,0,1,3-6.18,14.4,14.4,0,0,1,8.2-2.05h5.6V335c0-2.86-1.52-4.3-4.55-4.3a12.26,12.26,0,0,0-4.13.78,13.62,13.62,0,0,0-3.67,1.92l-3.35-4.85a20.09,20.09,0,0,1,12.1-3.85,12.55,12.55,0,0,1,8,2.45c2.06,1.64,3.1,4.22,3.1,7.75Zm-7.55-10.25v-1.3h-4.7c-3,0-4.5.94-4.5,2.8a2.57,2.57,0,0,0,1.07,2.23,5.19,5.19,0,0,0,3.08.77,5.44,5.44,0,0,0,3.52-1.22A4,4,0,0,0,811.76,341.83Z" fill="#fff"/><path d="M841.65,324.73a11.45,11.45,0,0,1,8.55,3.83,13.61,13.61,0,0,1,3.65,9.82,14.23,14.23,0,0,1-3.75,10.05,11.36,11.36,0,0,1-8.52,4.05,9.74,9.74,0,0,1-7.93-4v3.55h-7.5V315h7.5v13.2A10.28,10.28,0,0,1,841.65,324.73Zm-8.1,13.93a7.79,7.79,0,0,0,1.83,5.35,5.69,5.69,0,0,0,4.42,2.07,6.06,6.06,0,0,0,4.55-2.07,7.46,7.46,0,0,0,1.95-5.33,8,8,0,0,0-1.9-5.45,5.83,5.83,0,0,0-4.55-2.2,5.64,5.64,0,0,0-4.47,2.18A8.18,8.18,0,0,0,833.55,338.66Z" fill="#fff"/><path d="M867,352.08h-7.5V315H867Z" fill="#fff"/><path d="M897.35,348.18a15,15,0,0,1-10.67,4.3,14.15,14.15,0,0,1-10.13-3.77,13.29,13.29,0,0,1-4-10.13,13.05,13.05,0,0,1,4.08-10.1,13.72,13.72,0,0,1,9.62-3.75,14,14,0,0,1,9.43,3.35,11.54,11.54,0,0,1,3.87,9.2v4H880a5.36,5.36,0,0,0,2.3,3.6,7.32,7.32,0,0,0,4.4,1.4,8.61,8.61,0,0,0,6.5-2.65Zm-7.2-15.95a5.7,5.7,0,0,0-3.77-1.3,6.77,6.77,0,0,0-4.08,1.35,5.18,5.18,0,0,0-2.15,3.65H892A5.28,5.28,0,0,0,890.15,332.23Z" fill="#fff"/><path d="M644.61,405.18a11.5,11.5,0,0,0,9.4-4.55l5,5.15q-6,6.71-14,6.7a18.27,18.27,0,0,1-13.3-5.1,17.24,17.24,0,0,1-5.22-12.87,17.41,17.41,0,0,1,5.32-13,18,18,0,0,1,13-5.2,18.49,18.49,0,0,1,14.4,6.55l-4.85,5.5a11.4,11.4,0,0,0-9.2-4.6,10.72,10.72,0,0,0-7.53,2.88,10,10,0,0,0-3.12,7.75,10.54,10.54,0,0,0,3,7.82A9.71,9.71,0,0,0,644.61,405.18Z" fill="#fff"/><path d="M690.26,398.63a13.29,13.29,0,0,1-4,9.85,14.94,14.94,0,0,1-20.35,0,14,14,0,0,1,0-19.72,14.86,14.86,0,0,1,20.35,0A13.37,13.37,0,0,1,690.26,398.63Zm-20.9,0a7.71,7.71,0,0,0,1.87,5.38,6.6,6.6,0,0,0,9.6,0,7.72,7.72,0,0,0,1.88-5.38,7.81,7.81,0,0,0-1.88-5.4,6.54,6.54,0,0,0-9.6,0A7.8,7.8,0,0,0,669.36,398.63Z" fill="#fff"/><path d="M703.31,412.08h-7.5V375h7.5Z" fill="#fff"/><path d="M717.91,412.08h-7.5V375h7.5Z" fill="#fff"/><path d="M748.31,408.18a15.05,15.05,0,0,1-10.68,4.3,14.13,14.13,0,0,1-10.12-3.77,13.26,13.26,0,0,1-4-10.13,13,13,0,0,1,4.07-10.1,13.76,13.76,0,0,1,9.63-3.75,13.91,13.91,0,0,1,9.42,3.35,11.55,11.55,0,0,1,3.88,9.2v4h-19.6a5.32,5.32,0,0,0,2.3,3.6,7.3,7.3,0,0,0,4.4,1.4,8.62,8.62,0,0,0,6.5-2.65Zm-7.2-15.95a5.75,5.75,0,0,0-3.78-1.3,6.74,6.74,0,0,0-4.07,1.35,5.15,5.15,0,0,0-2.15,3.65h11.8A5.36,5.36,0,0,0,741.11,392.23Z" fill="#fff"/><path d="M768.81,405.83q3.75,0,6.75-3.75l4.45,5q-5.21,5.4-11.25,5.4a14.57,14.57,0,0,1-10.23-3.82,14.08,14.08,0,0,1,.05-20.05,14.36,14.36,0,0,1,10-3.88,15.6,15.6,0,0,1,5.87,1.2,15,15,0,0,1,5.23,3.55l-3.9,5.1a9.31,9.31,0,0,0-6.9-3.25,7.33,7.33,0,0,0-5.08,1.93,6.84,6.84,0,0,0-2.12,5.35,6.74,6.74,0,0,0,2.12,5.32A7.23,7.23,0,0,0,768.81,405.83Z" fill="#fff"/><path d="M794,390.58v12.05a3.43,3.43,0,0,0,.8,2.43,2.48,2.48,0,0,0,1.9.87,4.34,4.34,0,0,0,3.55-1.9l2.8,5.25a10.83,10.83,0,0,1-7.38,3.2,8.95,8.95,0,0,1-9.22-9.5v-12.4h-3.15v-5.4h3.15v-8.05H794v8.05h6.5v5.4Z" fill="#fff"/><path d="M807.63,381.76a4.48,4.48,0,1,1,3.12,1.27A4.25,4.25,0,0,1,807.63,381.76Zm6.87,30.32H807v-26.9h7.5Z" fill="#fff"/><path d="M848.5,398.63a13.29,13.29,0,0,1-4,9.85,14.94,14.94,0,0,1-20.35,0,14,14,0,0,1,0-19.72,14.86,14.86,0,0,1,20.35,0A13.37,13.37,0,0,1,848.5,398.63Zm-20.9,0a7.72,7.72,0,0,0,1.88,5.38,6.6,6.6,0,0,0,9.6,0,7.71,7.71,0,0,0,1.87-5.38,7.8,7.8,0,0,0-1.87-5.4,6.54,6.54,0,0,0-9.6,0A7.81,7.81,0,0,0,827.6,398.63Z" fill="#fff"/><path d="M861.55,397.08v15h-7.5v-26.9h7.5v3a10.51,10.51,0,0,1,7.65-3.45,9.48,9.48,0,0,1,7.13,3,11.11,11.11,0,0,1,2.87,8v16.35h-7.5v-15.2c0-4.13-1.51-6.2-4.55-6.2a5.45,5.45,0,0,0-3.92,1.63A6.33,6.33,0,0,0,861.55,397.08Z" fill="#fff"/><path d="M685,472.18h-6l-1.33,3.72h-1.94l5.43-14.21h1.64l5.44,14.21h-1.92Zm-5.39-1.53h4.83L682,464Z" fill="#fff"/><path d="M698.79,470.74a6.33,6.33,0,0,1-1.1,3.88,3.53,3.53,0,0,1-3,1.48,3.9,3.9,0,0,1-3-1.22V480h-1.81V465.34h1.65l.09,1.17a3.74,3.74,0,0,1,3.07-1.37,3.59,3.59,0,0,1,3,1.44,6.37,6.37,0,0,1,1.11,4Zm-1.81-.21a4.65,4.65,0,0,0-.76-2.82,2.45,2.45,0,0,0-2.09-1,2.66,2.66,0,0,0-2.46,1.45v5.05a2.66,2.66,0,0,0,2.48,1.44,2.44,2.44,0,0,0,2.07-1A5.07,5.07,0,0,0,697,470.53Z" fill="#fff"/><path d="M706.19,467a4.94,4.94,0,0,0-.89-.07,2.39,2.39,0,0,0-2.41,1.51v7.5h-1.81V465.34h1.76l0,1.22a2.81,2.81,0,0,1,2.52-1.42,1.85,1.85,0,0,1,.8.14Z" fill="#fff"/><path d="M707.86,462.53a1.07,1.07,0,0,1,.27-.74,1,1,0,0,1,.8-.3,1,1,0,0,1,.8.3,1.07,1.07,0,0,1,.27.74,1,1,0,0,1-1.07,1,1,1,0,0,1-.8-.29A1.05,1.05,0,0,1,707.86,462.53Zm1.95,13.37H708V465.34h1.8Z" fill="#fff"/><path d="M714.67,475.9h-1.81v-15h1.81Z" fill="#fff"/><path d="M731.64,475.9h-9.32v-1.29l4.93-5.47a11.87,11.87,0,0,0,1.51-2,3.44,3.44,0,0,0,.41-1.61,2.53,2.53,0,0,0-.67-1.82,2.35,2.35,0,0,0-1.8-.72,2.77,2.77,0,0,0-2.09.77,2.91,2.91,0,0,0-.75,2.13h-1.81a4.18,4.18,0,0,1,1.27-3.17,4.67,4.67,0,0,1,3.38-1.21,4.5,4.5,0,0,1,3.13,1A3.55,3.55,0,0,1,731,465.3c0,1.4-.89,3.06-2.68,5l-3.81,4.13h7.14Z" fill="#fff"/><path d="M741.18,471.13h2v1.47h-2v3.3h-1.81v-3.3h-6.48v-1.06l6.37-9.85h1.92Zm-6.24,0h4.43v-7l-.22.39Z" fill="#fff"/><path d="M753.68,470.6h-4.76v-1.47h4.76Z" fill="#fff"/><path d="M768.83,465.4a3.31,3.31,0,0,1-.56,1.89,3.86,3.86,0,0,1-1.52,1.3,4,4,0,0,1,1.76,1.4,3.52,3.52,0,0,1,.65,2.08,3.72,3.72,0,0,1-1.24,2.94,5.48,5.48,0,0,1-6.57,0,3.73,3.73,0,0,1-1.23-2.93,3.6,3.6,0,0,1,.63-2.08,3.93,3.93,0,0,1,1.74-1.41,3.7,3.7,0,0,1-1.49-1.3,3.29,3.29,0,0,1-.55-1.88,3.69,3.69,0,0,1,1.15-2.86,4.91,4.91,0,0,1,6.07,0A3.7,3.7,0,0,1,768.83,465.4ZM767.35,472a2.64,2.64,0,0,0-.75-1.95,2.71,2.71,0,0,0-2-.75,2.54,2.54,0,0,0-2.7,2.7,2.52,2.52,0,0,0,.72,1.9,3.23,3.23,0,0,0,4,0A2.53,2.53,0,0,0,767.35,472ZM764.64,463a2.32,2.32,0,0,0-1.72.66,2.43,2.43,0,0,0-.66,1.8,2.39,2.39,0,0,0,.65,1.75,2.57,2.57,0,0,0,3.46,0,2.43,2.43,0,0,0,.65-1.75,2.39,2.39,0,0,0-.67-1.77A2.29,2.29,0,0,0,764.64,463Z" fill="#fff"/><path d="M771.56,475a1.13,1.13,0,0,1,.28-.78,1.06,1.06,0,0,1,.84-.32,1.08,1.08,0,0,1,.84.32,1.09,1.09,0,0,1,.29.78,1.05,1.05,0,0,1-.29.75,1.1,1.1,0,0,1-.84.3,1,1,0,0,1-1.12-1.05Zm0-8.63a1.16,1.16,0,0,1,.28-.78,1.06,1.06,0,0,1,.84-.31,1.07,1.07,0,0,1,.84.31,1.12,1.12,0,0,1,.29.78,1.09,1.09,0,0,1-.29.76,1.1,1.1,0,0,1-.84.3,1.09,1.09,0,0,1-.84-.3A1.13,1.13,0,0,1,771.57,466.33Z" fill="#fff"/><path d="M785.2,469.84a8.29,8.29,0,0,1-1.09,4.72,4.51,4.51,0,0,1-6.76,0,8,8,0,0,1-1.13-4.51v-2.41A8.12,8.12,0,0,1,777.3,463a4.59,4.59,0,0,1,6.78-.05,7.82,7.82,0,0,1,1.12,4.54Zm-1.81-2.47a6.63,6.63,0,0,0-.65-3.35,2.49,2.49,0,0,0-4.06,0,6.48,6.48,0,0,0-.65,3.21v2.89a6.72,6.72,0,0,0,.67,3.41,2.2,2.2,0,0,0,2,1.09,2.17,2.17,0,0,0,2-1,6.52,6.52,0,0,0,.68-3.26Z" fill="#fff"/><path d="M796.43,469.84a8.29,8.29,0,0,1-1.09,4.72,4.51,4.51,0,0,1-6.76,0,8,8,0,0,1-1.13-4.51v-2.41a8,8,0,0,1,1.09-4.66,4.58,4.58,0,0,1,6.77-.05,7.74,7.74,0,0,1,1.12,4.54Zm-1.81-2.47A6.63,6.63,0,0,0,794,464a2.49,2.49,0,0,0-4.06,0,6.48,6.48,0,0,0-.65,3.21v2.89a6.72,6.72,0,0,0,.67,3.41,2.2,2.2,0,0,0,2,1.09,2.17,2.17,0,0,0,2-1,6.52,6.52,0,0,0,.68-3.26Z" fill="#fff"/><path d="M812.8,470.74a6.27,6.27,0,0,1-1.1,3.88,3.52,3.52,0,0,1-3,1.48,3.9,3.9,0,0,1-3-1.22V480h-1.8V465.34h1.65l.09,1.17a3.71,3.71,0,0,1,3.06-1.37,3.61,3.61,0,0,1,3,1.44,6.44,6.44,0,0,1,1.1,4Zm-1.8-.21a4.65,4.65,0,0,0-.77-2.82,2.43,2.43,0,0,0-2.09-1,2.66,2.66,0,0,0-2.46,1.45v5.05a2.66,2.66,0,0,0,2.48,1.44,2.44,2.44,0,0,0,2.07-1A5.07,5.07,0,0,0,811,470.53Z" fill="#fff"/><path d="M816.8,465.34l.05,1.17a3.9,3.9,0,0,1,3.13-1.37,3,3,0,0,1,3,1.7,4,4,0,0,1,1.37-1.23,4.08,4.08,0,0,1,2-.47c2.32,0,3.49,1.23,3.53,3.68v7.08h-1.8v-7a2.44,2.44,0,0,0-.52-1.69,2.27,2.27,0,0,0-1.74-.56,2.39,2.39,0,0,0-1.67.6,2.44,2.44,0,0,0-.77,1.61v7h-1.82V469a2,2,0,0,0-2.25-2.3,2.42,2.42,0,0,0-2.44,1.51v7.71h-1.8V465.34Z" fill="#fff"/><path d="M640.11,117.55q2.7-2.13,5-4.31a28.72,28.72,0,0,0,3.68-4.23,6.84,6.84,0,0,0,1.4-3.76,9.24,9.24,0,0,0-.11-1.27,2.37,2.37,0,0,0-.38-1.16,43.73,43.73,0,0,1-4.31,5.64q-2.6,2.92-5.45,5.58c-1.89,1.77-3.67,3.31-5.33,4.64-1,.81-1.91,1.53-2.73,2.16a9.06,9.06,0,0,0-2,2l4.64-15c.11-.37.21-.76.31-1.16a5.62,5.62,0,0,0,.13-1.22,3.33,3.33,0,0,0-.52-1.82,2.21,2.21,0,0,0-2-.83,8,8,0,0,0-3.45.94,16.08,16.08,0,0,0-3.65,2.51,15.13,15.13,0,0,0-2.85,3.46,7.39,7.39,0,0,0-1.1,3.76,3.38,3.38,0,0,0,.75,2.23,3.13,3.13,0,0,0,2.57.91,5.7,5.7,0,0,1-.28-1.87,10.66,10.66,0,0,1,.55-3.15,17.1,17.1,0,0,1,1.52-3.43,10.56,10.56,0,0,1,2.21-2.73,3.91,3.91,0,0,1,2.57-1.08,1.25,1.25,0,0,1,1,.36,1.5,1.5,0,0,1,.28,1,4.41,4.41,0,0,1-.28,1.47c-.18.53-.33,1-.44,1.24q-2.6,7.57-4.5,13.18T624,131.22q-1.38,4-2.41,6.86c-.68,1.87-1.27,3.48-1.76,4.8s-1,2.51-1.47,3.54a17.76,17.76,0,0,0,1.91-.11,4.24,4.24,0,0,0,1.8-.64,3.1,3.1,0,0,0,1.21-1.79l5.36-17.35q1,2.14,2.46,4.91c1,1.85,2,3.7,3.2,5.56s2.34,3.58,3.54,5.16a27,27,0,0,0,3.4,3.82,4.6,4.6,0,0,0,2.82,1.43,3.1,3.1,0,0,0,1.76-.55,3.58,3.58,0,0,0,1.22-1.27,76.93,76.93,0,0,1-6-5.47,52.21,52.21,0,0,1-4.34-5c-1.23-1.62-2.38-3.28-3.43-5s-2.12-3.48-3.23-5.36q2.1-1.38,4.73-3.26T640.11,117.55Z" fill="#fff"/><path d="M680.44,108.84a10.86,10.86,0,0,0-3.37-3.34,16.19,16.19,0,0,0-4.61-2,19.41,19.41,0,0,0-4.94-.66,21.44,21.44,0,0,0-4.59.5,34,34,0,0,0-4.23,1.21c-1.31.48-2.44.93-3.4,1.33a1,1,0,0,0,.34.63,3.09,3.09,0,0,0,.74.61,1.38,1.38,0,0,0,.64.25,3.56,3.56,0,0,0,1.32-.58,28.83,28.83,0,0,1,2.63-1.32,15.73,15.73,0,0,1,3.73-1.14q-2.16,4.81-3.9,9.23t-3.29,8.84q-1.54,4.43-3.09,9.12t-3.32,10.11c-.14.48-.31,1-.49,1.58a4.69,4.69,0,0,0-.28,1.46,2.31,2.31,0,0,0,1.22,2,4.67,4.67,0,0,0,2.59.77q1.27-4.41,2.79-9.94t3.18-11.22h.55c.59,0,1.51,0,2.77-.14a34.82,34.82,0,0,0,4.28-.61,34.08,34.08,0,0,0,4.83-1.32,20,20,0,0,0,4.53-2.27,11.06,11.06,0,0,0,3.37-3.48,9.24,9.24,0,0,0,1.28-4.94A8.45,8.45,0,0,0,680.44,108.84Zm-4,9.21a13.52,13.52,0,0,1-4.2,3.92,21.61,21.61,0,0,1-5.72,2.4,31.25,31.25,0,0,1-6.16,1q1.77-6.09,3.7-11.72a77,77,0,0,1,4-9.67,13.08,13.08,0,0,1,4.89.91,8.45,8.45,0,0,1,3.71,2.79,8,8,0,0,1,1.4,4.87A9.52,9.52,0,0,1,676.41,118.05Z" fill="#fff"/><path d="M723.93,133.65c-.58,1.13-1.14,2.15-1.69,3a20.87,20.87,0,0,1-2.28,3.15c-1.22,1.33-2.31,2-3.27,2a1.61,1.61,0,0,1-1.57-1.16,9,9,0,0,1-.47-3.26,39.77,39.77,0,0,1,.47-5.63c.31-2.14.74-4.4,1.27-6.77s1.12-4.71,1.74-7,1.26-4.39,1.91-6.3,1.25-3.51,1.82-4.78a7.09,7.09,0,0,1,1.41-2.35,9.42,9.42,0,0,0-1.57-1.3,2.64,2.64,0,0,0-1.36-.47,4.43,4.43,0,0,0-2.65,1.55,51.93,51.93,0,0,0-4.28,4.72q-2.58,3.12-5.53,7.13t-5.77,8.26c-.7-.11-1.38-.2-2.05-.27a16.12,16.12,0,0,0-1.93-.12,9.41,9.41,0,0,0-3.62.64,3.77,3.77,0,0,0-2.13,2.24h1.94c.69,0,1.52,0,2.48,0s2.12.12,3.48.23c-1.54,2.43-2.95,4.77-4.22,7a62.17,62.17,0,0,0-3,6.05,11.52,11.52,0,0,0-1.14,4.2,3.79,3.79,0,0,0,.34,1.36,3.48,3.48,0,0,0,1.54,1.51q2.1-4.92,4.56-10t5.06-9.89c1.14.15,2.38.31,3.73.47s2.83.38,4.45.64c-.3,1.51-.53,3-.69,4.36a32.21,32.21,0,0,0-.25,3.87,12,12,0,0,0,1,5.39,3.44,3.44,0,0,0,3.29,2q2.76,0,5.33-2.81a18.52,18.52,0,0,0,1.82-2.37,25.4,25.4,0,0,0,2.41-4.87Zm-12-7-3.39-.86c-1.24-.31-2.48-.59-3.74-.85q2.61-4.59,5.09-8.43a68.56,68.56,0,0,1,4.72-6.52,17.82,17.82,0,0,1,4-3.73c-.73,1.7-1.52,3.67-2.35,5.91s-1.61,4.62-2.34,7.11S712.5,124.26,711.94,126.69Z" fill="#fff"/><path d="M742.53,133.8l-.2-.15c-.06.12-.13.24-.2.36a21.73,21.73,0,0,1-2,3h0c-.39.51-.79,1-1.22,1.47a18,18,0,0,1-4.3,3.56,9.28,9.28,0,0,1-4.7,1.35,5.14,5.14,0,0,1-2.13-.38,3.31,3.31,0,0,1-1.35-1.08,4.11,4.11,0,0,1-.69-1.52,7.18,7.18,0,0,1-.2-1.66,7.75,7.75,0,0,1,.06-.93,10.3,10.3,0,0,1,.16-1.05,18.16,18.16,0,0,0,4.78-1.14,19.46,19.46,0,0,0,4.42-2.35,12.68,12.68,0,0,0,3.26-3.28,7,7,0,0,0,1.25-4q0-2-1.08-2.7a4.34,4.34,0,0,0-2.35-.67,9.43,9.43,0,0,0-4.92,1.52,19.31,19.31,0,0,0-4.55,4,21.79,21.79,0,0,0-3.32,5.2,14.24,14.24,0,0,0-1.06,3.31,10.86,10.86,0,0,0-.18,1.94,3.39,3.39,0,0,0,0,.45,6.43,6.43,0,0,0,1.66,4.11A6.51,6.51,0,0,0,728.8,145a11.87,11.87,0,0,0,5.44-1.36,17.77,17.77,0,0,0,5-3.78c.32-.34.64-.7.94-1.07a21.42,21.42,0,0,0,2.85-4.68Zm-14.78-2a23.38,23.38,0,0,1,2.48-3.65,14,14,0,0,1,2.88-2.68,5,5,0,0,1,2.82-1,1.09,1.09,0,0,1,.94.33,1.74,1.74,0,0,1,.22.94,5.72,5.72,0,0,1-1.14,3.37,13.45,13.45,0,0,1-2.87,2.93,24.42,24.42,0,0,1-3.62,2.29,23.53,23.53,0,0,1-3.37,1.46A18.13,18.13,0,0,1,727.75,131.78Z" fill="#fff"/><path d="M761.35,133.71q-.32.6-.63,1.14a12.65,12.65,0,0,1-2.69,3.36,7.75,7.75,0,0,1-3.65,1.74,8.19,8.19,0,0,0,.25-1.29,11,11,0,0,0,.08-1.41,16.86,16.86,0,0,0-.71-4.89c-.48-1.57-1-3.06-1.44-4.48a12.41,12.41,0,0,1-.72-3.95,6,6,0,0,1,.17-1.55,3.73,3.73,0,0,0,.16-.88.68.68,0,0,0-.22-.5.89.89,0,0,0-.66-.22,1.9,1.9,0,0,0-1.47.86,4.67,4.67,0,0,0-.69,2.9v.66a30.17,30.17,0,0,1-2.43,4.2,35.5,35.5,0,0,1-3,3.81,2.19,2.19,0,0,1-.8.44,2.41,2.41,0,0,0-.33.15,3.84,3.84,0,0,0-.4.21,4.32,4.32,0,0,0-.48.31,3.26,3.26,0,0,0-1.08,1.33,4.27,4.27,0,0,0-.39,1.39h0a9.82,9.82,0,0,0-.06,1.14c0,.21,0,.43,0,.64a9.21,9.21,0,0,0,.61,2.67,6.17,6.17,0,0,0,2.16,2.79,6.68,6.68,0,0,0,4.11,1.13,8.36,8.36,0,0,0,4.29-1.1,6.47,6.47,0,0,0,2.79-3.48,10.18,10.18,0,0,0,4.58-2,7.68,7.68,0,0,0,1.58-1.59,10.83,10.83,0,0,0,1.57-3Zm-12.44,9.34a5.18,5.18,0,0,1-1.77.44,3.86,3.86,0,0,1-3.34-1.68,6.28,6.28,0,0,1-1.19-3.68c0-1.25.41-1.9,1.22-1.93a11.28,11.28,0,0,0,2.68,2.76,9.5,9.5,0,0,0,4.12,1.82A3.4,3.4,0,0,1,748.91,143.05Zm2.16-4.31c0,.4-.1.79-.17,1.16a9.32,9.32,0,0,1-4.28-2.1,10.32,10.32,0,0,1-2.57-3.32,27.4,27.4,0,0,0,2.68-3.17q1.41-1.91,2.68-4,.44,2.27,1.08,4.83a21.7,21.7,0,0,1,.63,5.17C751.12,137.86,751.1,138.33,751.07,138.74Z" fill="#fff"/><path d="M803.45,133.65a22.82,22.82,0,0,1-1.62,2.91,16.48,16.48,0,0,1-1,1.49,17.91,17.91,0,0,1-3.12,3.23,4.87,4.87,0,0,1-2.85,1.22,1.58,1.58,0,0,1-1.19-.5,2.3,2.3,0,0,1-.47-1.6,7.57,7.57,0,0,1,.61-2.88c.4-1,.8-2,1.19-3.09a9.59,9.59,0,0,0,.58-3.32,6.32,6.32,0,0,0-1-3.39,3.49,3.49,0,0,0-3.23-1.58,6.38,6.38,0,0,0-4.5,2,19.27,19.27,0,0,0-3.74,5.25,56.67,56.67,0,0,0-3,7.07,19.75,19.75,0,0,1,.06-4.45,38.38,38.38,0,0,1,1-5.44,33.47,33.47,0,0,1,1.58-4.86,21.49,21.49,0,0,0,4.61-3.9,31.37,31.37,0,0,0,3.84-5.19,33.09,33.09,0,0,0,2.63-5.42,13.64,13.64,0,0,0,1-4.56,6.87,6.87,0,0,0-.42-2.29c-.28-.79-.75-1.19-1.41-1.19-.81,0-1.78.64-2.9,1.91a32.77,32.77,0,0,0-3.54,5.08c-1.23,2.12-2.45,4.47-3.64,7s-2.28,5.18-3.24,7.79c-1.47.29-2.78.51-3.92.66a24.6,24.6,0,0,1-3.2.22,21.21,21.21,0,0,1-2.68-.16c-.87-.11-1.76-.24-2.68-.39.62-1.36,1.28-2.67,2-3.92s1.36-2.43,2-3.54l1.72-3c.51-.92.92-1.72,1.21-2.4a4.27,4.27,0,0,0,.44-1.58,1.13,1.13,0,0,0-.36-.91,1.21,1.21,0,0,0-.8-.3q-1.1,0-2.7,2a34.34,34.34,0,0,0-3.35,5.42,74.48,74.48,0,0,0-3.28,7.35,5.19,5.19,0,0,1-1.39-.28,4.87,4.87,0,0,0-1.05-.28v1c.3.11.61.25.94.41a4,4,0,0,0,1,.36c-.62,1.66-1.2,3.37-1.74,5.11-.43,1.43-.8,2.8-1.09,4.1l-.18.85q-.16.84-.27,1.59a16.7,16.7,0,0,0-.2,2.39,5.89,5.89,0,0,0,1.27,4.09,4.73,4.73,0,0,0,3.65,1.38,10.4,10.4,0,0,0,6.44-2.38,20.14,20.14,0,0,0,5.17-6.08,17.94,17.94,0,0,0-.17,3.13,11.21,11.21,0,0,0,.36,2.57,4.7,4.7,0,0,0,.8,1.71,1.44,1.44,0,0,0,1.1.61q.78,0,1.5-1.11a18.61,18.61,0,0,0,1.43-2.84l1.52-3.68c.54-1.29,1.11-2.51,1.71-3.67a12,12,0,0,1,2-2.85,3.43,3.43,0,0,1,2.49-1.1,2,2,0,0,1,1.49.6,2.82,2.82,0,0,1,.61,2.05,10.36,10.36,0,0,1-.42,2.81c-.27,1-.56,2-.85,2.94a8.67,8.67,0,0,0-.44,2.59,3.45,3.45,0,0,0,1,2.49,3.83,3.83,0,0,0,2.85,1,7.55,7.55,0,0,0,4.14-1.27,14.24,14.24,0,0,0,3.65-3.45c.1-.14.2-.27.29-.41a23.73,23.73,0,0,0,2.53-4.48Zm-17.57-16.38a43.72,43.72,0,0,1,2.79-5.06,27.73,27.73,0,0,1,2.51-3.37c.74-.8,1.24-1.21,1.49-1.21s.22.15.22.44a9.15,9.15,0,0,1-.74,3,30.39,30.39,0,0,1-2.07,4.26,41.15,41.15,0,0,1-3,4.47,21.8,21.8,0,0,1-3.62,3.73A46.72,46.72,0,0,1,785.88,117.27Zm-8,12.9c-.27,1.11-.54,2.27-.8,3.48a22.39,22.39,0,0,1-4.86,6.91,8.31,8.31,0,0,1-5.64,2.54,2.69,2.69,0,0,1-2.37-1,6.07,6.07,0,0,1-.72-3.4,21.82,21.82,0,0,1,.88-6,48.43,48.43,0,0,1,2.16-6l2.76.41a21,21,0,0,0,2.93.2c1,0,2.11-.06,3.23-.17a26.71,26.71,0,0,0,3.57-.61C778.55,127.83,778.17,129.07,777.89,130.17Z" fill="#fff"/><path d="M821.91,133.65c-.22.43-.46.86-.71,1.27a22.93,22.93,0,0,1-2.66,3.6,18.27,18.27,0,0,1-4.31,3.56,9.28,9.28,0,0,1-4.7,1.35,5.14,5.14,0,0,1-2.13-.38,3.31,3.31,0,0,1-1.35-1.08,4.11,4.11,0,0,1-.69-1.52,7.18,7.18,0,0,1-.2-1.66,7.75,7.75,0,0,1,.06-.93c0-.34.09-.69.16-1.05a18.16,18.16,0,0,0,4.78-1.14,19.53,19.53,0,0,0,4.43-2.35,12.8,12.8,0,0,0,3.25-3.28,7,7,0,0,0,1.25-4q0-2-1.08-2.7a4.34,4.34,0,0,0-2.35-.67,9.43,9.43,0,0,0-4.92,1.52,19.31,19.31,0,0,0-4.55,4,21.79,21.79,0,0,0-3.32,5.2,14.55,14.55,0,0,0-1,3.18,11.5,11.5,0,0,0-.2,2.07.91.91,0,0,0,0,.17,6.07,6.07,0,0,0,6.73,6.24,11.87,11.87,0,0,0,5.44-1.36,17.77,17.77,0,0,0,5-3.78,20.61,20.61,0,0,0,2-2.46,22.1,22.1,0,0,0,1.82-3.29Zm-14.59-1.87a23.38,23.38,0,0,1,2.48-3.65,14,14,0,0,1,2.88-2.68,5,5,0,0,1,2.82-1,1.09,1.09,0,0,1,.94.33,1.74,1.74,0,0,1,.22.94,5.72,5.72,0,0,1-1.14,3.37,13.45,13.45,0,0,1-2.87,2.93,24.42,24.42,0,0,1-3.62,2.29,23.06,23.06,0,0,1-3.37,1.46A18.13,18.13,0,0,1,807.32,131.78Z" fill="#fff"/><path d="M837.6,133.65c-.11.24-.23.47-.35.69a21.39,21.39,0,0,1-4.51,6.22,8.33,8.33,0,0,1-5.64,2.54,2.72,2.72,0,0,1-2.38-1,6.08,6.08,0,0,1-.71-3.4,21.82,21.82,0,0,1,.88-6,48.43,48.43,0,0,1,2.16-6h.82c1.26,0,2.69-.06,4.29-.17s3.41-.28,5.44-.49v-1c-1.36.15-2.72.24-4.06.27s-2.63.06-3.84.06h-2.05q1.61-3.42,3.32-6.35c1.14-2,2.1-3.64,2.87-5.06a7.64,7.64,0,0,0,1.16-3.07,1.13,1.13,0,0,0-.36-.91,1.21,1.21,0,0,0-.8-.3c-.55,0-1.22.43-2,1.3a20.21,20.21,0,0,0-2.49,3.48c-.87,1.45-1.74,3.11-2.63,5s-1.71,3.79-2.48,5.77c-.52,0-1-.07-1.38-.11s-.76-.07-1.05-.11v1a5.16,5.16,0,0,0,.94.25l1,.19a74.54,74.54,0,0,0-2.3,7.32c-.11.43-.21.84-.29,1.24q-.3,1.35-.45,2.52a15.31,15.31,0,0,0-.17,2.24,5.84,5.84,0,0,0,1.27,4.09,4.73,4.73,0,0,0,3.65,1.38,9.75,9.75,0,0,0,5-1.44,16.58,16.58,0,0,0,4.44-3.92,22.15,22.15,0,0,0,1.45-2,24.87,24.87,0,0,0,1.9-3.58Z" fill="#fff"/><path d="M850.92,133.65c-.32.63-.64,1.23-1,1.79a18.73,18.73,0,0,1-3.54,4.79,6.29,6.29,0,0,1-4,1.88,2.82,2.82,0,0,1-2-.66,3.88,3.88,0,0,1-.66-2.66,10.9,10.9,0,0,1,.86-4.06,28.92,28.92,0,0,1,2-4.06c.78-1.29,1.45-2.43,2-3.42a5.34,5.34,0,0,0,.86-2.16,1.13,1.13,0,0,0-.36-.91,1.31,1.31,0,0,0-.86-.31,3.26,3.26,0,0,0-2.26,1.19,13.93,13.93,0,0,0-2.19,3.07,29.06,29.06,0,0,0-1.79,4c-.28.76-.52,1.49-.74,2.21s-.36,1.26-.51,1.86-.24,1.1-.32,1.59a11.07,11.07,0,0,0-.14,1.61,5.2,5.2,0,0,0,1,3.29,3.81,3.81,0,0,0,3.21,1.35,9.66,9.66,0,0,0,6.27-2.54,13.31,13.31,0,0,0,2.8-3.33,19.54,19.54,0,0,0,1.81-4Zm-.67-19.23a2.13,2.13,0,0,0-1.32-.38,5,5,0,0,0-2.68.85,2.46,2.46,0,0,0-1.36,2,1.53,1.53,0,0,0,.69,1.38,2.86,2.86,0,0,0,1.58.45,3.76,3.76,0,0,0,2.46-1,2.72,2.72,0,0,0,1.13-2A1.58,1.58,0,0,0,850.25,114.42Z" fill="#fff"/><path d="M869,133.79l-.25-.19c0,.14-.11.28-.17.41a18.26,18.26,0,0,1-2,3.66c-.31.43-.62.84-1,1.23a14.75,14.75,0,0,1-4.17,3.49,9.38,9.38,0,0,1-4.45,1.21c-1.58,0-2.65-.48-3.2-1.44A6.17,6.17,0,0,1,853,139a12.45,12.45,0,0,1,.86-4.37,21.49,21.49,0,0,1,2.21-4.42A15.25,15.25,0,0,1,859,126.8a4.83,4.83,0,0,1,3.07-1.32,1.14,1.14,0,0,1,1,.35,1.84,1.84,0,0,1,.25,1,6.4,6.4,0,0,1-.61,2.57,3.57,3.57,0,0,1-1.44,1.79,2,2,0,0,0,1.6.83,2.27,2.27,0,0,0,2-1.21,5.26,5.26,0,0,0,.75-2.82,5.2,5.2,0,0,0-.83-2.77,3.37,3.37,0,0,0-3.1-1.32,8.42,8.42,0,0,0-4.25,1.24,14.67,14.67,0,0,0-3.92,3.35,17.74,17.74,0,0,0-2.85,4.72,14.82,14.82,0,0,0-.71,2.2,14,14,0,0,0-.36,2.73c0,.15,0,.31,0,.46a7.2,7.2,0,0,0,1.77,5.3,6,6,0,0,0,4.42,1.77,10.87,10.87,0,0,0,5.36-1.49,17.79,17.79,0,0,0,4.86-4.12c.23-.28.46-.56.68-.85a20.43,20.43,0,0,0,2.8-5.09Z" fill="#fff"/><path d="M887.83,133.71a14.39,14.39,0,0,1-3.31,4.5,7.8,7.8,0,0,1-3.65,1.74,9.52,9.52,0,0,0,.25-1.29,13.18,13.18,0,0,0,.08-1.41,16.53,16.53,0,0,0-.72-4.89c-.48-1.57-1-3.06-1.44-4.48a12.66,12.66,0,0,1-.71-3.95,6.1,6.1,0,0,1,.16-1.55,3.89,3.89,0,0,0,.17-.88.72.72,0,0,0-.22-.5.9.9,0,0,0-.67-.22,1.9,1.9,0,0,0-1.46.86,4.67,4.67,0,0,0-.69,2.9v.66a30.17,30.17,0,0,1-2.43,4.2,36.78,36.78,0,0,1-3,3.81,2.29,2.29,0,0,1-.8.44l-.33.14-.42.22-.47.31a3.43,3.43,0,0,0-1.08,1.33,5,5,0,0,0-.42,2,4.43,4.43,0,0,0,0,.52,7.41,7.41,0,0,0,.07,1.05,9.37,9.37,0,0,0,.57,2.26,6.15,6.15,0,0,0,2.15,2.79,6.71,6.71,0,0,0,4.12,1.13,8.35,8.35,0,0,0,4.28-1.1,6.47,6.47,0,0,0,2.79-3.48,10.17,10.17,0,0,0,4.59-2,9.4,9.4,0,0,0,3.15-4.62Zm-12.43,9.34a5.23,5.23,0,0,1-1.77.44,3.85,3.85,0,0,1-3.34-1.68,6.21,6.21,0,0,1-1.19-3.68c0-1.25.4-1.9,1.22-1.93A11.22,11.22,0,0,0,873,139a9.56,9.56,0,0,0,4.12,1.82A3.42,3.42,0,0,1,875.4,143.05Zm2.15-4.31a10.46,10.46,0,0,1-.16,1.16,9.36,9.36,0,0,1-4.29-2.1,10.46,10.46,0,0,1-2.57-3.32,27.4,27.4,0,0,0,2.69-3.17c.93-1.27,1.83-2.61,2.67-4q.45,2.27,1.08,4.83a21.72,21.72,0,0,1,.64,5.17C877.61,137.86,877.59,138.33,877.55,138.74Z" fill="#fff"/><path d="M1370.56,51.73h-15V45.32a84.78,84.78,0,0,0,15,3.68Z" fill="#fff"/><path d="M1396.53,51.73h-15V50a129.86,129.86,0,0,0,15-.33Z" fill="#fff"/><path d="M1421.27,51.73h-15v-3c5-.63,10-1.43,15-2.27Z" fill="#fff"/><path d="M1449.28,51.73h-15V44.21c5-.85,10-1.64,15-2.28Z" fill="#fff"/><path d="M1475.26,51.73h-15V40.85a127.57,127.57,0,0,1,15-.19Z" fill="#fff"/><path d="M1500,51.73h-15V41.64a84.78,84.78,0,0,1,15,3.68Z" fill="#fff"/><path d="M1370.56,43.79a61.09,61.09,0,0,1-15-5.78V31.6a61.09,61.09,0,0,0,15,5.78Z" fill="#fff"/><path d="M1396.53,44.9a83.87,83.87,0,0,1-15,.51V39a83.87,83.87,0,0,0,15-.51Z" fill="#fff"/><path d="M1421.27,39.76c-5,1.32-10,2.57-15,3.57V36.92c5-1,10-2.25,15-3.57Z" fill="#fff"/><path d="M1449.28,32.7c-5,1-10,2.24-15,3.57V29.86c5-1.33,10-2.57,15-3.57Z" fill="#fff"/><path d="M1475.26,30.71a80.2,80.2,0,0,0-15,.28V24.58a80.2,80.2,0,0,1,15-.28Z" fill="#fff"/><path d="M1500,38a61,61,0,0,0-15-5.77V25.83a61,61,0,0,1,15,5.77Z" fill="#fff"/><path d="M1370.56,28a84.78,84.78,0,0,1-15-3.68V17.89h15Z" fill="#fff"/><path d="M1396.53,28.68a129.86,129.86,0,0,1-15,.33V17.89h15Z" fill="#fff"/><path d="M1421.27,25.41c-5,.84-10,1.64-15,2.27V17.89h15Z" fill="#fff"/><path d="M1449.28,20.91c-5,.64-10,1.43-15,2.28v-5.3h15Z" fill="#fff"/><path d="M1475.26,19.64a125.45,125.45,0,0,0-15,.19V17.89h15Z" fill="#fff"/><path d="M1500,24.3a84.78,84.78,0,0,0-15-3.68V17.89h15Z" fill="#fff"/><path d="M1350.68,498.1a34.29,34.29,0,0,1-10.22-6.57V481.31h10.22Z" fill="#fff"/><path d="M1350.68,527.94c-3.4-3.26-6.81-8.35-10.22-15.74V502c3.41,5.59,6.82,9.43,10.22,11.9Z" fill="#fff"/><path d="M1350.68,552.29c-3.4-4-6.81-10.3-10.22-19.43V522.64c3.41,8.59,6.82,14.5,10.22,18.29Z" fill="#fff"/><path d="M1368.36,499.35a34.16,34.16,0,0,1-10.22.59V481.31h10.22Z" fill="#fff"/><path d="M1368.36,531a14.89,14.89,0,0,1-10.22,1.4V517.2a19.26,19.26,0,0,0,10.22-1.06Z" fill="#fff"/><path d="M1368.36,556c-3.41,2-6.81,2.77-10.22,1.72V546.06c3.41,1,6.81.26,10.22-1.63Z" fill="#fff"/><path d="M1385.2,493.51c-3.41,1.51-6.81,2.93-10.22,4.06V481.31h10.22Z" fill="#fff"/><path d="M1385.2,517a103,103,0,0,1-10.22,9.73V512.91a97,97,0,0,0,10.22-7.34Z" fill="#fff"/><path d="M1385.2,538.74a115.9,115.9,0,0,1-10.22,12V539.47a112,112,0,0,0,10.22-11.3Z" fill="#fff"/><path d="M1404.26,485.49c-3.4,1.13-6.81,2.55-10.22,4.05v-8.23h10.22C1404.27,482.49,1404.27,483.89,1404.26,485.49Z" fill="#fff"/><path d="M1404.26,497.72a102.77,102.77,0,0,0-10.22,9.72v-9.06a96.62,96.62,0,0,1,10.22-7.34C1404.27,493.06,1404.27,495.28,1404.26,497.72Z" fill="#fff"/><path d="M1404.26,515A117.31,117.31,0,0,0,1394,527v-9.88a111.91,111.91,0,0,1,10.22-11.29Q1404.28,510.1,1404.26,515Z" fill="#fff"/><path d="M1421.94,483.22a32.79,32.79,0,0,0-10.22.33v-2.24h10.22Z" fill="#fff"/><path d="M1421.94,492.28a14.25,14.25,0,0,0-10.22.78v-5.54a18.49,18.49,0,0,1,10.22-.59Z" fill="#fff"/><path d="M1421.94,508.29c-3.41-1.35-6.81-.84-10.22,1v-8.84c3.41-1.69,6.81-2.18,10.22-.91Z" fill="#fff"/><path d="M1438.78,491.53a34,34,0,0,0-10.22-6.57v-3.65h10.22Z" fill="#fff"/><path d="M1438.78,512.2c-3.41-7.4-6.81-12.49-10.22-15.75v-6.37c3.41,2.46,6.81,6.31,10.22,11.89Z" fill="#fff"/><path d="M1438.78,532.86c-3.41-9.12-6.81-15.4-10.22-19.43v-9.08c3.41,3.79,6.81,9.7,10.22,18.29Z" fill="#fff"/><path d="M1350.68,568.43c-3.4-3.79-6.81-9.7-10.22-18.29V539.92c3.41,9.12,6.82,15.4,10.22,19.43Z" fill="#fff"/><path d="M1350.68,582.7c-3.4-2.46-6.81-6.31-10.22-11.89V560.59c3.41,7.39,6.82,12.48,10.22,15.74Z" fill="#fff"/><path d="M1350.68,591.47h-10.22V581.25a34.1,34.1,0,0,0,10.22,6.57Z" fill="#fff"/><path d="M1368.36,571.93c-3.41,1.89-6.81,2.61-10.22,1.63v-8.77c3.41,1.05,6.81.28,10.22-1.73Z" fill="#fff"/><path d="M1368.36,585a19.36,19.36,0,0,1-10.22,1v-5.29a14.89,14.89,0,0,0,10.22-1.4Z" fill="#fff"/><path d="M1368.36,591.47h-10.22v-1.81a33.83,33.83,0,0,0,10.22-.58Z" fill="#fff"/><path d="M1385.2,555.67A112,112,0,0,1,1375,567v-9.18a116.07,116.07,0,0,0,10.22-12Z" fill="#fff"/><path d="M1385.2,574.4a95.73,95.73,0,0,1-10.22,7.35v-6.68a104,104,0,0,0,10.22-9.72Z" fill="#fff"/><path d="M1385.2,591.47H1375v-4.18c3.41-1.13,6.81-2.55,10.22-4Z" fill="#fff"/><path d="M1404.26,533.32A111.91,111.91,0,0,0,1394,544.61V534.05a116.24,116.24,0,0,1,10.22-12Q1404.28,527.38,1404.26,533.32Z" fill="#fff"/><path d="M1404.26,559.87a98.07,98.07,0,0,0-10.22,7.34V555.83a102.77,102.77,0,0,1,10.22-9.72Q1404.28,552.68,1404.26,559.87Z" fill="#fff"/><path d="M1404.26,591.47H1394v-12.2c3.41-1.51,6.82-2.93,10.22-4.06Q1404.28,583,1404.26,591.47Z" fill="#fff"/><path d="M1421.94,527c-3.41-1.27-6.81-.78-10.22.91v-11.6c3.41-1.8,6.81-2.32,10.22-1Z" fill="#fff"/><path d="M1421.94,555.77a18.49,18.49,0,0,0-10.22.58v-14.9a14.3,14.3,0,0,1,10.22-.78Z" fill="#fff"/><path d="M1421.94,591.47h-10.22v-18.2a32.79,32.79,0,0,1,10.22-.32Z" fill="#fff"/><path d="M1438.78,550.14c-3.41-8.59-6.81-14.5-10.22-18.29V520.49c3.41,4,6.81,10.3,10.22,19.43Z" fill="#fff"/><path d="M1438.78,570.81c-3.41-5.59-6.81-9.43-10.22-11.9V544.84c3.41,3.26,6.81,8.35,10.22,15.75Z" fill="#fff"/><path d="M1438.78,591.47h-10.22V574.68a34.17,34.17,0,0,1,10.22,6.57Z" fill="#fff"/><rect x="260.57" y="367.96" width="132.76" height="9.63" rx="4.69" transform="translate(38.16 775.83) rotate(-103.13)" fill="none" stroke="#fff" stroke-miterlimit="10" stroke-width="2.92"/><polygon points="301.37 322.83 190.83 383.41 200.91 426.53 326.16 428.87 301.37 322.83" fill="none" stroke="#fff" stroke-miterlimit="10" stroke-width="3"/><path d="M182.53,385.44l-30.25,7.05a12.21,12.21,0,0,0-9.11,14.66l4.49,19.26a12.19,12.19,0,0,0,14.66,9.11l30.24-7a11.81,11.81,0,0,0,1.2-.34l-10-42.91C183.35,385.27,182.94,385.35,182.53,385.44Z" fill="none" stroke="#fff" stroke-miterlimit="10" stroke-width="3"/><polygon points="335.58 350.31 343.89 385.95 358.41 370.75 355.32 357.52 335.58 350.31" fill="none" stroke="#fff" stroke-miterlimit="10" stroke-width="3"/><rect x="356.56" y="322.85" width="34.57" height="9.12" rx="3.97" transform="translate(869.27 288.51) rotate(134.3)" fill="none" stroke="#fff" stroke-miterlimit="10" stroke-width="2.69"/><rect x="367.17" y="383.99" width="34.94" height="9.12" rx="4.01" transform="translate(617.95 883.02) rotate(-160.55)" fill="none" stroke="#fff" stroke-miterlimit="10" stroke-width="2.71"/><rect x="381" y="351.57" width="34.96" height="9.05" rx="3.85" transform="translate(867.42 612.39) rotate(166.87)" fill="none" stroke="#fff" stroke-miterlimit="10" stroke-width="2.55"/><path d="M165.82,442.81l8,34.51a6.92,6.92,0,0,0,13.48-3.14l-8.05-34.51a7,7,0,0,0-.3-.95l-13.33,3.11A6.89,6.89,0,0,0,165.82,442.81Z" fill="none" stroke="#fff" stroke-miterlimit="10" stroke-width="3"/><rect x="186.27" y="436.11" width="8.84" height="8.84" transform="translate(476.43 826.24) rotate(166.87)" fill="none" stroke="#fff" stroke-miterlimit="10" stroke-width="3"/><rect x="1076.56" y="367.96" width="132.76" height="9.63" rx="4.69" transform="translate(520.36 1401.2) rotate(-76.87)" fill="none" stroke="#fff" stroke-miterlimit="10" stroke-width="2.92"/><polygon points="1168.52 322.83 1279.06 383.41 1268.98 426.53 1143.73 428.87 1168.52 322.83" fill="none" stroke="#fff" stroke-miterlimit="10" stroke-width="3"/><path d="M1287.36,385.44l30.25,7.05a12.21,12.21,0,0,1,9.11,14.66l-4.49,19.26a12.19,12.19,0,0,1-14.66,9.11l-30.24-7c-.41-.09-.81-.21-1.21-.34l10-42.91C1286.54,385.27,1287,385.35,1287.36,385.44Z" fill="none" stroke="#fff" stroke-miterlimit="10" stroke-width="3"/><polygon points="1134.31 350.31 1126 385.95 1111.48 370.75 1114.57 357.52 1134.31 350.31" fill="none" stroke="#fff" stroke-miterlimit="10" stroke-width="3"/><rect x="1078.76" y="322.85" width="34.57" height="9.12" rx="3.97" transform="translate(564.92 -685.71) rotate(45.7)" fill="none" stroke="#fff" stroke-miterlimit="10" stroke-width="2.69"/><rect x="1067.77" y="383.99" width="34.94" height="9.12" rx="4.01" transform="matrix(0.94, -0.33, 0.33, 0.94, -67.45, 383.56)" fill="none" stroke="#fff" stroke-miterlimit="10" stroke-width="2.71"/><rect x="1053.92" y="351.57" width="34.96" height="9.05" rx="3.85" transform="translate(108.86 -234) rotate(13.13)" fill="none" stroke="#fff" stroke-miterlimit="10" stroke-width="2.55"/><path d="M1304.07,442.81l-8,34.51a6.92,6.92,0,1,1-13.48-3.14l8-34.51a8.79,8.79,0,0,1,.29-.95l13.34,3.11A6.89,6.89,0,0,1,1304.07,442.81Z" fill="none" stroke="#fff" stroke-miterlimit="10" stroke-width="3"/><rect x="1274.79" y="436.11" width="8.84" height="8.84" transform="translate(133.46 -278.99) rotate(13.13)" fill="none" stroke="#fff" stroke-miterlimit="10" stroke-width="3"/><path d="M193.76,63A140.59,140.59,0,0,1,0,193.09V0H178.88A140,140,0,0,1,193.76,63Z" fill="#fff"/><circle cx="272.85" cy="63" r="44.83" fill="#fff"/><circle cx="1239.22" cy="544.76" r="27.82" fill="#fff"/><circle cx="1341.55" cy="187.18" r="87.01" fill="#fff"/><path d="M1500,270.34V389a59.35,59.35,0,1,1,0-118.69Z" fill="#fff"/><polygon points="398.2 17.92 415.14 110.37 437.26 110.36 452.58 17.89 398.2 17.92" fill="none" stroke="#fff" stroke-miterlimit="10" stroke-width="3"/><circle cx="425.36" cy="133.99" r="15.18" fill="none" stroke="#fff" stroke-miterlimit="10" stroke-width="3"/><polygon points="1044.21 21.13 1061.16 113.58 1083.28 113.56 1098.6 21.09 1044.21 21.13" fill="none" stroke="#fff" stroke-miterlimit="10" stroke-width="3"/><circle cx="1071.38" cy="137.2" r="15.18" fill="none" stroke="#fff" stroke-miterlimit="10" stroke-width="3"/></g></g></svg>